<?xml version="1.0" encoding="UTF-8" standalone="no"?>
<!DOCTYPE svg PUBLIC "-//W3C//DTD SVG 1.1//EN"
 "http://www.w3.org/Graphics/SVG/1.1/DTD/svg11.dtd">
<!-- Generated by graphviz version 7.1.0 (20230121.1956)
 -->
<!-- Title: /Users/ladeira/Documents/src/onion/ComponentID.hpp Pages: 1 -->
<svg width="150pt" height="95pt"
 viewBox="0.00 0.00 150.00 95.00" xmlns="http://www.w3.org/2000/svg" xmlns:xlink="http://www.w3.org/1999/xlink">
<g id="graph0" class="graph" transform="scale(1 1) rotate(0) translate(4 91)">
<title>/Users/ladeira/Documents/src/onion/ComponentID.hpp</title>
<polygon fill="white" stroke="none" points="-4,4 -4,-91 146,-91 146,4 -4,4"/>
<!-- Node1 -->
<g id="node1" class="node">
<title>Node1</title>
<g id="a_node1"><a xlink:title="This header contains the classes used to identify a component of the Onion Framework.">
<polygon fill="#bfbfbf" stroke="black" points="0,-56.5 0,-86.5 142,-86.5 142,-56.5 0,-56.5"/>
<text text-anchor="start" x="8" y="-74.5" font-family="Helvetica,sans-Serif" font-size="10.00">/Users/ladeira/Documents</text>
<text text-anchor="middle" x="71" y="-63.5" font-family="Helvetica,sans-Serif" font-size="10.00">/src/onion/ComponentID.hpp</text>
</a>
</g>
</g>
<!-- Node2 -->
<g id="node2" class="node">
<title>Node2</title>
<g id="a_node2"><a xlink:title=" ">
<polygon fill="white" stroke="#bfbfbf" points="18.5,-0.5 18.5,-19.5 59.5,-19.5 59.5,-0.5 18.5,-0.5"/>
<text text-anchor="middle" x="39" y="-7.5" font-family="Helvetica,sans-Serif" font-size="10.00">string</text>
</a>
</g>
</g>
<!-- Node1&#45;&gt;Node2 -->
<g id="edge1" class="edge">
<title>Node1&#45;&gt;Node2</title>
<path fill="none" stroke="midnightblue" d="M63.58,-56.7C59.22,-48.59 53.65,-38.23 48.91,-29.43"/>
<polygon fill="midnightblue" stroke="midnightblue" points="52.05,-27.88 44.23,-20.73 45.89,-31.2 52.05,-27.88"/>
</g>
<!-- Node3 -->
<g id="node3" class="node">
<title>Node3</title>
<g id="a_node3"><a xlink:title=" ">
<polygon fill="white" stroke="#bfbfbf" points="78,-0.5 78,-19.5 130,-19.5 130,-0.5 78,-0.5"/>
<text text-anchor="middle" x="104" y="-7.5" font-family="Helvetica,sans-Serif" font-size="10.00">ostream</text>
</a>
</g>
</g>
<!-- Node1&#45;&gt;Node3 -->
<g id="edge2" class="edge">
<title>Node1&#45;&gt;Node3</title>
<path fill="none" stroke="midnightblue" d="M78.65,-56.7C83.15,-48.59 88.9,-38.23 93.78,-29.43"/>
<polygon fill="midnightblue" stroke="midnightblue" points="96.82,-31.16 98.61,-20.72 90.7,-27.77 96.82,-31.16"/>
</g>
</g>
</svg>
