<?xml version="1.0" encoding="UTF-8" standalone="no"?>
<!DOCTYPE svg PUBLIC "-//W3C//DTD SVG 1.1//EN"
 "http://www.w3.org/Graphics/SVG/1.1/DTD/svg11.dtd">
<!-- Generated by graphviz version 2.43.0 (0)
 -->
<!-- Title: /home/ladeira/Documents/src/onion/ComparissonOperator.hpp Pages: 1 -->
<svg width="202pt" height="106pt"
 viewBox="0.00 0.00 202.00 106.00" xmlns="http://www.w3.org/2000/svg" xmlns:xlink="http://www.w3.org/1999/xlink">
<g id="graph0" class="graph" transform="scale(1 1) rotate(0) translate(4 102)">
<title>/home/ladeira/Documents/src/onion/ComparissonOperator.hpp</title>
<polygon fill="white" stroke="transparent" points="-4,4 -4,-102 198,-102 198,4 -4,4"/>
<!-- Node1 -->
<g id="node1" class="node">
<title>Node1</title>
<g id="a_node1"><a xlink:title="This header introduces the facilities for abstracting the comparisson of objects.">
<polygon fill="#bfbfbf" stroke="black" points="0,-67.5 0,-97.5 194,-97.5 194,-67.5 0,-67.5"/>
<text text-anchor="start" x="8" y="-85.5" font-family="Helvetica,sans-Serif" font-size="10.00">/home/ladeira/Documents</text>
<text text-anchor="middle" x="97" y="-74.5" font-family="Helvetica,sans-Serif" font-size="10.00">/src/onion/ComparissonOperator.hpp</text>
</a>
</g>
</g>
<!-- Node2 -->
<g id="node2" class="node">
<title>Node2</title>
<g id="a_node2"><a xlink:href="_select_operator_8hpp.html" target="_top" xlink:title="This header introduces the SelectOperator class interface.">
<polygon fill="white" stroke="black" points="17,-0.5 17,-30.5 177,-30.5 177,-0.5 17,-0.5"/>
<text text-anchor="start" x="25" y="-18.5" font-family="Helvetica,sans-Serif" font-size="10.00">/home/ladeira/Documents</text>
<text text-anchor="middle" x="97" y="-7.5" font-family="Helvetica,sans-Serif" font-size="10.00">/src/onion/SelectOperator.hpp</text>
</a>
</g>
</g>
<!-- Node1&#45;&gt;Node2 -->
<g id="edge1" class="edge">
<title>Node1&#45;&gt;Node2</title>
<path fill="none" stroke="midnightblue" d="M97,-57.11C97,-48.15 97,-38.32 97,-30.58"/>
<polygon fill="midnightblue" stroke="midnightblue" points="93.5,-57.4 97,-67.4 100.5,-57.4 93.5,-57.4"/>
</g>
</g>
</svg>
