<?xml version="1.0" encoding="UTF-8" standalone="no"?>
<!DOCTYPE svg PUBLIC "-//W3C//DTD SVG 1.1//EN"
 "http://www.w3.org/Graphics/SVG/1.1/DTD/svg11.dtd">
<!-- Generated by graphviz version 7.1.0 (20230121.1956)
 -->
<!-- Title: /Users/ladeira/Documents/src/onion/ComponentID.hpp Pages: 1 -->
<svg width="868pt" height="106pt"
 viewBox="0.00 0.00 867.50 106.00" xmlns="http://www.w3.org/2000/svg" xmlns:xlink="http://www.w3.org/1999/xlink">
<g id="graph0" class="graph" transform="scale(1 1) rotate(0) translate(4 102)">
<title>/Users/ladeira/Documents/src/onion/ComponentID.hpp</title>
<polygon fill="white" stroke="none" points="-4,4 -4,-102 863.5,-102 863.5,4 -4,4"/>
<!-- Node1 -->
<g id="node1" class="node">
<title>Node1</title>
<g id="a_node1"><a xlink:title="This header contains the classes used to identify a component of the Onion Framework.">
<polygon fill="#bfbfbf" stroke="black" points="354.5,-67.5 354.5,-97.5 496.5,-97.5 496.5,-67.5 354.5,-67.5"/>
<text text-anchor="start" x="362.5" y="-85.5" font-family="Helvetica,sans-Serif" font-size="10.00">/Users/ladeira/Documents</text>
<text text-anchor="middle" x="425.5" y="-74.5" font-family="Helvetica,sans-Serif" font-size="10.00">/src/onion/ComponentID.hpp</text>
</a>
</g>
</g>
<!-- Node2 -->
<g id="node2" class="node">
<title>Node2</title>
<g id="a_node2"><a xlink:href="_create_operator_8hpp.html" target="_top" xlink:title="This header contains the definition of the CreateOperator component.">
<polygon fill="white" stroke="black" points="0,-0.5 0,-30.5 147,-30.5 147,-0.5 0,-0.5"/>
<text text-anchor="start" x="8" y="-18.5" font-family="Helvetica,sans-Serif" font-size="10.00">/Users/ladeira/Documents</text>
<text text-anchor="middle" x="73.5" y="-7.5" font-family="Helvetica,sans-Serif" font-size="10.00">/src/onion/CreateOperator.hpp</text>
</a>
</g>
</g>
<!-- Node1&#45;&gt;Node2 -->
<g id="edge1" class="edge">
<title>Node1&#45;&gt;Node2</title>
<path fill="none" stroke="midnightblue" d="M343.46,-66.35C284,-55.37 204.29,-40.65 146.92,-30.06"/>
<polygon fill="midnightblue" stroke="midnightblue" points="342.73,-69.78 353.2,-68.15 344,-62.89 342.73,-69.78"/>
</g>
<!-- Node3 -->
<g id="node3" class="node">
<title>Node3</title>
<g id="a_node3"><a xlink:href="_objective_function_8hpp.html" target="_top" xlink:title="This header introduces the ObjectiveFunction class interface.">
<polygon fill="white" stroke="black" points="165.5,-0.5 165.5,-30.5 325.5,-30.5 325.5,-0.5 165.5,-0.5"/>
<text text-anchor="start" x="173.5" y="-18.5" font-family="Helvetica,sans-Serif" font-size="10.00">/Users/ladeira/Documents</text>
<text text-anchor="middle" x="245.5" y="-7.5" font-family="Helvetica,sans-Serif" font-size="10.00">/src/onion/ObjectiveFunction.hpp</text>
</a>
</g>
</g>
<!-- Node1&#45;&gt;Node3 -->
<g id="edge2" class="edge">
<title>Node1&#45;&gt;Node3</title>
<path fill="none" stroke="midnightblue" d="M376.15,-63.68C347.13,-53.2 310.97,-40.14 284.05,-30.42"/>
<polygon fill="midnightblue" stroke="midnightblue" points="374.87,-66.94 385.46,-67.04 377.25,-60.35 374.87,-66.94"/>
</g>
<!-- Node4 -->
<g id="node4" class="node">
<title>Node4</title>
<g id="a_node4"><a xlink:href="_parameter_operator_8hpp.html" target="_top" xlink:title="This header has the definition of the CreateOperator component.">
<polygon fill="white" stroke="black" points="344,-0.5 344,-30.5 507,-30.5 507,-0.5 344,-0.5"/>
<text text-anchor="start" x="352" y="-18.5" font-family="Helvetica,sans-Serif" font-size="10.00">/Users/ladeira/Documents</text>
<text text-anchor="middle" x="425.5" y="-7.5" font-family="Helvetica,sans-Serif" font-size="10.00">/src/onion/ParameterOperator.hpp</text>
</a>
</g>
</g>
<!-- Node1&#45;&gt;Node4 -->
<g id="edge3" class="edge">
<title>Node1&#45;&gt;Node4</title>
<path fill="none" stroke="midnightblue" d="M425.5,-56.36C425.5,-47.49 425.5,-37.84 425.5,-30.26"/>
<polygon fill="midnightblue" stroke="midnightblue" points="422,-56.2 425.5,-66.2 429,-56.2 422,-56.2"/>
</g>
<!-- Node5 -->
<g id="node5" class="node">
<title>Node5</title>
<g id="a_node5"><a xlink:href="_perturbation_operator_8hpp.html" target="_top" xlink:title="This header has the definition the PerturbationOperator Abstract Data type.">
<polygon fill="white" stroke="black" points="525.5,-0.5 525.5,-30.5 695.5,-30.5 695.5,-0.5 525.5,-0.5"/>
<text text-anchor="start" x="533.5" y="-18.5" font-family="Helvetica,sans-Serif" font-size="10.00">/Users/ladeira/Documents</text>
<text text-anchor="middle" x="610.5" y="-7.5" font-family="Helvetica,sans-Serif" font-size="10.00">/src/onion/PerturbationOperator.hpp</text>
</a>
</g>
</g>
<!-- Node1&#45;&gt;Node5 -->
<g id="edge4" class="edge">
<title>Node1&#45;&gt;Node5</title>
<path fill="none" stroke="midnightblue" d="M475.83,-63.82C505.72,-53.31 543.09,-40.18 570.88,-30.42"/>
<polygon fill="midnightblue" stroke="midnightblue" points="474.89,-60.44 466.62,-67.05 477.21,-67.04 474.89,-60.44"/>
</g>
<!-- Node6 -->
<g id="node6" class="node">
<title>Node6</title>
<g id="a_node6"><a xlink:href="_select_operator_8hpp.html" target="_top" xlink:title="This header introduces the SelectOperator class interface.">
<polygon fill="white" stroke="black" points="713.5,-0.5 713.5,-30.5 859.5,-30.5 859.5,-0.5 713.5,-0.5"/>
<text text-anchor="start" x="721.5" y="-18.5" font-family="Helvetica,sans-Serif" font-size="10.00">/Users/ladeira/Documents</text>
<text text-anchor="middle" x="786.5" y="-7.5" font-family="Helvetica,sans-Serif" font-size="10.00">/src/onion/SelectOperator.hpp</text>
</a>
</g>
</g>
<!-- Node1&#45;&gt;Node6 -->
<g id="edge5" class="edge">
<title>Node1&#45;&gt;Node6</title>
<path fill="none" stroke="midnightblue" d="M507.7,-66.7C569.71,-55.53 653.99,-40.36 713.61,-29.63"/>
<polygon fill="midnightblue" stroke="midnightblue" points="507.1,-63.25 497.88,-68.47 508.34,-70.14 507.1,-63.25"/>
</g>
</g>
</svg>
