<?xml version="1.0" encoding="UTF-8" standalone="no"?>
<!DOCTYPE svg PUBLIC "-//W3C//DTD SVG 1.1//EN"
 "http://www.w3.org/Graphics/SVG/1.1/DTD/svg11.dtd">
<!-- Generated by graphviz version 2.43.0 (0)
 -->
<!-- Title: /home/ladeira/Documents/src/onion/ComponentID.hpp Pages: 1 -->
<svg width="163pt" height="95pt"
 viewBox="0.00 0.00 163.00 95.00" xmlns="http://www.w3.org/2000/svg" xmlns:xlink="http://www.w3.org/1999/xlink">
<g id="graph0" class="graph" transform="scale(1 1) rotate(0) translate(4 91)">
<title>/home/ladeira/Documents/src/onion/ComponentID.hpp</title>
<polygon fill="white" stroke="transparent" points="-4,4 -4,-91 159,-91 159,4 -4,4"/>
<!-- Node1 -->
<g id="node1" class="node">
<title>Node1</title>
<g id="a_node1"><a xlink:title="This header contains the classes used to identify a component of the Onion Framework.">
<polygon fill="#bfbfbf" stroke="black" points="0,-56.5 0,-86.5 155,-86.5 155,-56.5 0,-56.5"/>
<text text-anchor="start" x="8" y="-74.5" font-family="Helvetica,sans-Serif" font-size="10.00">/home/ladeira/Documents</text>
<text text-anchor="middle" x="77.5" y="-63.5" font-family="Helvetica,sans-Serif" font-size="10.00">/src/onion/ComponentID.hpp</text>
</a>
</g>
</g>
<!-- Node2 -->
<g id="node2" class="node">
<title>Node2</title>
<g id="a_node2"><a xlink:title=" ">
<polygon fill="white" stroke="#bfbfbf" points="21.5,-0.5 21.5,-19.5 65.5,-19.5 65.5,-0.5 21.5,-0.5"/>
<text text-anchor="middle" x="43.5" y="-7.5" font-family="Helvetica,sans-Serif" font-size="10.00">string</text>
</a>
</g>
</g>
<!-- Node1&#45;&gt;Node2 -->
<g id="edge1" class="edge">
<title>Node1&#45;&gt;Node2</title>
<path fill="none" stroke="midnightblue" d="M69.44,-56.4C64.65,-48.02 58.54,-37.33 53.46,-28.42"/>
<polygon fill="midnightblue" stroke="midnightblue" points="56.45,-26.6 48.45,-19.66 50.37,-30.08 56.45,-26.6"/>
</g>
<!-- Node3 -->
<g id="node3" class="node">
<title>Node3</title>
<g id="a_node3"><a xlink:title=" ">
<polygon fill="white" stroke="#bfbfbf" points="84,-0.5 84,-19.5 141,-19.5 141,-0.5 84,-0.5"/>
<text text-anchor="middle" x="112.5" y="-7.5" font-family="Helvetica,sans-Serif" font-size="10.00">ostream</text>
</a>
</g>
</g>
<!-- Node1&#45;&gt;Node3 -->
<g id="edge2" class="edge">
<title>Node1&#45;&gt;Node3</title>
<path fill="none" stroke="midnightblue" d="M85.79,-56.4C90.72,-48.02 97.01,-37.33 102.25,-28.42"/>
<polygon fill="midnightblue" stroke="midnightblue" points="105.35,-30.05 107.41,-19.66 99.32,-26.5 105.35,-30.05"/>
</g>
</g>
</svg>
