<?xml version="1.0" encoding="UTF-8" standalone="no"?>
<!DOCTYPE svg PUBLIC "-//W3C//DTD SVG 1.1//EN"
 "http://www.w3.org/Graphics/SVG/1.1/DTD/svg11.dtd">
<!-- Generated by graphviz version 7.1.0 (20230121.1956)
 -->
<!-- Title: ComponentID.hpp Pages: 1 -->
<svg width="639pt" height="84pt"
 viewBox="0.00 0.00 638.50 84.00" xmlns="http://www.w3.org/2000/svg" xmlns:xlink="http://www.w3.org/1999/xlink">
<g id="graph0" class="graph" transform="scale(1 1) rotate(0) translate(4 80)">
<title>ComponentID.hpp</title>
<polygon fill="white" stroke="none" points="-4,4 -4,-80 634.5,-80 634.5,4 -4,4"/>
<!-- Node1 -->
<g id="node1" class="node">
<title>Node1</title>
<g id="a_node1"><a xlink:title="This header contains the classes used to identify a component of the Onion Framework.">
<polygon fill="#bfbfbf" stroke="black" points="262.5,-56.5 262.5,-75.5 358.5,-75.5 358.5,-56.5 262.5,-56.5"/>
<text text-anchor="middle" x="310.5" y="-63.5" font-family="Helvetica,sans-Serif" font-size="10.00">ComponentID.hpp</text>
</a>
</g>
</g>
<!-- Node2 -->
<g id="node2" class="node">
<title>Node2</title>
<g id="a_node2"><a xlink:href="_create_operator_8hpp.html" target="_top" xlink:title="This header contains the definition of the CreateOperator component.">
<polygon fill="white" stroke="black" points="0,-0.5 0,-19.5 101,-19.5 101,-0.5 0,-0.5"/>
<text text-anchor="middle" x="50.5" y="-7.5" font-family="Helvetica,sans-Serif" font-size="10.00">CreateOperator.hpp</text>
</a>
</g>
</g>
<!-- Node1&#45;&gt;Node2 -->
<g id="edge1" class="edge">
<title>Node1&#45;&gt;Node2</title>
<path fill="none" stroke="midnightblue" d="M258.54,-54.21C209.29,-43.98 136.32,-28.82 91.17,-19.45"/>
<polygon fill="midnightblue" stroke="midnightblue" points="257.6,-57.59 268.11,-56.2 259.03,-50.73 257.6,-57.59"/>
</g>
<!-- Node3 -->
<g id="node3" class="node">
<title>Node3</title>
<g id="a_node3"><a xlink:href="_objective_function_8hpp.html" target="_top" xlink:title="This header introduces the ObjectiveFunction class interface.">
<polygon fill="white" stroke="black" points="119.5,-0.5 119.5,-19.5 233.5,-19.5 233.5,-0.5 119.5,-0.5"/>
<text text-anchor="middle" x="176.5" y="-7.5" font-family="Helvetica,sans-Serif" font-size="10.00">ObjectiveFunction.hpp</text>
</a>
</g>
</g>
<!-- Node1&#45;&gt;Node3 -->
<g id="edge2" class="edge">
<title>Node1&#45;&gt;Node3</title>
<path fill="none" stroke="midnightblue" d="M279.06,-52.33C253.84,-42.17 219.16,-28.19 197.29,-19.38"/>
<polygon fill="midnightblue" stroke="midnightblue" points="277.58,-55.51 288.16,-56 280.19,-49.01 277.58,-55.51"/>
</g>
<!-- Node4 -->
<g id="node4" class="node">
<title>Node4</title>
<g id="a_node4"><a xlink:href="_parameter_operator_8hpp.html" target="_top" xlink:title="This header has the definition of the CreateOperator component.">
<polygon fill="white" stroke="black" points="252,-0.5 252,-19.5 369,-19.5 369,-0.5 252,-0.5"/>
<text text-anchor="middle" x="310.5" y="-7.5" font-family="Helvetica,sans-Serif" font-size="10.00">ParameterOperator.hpp</text>
</a>
</g>
</g>
<!-- Node1&#45;&gt;Node4 -->
<g id="edge3" class="edge">
<title>Node1&#45;&gt;Node4</title>
<path fill="none" stroke="midnightblue" d="M310.5,-45.1C310.5,-36.14 310.5,-26.06 310.5,-19.2"/>
<polygon fill="midnightblue" stroke="midnightblue" points="307,-45.05 310.5,-55.05 314,-45.05 307,-45.05"/>
</g>
<!-- Node5 -->
<g id="node5" class="node">
<title>Node5</title>
<g id="a_node5"><a xlink:href="_perturbation_operator_8hpp.html" target="_top" xlink:title="This header has the definition the PerturbationOperator Abstract Data type.">
<polygon fill="white" stroke="black" points="387,-0.5 387,-19.5 512,-19.5 512,-0.5 387,-0.5"/>
<text text-anchor="middle" x="449.5" y="-7.5" font-family="Helvetica,sans-Serif" font-size="10.00">PerturbationOperator.hpp</text>
</a>
</g>
</g>
<!-- Node1&#45;&gt;Node5 -->
<g id="edge4" class="edge">
<title>Node1&#45;&gt;Node5</title>
<path fill="none" stroke="midnightblue" d="M342.76,-52.47C368.95,-42.29 405.14,-28.23 427.93,-19.38"/>
<polygon fill="midnightblue" stroke="midnightblue" points="341.68,-49.13 333.63,-56.01 344.22,-55.66 341.68,-49.13"/>
</g>
<!-- Node6 -->
<g id="node6" class="node">
<title>Node6</title>
<g id="a_node6"><a xlink:href="_select_operator_8hpp.html" target="_top" xlink:title="This header introduces the SelectOperator class interface.">
<polygon fill="white" stroke="black" points="530.5,-0.5 530.5,-19.5 630.5,-19.5 630.5,-0.5 530.5,-0.5"/>
<text text-anchor="middle" x="580.5" y="-7.5" font-family="Helvetica,sans-Serif" font-size="10.00">SelectOperator.hpp</text>
</a>
</g>
</g>
<!-- Node1&#45;&gt;Node6 -->
<g id="edge5" class="edge">
<title>Node1&#45;&gt;Node6</title>
<path fill="none" stroke="midnightblue" d="M364.14,-54.27C415.29,-44.04 491.28,-28.84 538.26,-19.45"/>
<polygon fill="midnightblue" stroke="midnightblue" points="363.59,-50.81 354.47,-56.21 364.96,-57.68 363.59,-50.81"/>
</g>
</g>
</svg>
