<?xml version="1.0" encoding="UTF-8" standalone="no"?>
<!DOCTYPE svg PUBLIC "-//W3C//DTD SVG 1.1//EN"
 "http://www.w3.org/Graphics/SVG/1.1/DTD/svg11.dtd">
<!-- Generated by graphviz version 2.43.0 (0)
 -->
<!-- Title: /home/ladeira/Documents/src/onion/ComponentID.hpp Pages: 1 -->
<svg width="948pt" height="106pt"
 viewBox="0.00 0.00 948.00 106.00" xmlns="http://www.w3.org/2000/svg" xmlns:xlink="http://www.w3.org/1999/xlink">
<g id="graph0" class="graph" transform="scale(1 1) rotate(0) translate(4 102)">
<title>/home/ladeira/Documents/src/onion/ComponentID.hpp</title>
<polygon fill="white" stroke="transparent" points="-4,4 -4,-102 944,-102 944,4 -4,4"/>
<!-- Node1 -->
<g id="node1" class="node">
<title>Node1</title>
<g id="a_node1"><a xlink:title="This header contains the classes used to identify a component of the Onion Framework.">
<polygon fill="#bfbfbf" stroke="black" points="386.5,-67.5 386.5,-97.5 541.5,-97.5 541.5,-67.5 386.5,-67.5"/>
<text text-anchor="start" x="394.5" y="-85.5" font-family="Helvetica,sans-Serif" font-size="10.00">/home/ladeira/Documents</text>
<text text-anchor="middle" x="464" y="-74.5" font-family="Helvetica,sans-Serif" font-size="10.00">/src/onion/ComponentID.hpp</text>
</a>
</g>
</g>
<!-- Node2 -->
<g id="node2" class="node">
<title>Node2</title>
<g id="a_node2"><a xlink:href="_create_operator_8hpp.html" target="_top" xlink:title="This header contains the definition of the CreateOperator component.">
<polygon fill="white" stroke="black" points="0,-0.5 0,-30.5 162,-30.5 162,-0.5 0,-0.5"/>
<text text-anchor="start" x="8" y="-18.5" font-family="Helvetica,sans-Serif" font-size="10.00">/home/ladeira/Documents</text>
<text text-anchor="middle" x="81" y="-7.5" font-family="Helvetica,sans-Serif" font-size="10.00">/src/onion/CreateOperator.hpp</text>
</a>
</g>
</g>
<!-- Node1&#45;&gt;Node2 -->
<g id="edge1" class="edge">
<title>Node1&#45;&gt;Node2</title>
<path fill="none" stroke="midnightblue" d="M376.35,-66.62C311.87,-55.68 224.88,-40.92 162.02,-30.25"/>
<polygon fill="midnightblue" stroke="midnightblue" points="376.05,-70.12 386.49,-68.35 377.22,-63.22 376.05,-70.12"/>
</g>
<!-- Node3 -->
<g id="node3" class="node">
<title>Node3</title>
<g id="a_node3"><a xlink:href="_objective_function_8hpp.html" target="_top" xlink:title="This header introduces the ObjectiveFunction class interface.">
<polygon fill="white" stroke="black" points="180,-0.5 180,-30.5 356,-30.5 356,-0.5 180,-0.5"/>
<text text-anchor="start" x="188" y="-18.5" font-family="Helvetica,sans-Serif" font-size="10.00">/home/ladeira/Documents</text>
<text text-anchor="middle" x="268" y="-7.5" font-family="Helvetica,sans-Serif" font-size="10.00">/src/onion/ObjectiveFunction.hpp</text>
</a>
</g>
</g>
<!-- Node1&#45;&gt;Node3 -->
<g id="edge2" class="edge">
<title>Node1&#45;&gt;Node3</title>
<path fill="none" stroke="midnightblue" d="M411.92,-64.23C380.21,-53.71 340.22,-40.45 310.45,-30.58"/>
<polygon fill="midnightblue" stroke="midnightblue" points="410.88,-67.57 421.47,-67.4 413.08,-60.93 410.88,-67.57"/>
</g>
<!-- Node4 -->
<g id="node4" class="node">
<title>Node4</title>
<g id="a_node4"><a xlink:href="_parameter_operator_8hpp.html" target="_top" xlink:title="This header has the definition of the CreateOperator component.">
<polygon fill="white" stroke="black" points="374,-0.5 374,-30.5 554,-30.5 554,-0.5 374,-0.5"/>
<text text-anchor="start" x="382" y="-18.5" font-family="Helvetica,sans-Serif" font-size="10.00">/home/ladeira/Documents</text>
<text text-anchor="middle" x="464" y="-7.5" font-family="Helvetica,sans-Serif" font-size="10.00">/src/onion/ParameterOperator.hpp</text>
</a>
</g>
</g>
<!-- Node1&#45;&gt;Node4 -->
<g id="edge3" class="edge">
<title>Node1&#45;&gt;Node4</title>
<path fill="none" stroke="midnightblue" d="M464,-57.11C464,-48.15 464,-38.32 464,-30.58"/>
<polygon fill="midnightblue" stroke="midnightblue" points="460.5,-57.4 464,-67.4 467.5,-57.4 460.5,-57.4"/>
</g>
<!-- Node5 -->
<g id="node5" class="node">
<title>Node5</title>
<g id="a_node5"><a xlink:href="_perturbation_operator_8hpp.html" target="_top" xlink:title="This header has the definition the PerturbationOperator Abstract Data type.">
<polygon fill="white" stroke="black" points="572,-0.5 572,-30.5 762,-30.5 762,-0.5 572,-0.5"/>
<text text-anchor="start" x="580" y="-18.5" font-family="Helvetica,sans-Serif" font-size="10.00">/home/ladeira/Documents</text>
<text text-anchor="middle" x="667" y="-7.5" font-family="Helvetica,sans-Serif" font-size="10.00">/src/onion/PerturbationOperator.hpp</text>
</a>
</g>
</g>
<!-- Node1&#45;&gt;Node5 -->
<g id="edge4" class="edge">
<title>Node1&#45;&gt;Node5</title>
<path fill="none" stroke="midnightblue" d="M517.94,-64.23C550.78,-53.71 592.2,-40.45 623.04,-30.58"/>
<polygon fill="midnightblue" stroke="midnightblue" points="516.5,-61.01 508.05,-67.4 518.64,-67.68 516.5,-61.01"/>
</g>
<!-- Node6 -->
<g id="node6" class="node">
<title>Node6</title>
<g id="a_node6"><a xlink:href="_select_operator_8hpp.html" target="_top" xlink:title="This header introduces the SelectOperator class interface.">
<polygon fill="white" stroke="black" points="780,-0.5 780,-30.5 940,-30.5 940,-0.5 780,-0.5"/>
<text text-anchor="start" x="788" y="-18.5" font-family="Helvetica,sans-Serif" font-size="10.00">/home/ladeira/Documents</text>
<text text-anchor="middle" x="860" y="-7.5" font-family="Helvetica,sans-Serif" font-size="10.00">/src/onion/SelectOperator.hpp</text>
</a>
</g>
</g>
<!-- Node1&#45;&gt;Node6 -->
<g id="edge5" class="edge">
<title>Node1&#45;&gt;Node6</title>
<path fill="none" stroke="midnightblue" d="M552.04,-67.05C620.14,-55.87 713.64,-40.52 779.7,-29.68"/>
<polygon fill="midnightblue" stroke="midnightblue" points="551.07,-63.66 541.76,-68.74 552.2,-70.57 551.07,-63.66"/>
</g>
</g>
</svg>
