<?xml version="1.0" encoding="UTF-8" standalone="no"?>
<!DOCTYPE svg PUBLIC "-//W3C//DTD SVG 1.1//EN"
 "http://www.w3.org/Graphics/SVG/1.1/DTD/svg11.dtd">
<!-- Generated by graphviz version 7.1.0 (20230121.1956)
 -->
<!-- Title: /Users/ladeira/Documents/src/onion/NonCopyable.hpp Pages: 1 -->
<svg width="1018pt" height="173pt"
 viewBox="0.00 0.00 1017.50 173.00" xmlns="http://www.w3.org/2000/svg" xmlns:xlink="http://www.w3.org/1999/xlink">
<g id="graph0" class="graph" transform="scale(1 1) rotate(0) translate(4 169)">
<title>/Users/ladeira/Documents/src/onion/NonCopyable.hpp</title>
<polygon fill="white" stroke="none" points="-4,4 -4,-169 1013.5,-169 1013.5,4 -4,4"/>
<!-- Node1 -->
<g id="node1" class="node">
<title>Node1</title>
<g id="a_node1"><a xlink:title="Contains the declaration of the NonCopyable class.">
<polygon fill="#bfbfbf" stroke="black" points="447.5,-134.5 447.5,-164.5 587.5,-164.5 587.5,-134.5 447.5,-134.5"/>
<text text-anchor="start" x="455.5" y="-152.5" font-family="Helvetica,sans-Serif" font-size="10.00">/Users/ladeira/Documents</text>
<text text-anchor="middle" x="517.5" y="-141.5" font-family="Helvetica,sans-Serif" font-size="10.00">/src/onion/NonCopyable.hpp</text>
</a>
</g>
</g>
<!-- Node2 -->
<g id="node2" class="node">
<title>Node2</title>
<g id="a_node2"><a xlink:href="_create_operator_8hpp.html" target="_top" xlink:title="This header contains the definition of the CreateOperator component.">
<polygon fill="white" stroke="black" points="0,-67.5 0,-97.5 147,-97.5 147,-67.5 0,-67.5"/>
<text text-anchor="start" x="8" y="-85.5" font-family="Helvetica,sans-Serif" font-size="10.00">/Users/ladeira/Documents</text>
<text text-anchor="middle" x="73.5" y="-74.5" font-family="Helvetica,sans-Serif" font-size="10.00">/src/onion/CreateOperator.hpp</text>
</a>
</g>
</g>
<!-- Node1&#45;&gt;Node2 -->
<g id="edge1" class="edge">
<title>Node1&#45;&gt;Node2</title>
<path fill="none" stroke="midnightblue" d="M436.54,-137.97C363.3,-128.26 252.53,-113.1 156.5,-98 153.32,-97.5 150.08,-96.98 146.8,-96.44"/>
<polygon fill="midnightblue" stroke="midnightblue" points="435.64,-141.39 446.02,-139.23 436.56,-134.45 435.64,-141.39"/>
</g>
<!-- Node3 -->
<g id="node3" class="node">
<title>Node3</title>
<g id="a_node3"><a xlink:href="_objective_function_8hpp.html" target="_top" xlink:title="This header introduces the ObjectiveFunction class interface.">
<polygon fill="white" stroke="black" points="165.5,-67.5 165.5,-97.5 325.5,-97.5 325.5,-67.5 165.5,-67.5"/>
<text text-anchor="start" x="173.5" y="-85.5" font-family="Helvetica,sans-Serif" font-size="10.00">/Users/ladeira/Documents</text>
<text text-anchor="middle" x="245.5" y="-74.5" font-family="Helvetica,sans-Serif" font-size="10.00">/src/onion/ObjectiveFunction.hpp</text>
</a>
</g>
</g>
<!-- Node1&#45;&gt;Node3 -->
<g id="edge2" class="edge">
<title>Node1&#45;&gt;Node3</title>
<path fill="none" stroke="midnightblue" d="M448.09,-131.91C403.42,-121.24 346.04,-107.53 303.75,-97.42"/>
<polygon fill="midnightblue" stroke="midnightblue" points="447.14,-135.28 457.68,-134.2 448.76,-128.48 447.14,-135.28"/>
</g>
<!-- Node4 -->
<g id="node4" class="node">
<title>Node4</title>
<g id="a_node4"><a xlink:href="_parameter_operator_8hpp.html" target="_top" xlink:title="This header has the definition of the CreateOperator component.">
<polygon fill="white" stroke="black" points="344,-67.5 344,-97.5 507,-97.5 507,-67.5 344,-67.5"/>
<text text-anchor="start" x="352" y="-85.5" font-family="Helvetica,sans-Serif" font-size="10.00">/Users/ladeira/Documents</text>
<text text-anchor="middle" x="425.5" y="-74.5" font-family="Helvetica,sans-Serif" font-size="10.00">/src/onion/ParameterOperator.hpp</text>
</a>
</g>
</g>
<!-- Node1&#45;&gt;Node4 -->
<g id="edge3" class="edge">
<title>Node1&#45;&gt;Node4</title>
<path fill="none" stroke="midnightblue" d="M488.7,-128.15C474.59,-118.19 457.96,-106.43 445.3,-97.49"/>
<polygon fill="midnightblue" stroke="midnightblue" points="486.57,-130.93 496.75,-133.84 490.61,-125.21 486.57,-130.93"/>
</g>
<!-- Node5 -->
<g id="node5" class="node">
<title>Node5</title>
<g id="a_node5"><a xlink:href="_perturbation_operator_8hpp.html" target="_top" xlink:title="This header has the definition the PerturbationOperator Abstract Data type.">
<polygon fill="white" stroke="black" points="525.5,-67.5 525.5,-97.5 695.5,-97.5 695.5,-67.5 525.5,-67.5"/>
<text text-anchor="start" x="533.5" y="-85.5" font-family="Helvetica,sans-Serif" font-size="10.00">/Users/ladeira/Documents</text>
<text text-anchor="middle" x="610.5" y="-74.5" font-family="Helvetica,sans-Serif" font-size="10.00">/src/onion/PerturbationOperator.hpp</text>
</a>
</g>
</g>
<!-- Node1&#45;&gt;Node5 -->
<g id="edge4" class="edge">
<title>Node1&#45;&gt;Node5</title>
<path fill="none" stroke="midnightblue" d="M546.61,-128.15C560.87,-118.19 577.69,-106.43 590.48,-97.49"/>
<polygon fill="midnightblue" stroke="midnightblue" points="544.65,-125.25 538.46,-133.85 548.67,-130.99 544.65,-125.25"/>
</g>
<!-- Node6 -->
<g id="node6" class="node">
<title>Node6</title>
<g id="a_node6"><a xlink:href="_random_8hpp.html" target="_top" xlink:title="This header introduces the random number generation (RNG) facilities of the Onion Framework.">
<polygon fill="white" stroke="black" points="714,-67.5 714,-97.5 845,-97.5 845,-67.5 714,-67.5"/>
<text text-anchor="start" x="722" y="-85.5" font-family="Helvetica,sans-Serif" font-size="10.00">/Users/ladeira/Documents</text>
<text text-anchor="middle" x="779.5" y="-74.5" font-family="Helvetica,sans-Serif" font-size="10.00">/src/onion/Random.hpp</text>
</a>
</g>
</g>
<!-- Node1&#45;&gt;Node6 -->
<g id="edge5" class="edge">
<title>Node1&#45;&gt;Node6</title>
<path fill="none" stroke="midnightblue" d="M584.64,-131.84C627.62,-121.18 682.74,-107.5 723.39,-97.42"/>
<polygon fill="midnightblue" stroke="midnightblue" points="584.04,-128.39 575.17,-134.19 585.72,-135.18 584.04,-128.39"/>
</g>
<!-- Node8 -->
<g id="node8" class="node">
<title>Node8</title>
<g id="a_node8"><a xlink:href="_select_operator_8hpp.html" target="_top" xlink:title="This header introduces the SelectOperator class interface.">
<polygon fill="white" stroke="black" points="863.5,-67.5 863.5,-97.5 1009.5,-97.5 1009.5,-67.5 863.5,-67.5"/>
<text text-anchor="start" x="871.5" y="-85.5" font-family="Helvetica,sans-Serif" font-size="10.00">/Users/ladeira/Documents</text>
<text text-anchor="middle" x="936.5" y="-74.5" font-family="Helvetica,sans-Serif" font-size="10.00">/src/onion/SelectOperator.hpp</text>
</a>
</g>
</g>
<!-- Node1&#45;&gt;Node8 -->
<g id="edge7" class="edge">
<title>Node1&#45;&gt;Node8</title>
<path fill="none" stroke="midnightblue" d="M598.39,-136.99C666.72,-127.12 767.11,-112.27 854.5,-98 857.5,-97.51 860.55,-97 863.64,-96.49"/>
<polygon fill="midnightblue" stroke="midnightblue" points="598.19,-133.48 588.79,-138.37 599.18,-140.41 598.19,-133.48"/>
</g>
<!-- Node7 -->
<g id="node7" class="node">
<title>Node7</title>
<g id="a_node7"><a xlink:href="_random_8cpp.html" target="_top" xlink:title="Implementation of the global RandomEngine object.">
<polygon fill="white" stroke="black" points="714,-0.5 714,-30.5 845,-30.5 845,-0.5 714,-0.5"/>
<text text-anchor="start" x="722" y="-18.5" font-family="Helvetica,sans-Serif" font-size="10.00">/Users/ladeira/Documents</text>
<text text-anchor="middle" x="779.5" y="-7.5" font-family="Helvetica,sans-Serif" font-size="10.00">/src/onion/Random.cpp</text>
</a>
</g>
</g>
<!-- Node6&#45;&gt;Node7 -->
<g id="edge6" class="edge">
<title>Node6&#45;&gt;Node7</title>
<path fill="none" stroke="midnightblue" d="M779.5,-56.36C779.5,-47.49 779.5,-37.84 779.5,-30.26"/>
<polygon fill="midnightblue" stroke="midnightblue" points="776,-56.2 779.5,-66.2 783,-56.2 776,-56.2"/>
</g>
</g>
</svg>
