<?xml version="1.0" encoding="UTF-8" standalone="no"?>
<!DOCTYPE svg PUBLIC "-//W3C//DTD SVG 1.1//EN"
 "http://www.w3.org/Graphics/SVG/1.1/DTD/svg11.dtd">
<!-- Generated by graphviz version 7.1.0 (20230121.1956)
 -->
<!-- Title: NonCopyable.hpp Pages: 1 -->
<svg width="729pt" height="140pt"
 viewBox="0.00 0.00 728.50 140.00" xmlns="http://www.w3.org/2000/svg" xmlns:xlink="http://www.w3.org/1999/xlink">
<g id="graph0" class="graph" transform="scale(1 1) rotate(0) translate(4 136)">
<title>NonCopyable.hpp</title>
<polygon fill="white" stroke="none" points="-4,4 -4,-136 724.5,-136 724.5,4 -4,4"/>
<!-- Node1 -->
<g id="node1" class="node">
<title>Node1</title>
<g id="a_node1"><a xlink:title="Contains the declaration of the NonCopyable class.">
<polygon fill="#bfbfbf" stroke="black" points="332,-112.5 332,-131.5 427,-131.5 427,-112.5 332,-112.5"/>
<text text-anchor="middle" x="379.5" y="-119.5" font-family="Helvetica,sans-Serif" font-size="10.00">NonCopyable.hpp</text>
</a>
</g>
</g>
<!-- Node2 -->
<g id="node2" class="node">
<title>Node2</title>
<g id="a_node2"><a xlink:href="_create_operator_8hpp.html" target="_top" xlink:title="This header contains the definition of the CreateOperator component.">
<polygon fill="white" stroke="black" points="0,-56.5 0,-75.5 101,-75.5 101,-56.5 0,-56.5"/>
<text text-anchor="middle" x="50.5" y="-63.5" font-family="Helvetica,sans-Serif" font-size="10.00">CreateOperator.hpp</text>
</a>
</g>
</g>
<!-- Node1&#45;&gt;Node2 -->
<g id="edge1" class="edge">
<title>Node1&#45;&gt;Node2</title>
<path fill="none" stroke="midnightblue" d="M320.76,-111.36C258.18,-101.09 160.15,-85 100.94,-75.28"/>
<polygon fill="midnightblue" stroke="midnightblue" points="320.08,-114.79 330.52,-112.96 321.22,-107.89 320.08,-114.79"/>
</g>
<!-- Node3 -->
<g id="node3" class="node">
<title>Node3</title>
<g id="a_node3"><a xlink:href="_objective_function_8hpp.html" target="_top" xlink:title="This header introduces the ObjectiveFunction class interface.">
<polygon fill="white" stroke="black" points="119.5,-56.5 119.5,-75.5 233.5,-75.5 233.5,-56.5 119.5,-56.5"/>
<text text-anchor="middle" x="176.5" y="-63.5" font-family="Helvetica,sans-Serif" font-size="10.00">ObjectiveFunction.hpp</text>
</a>
</g>
</g>
<!-- Node1&#45;&gt;Node3 -->
<g id="edge2" class="edge">
<title>Node1&#45;&gt;Node3</title>
<path fill="none" stroke="midnightblue" d="M336.96,-109.68C298.58,-99.47 242.98,-84.69 208.33,-75.47"/>
<polygon fill="midnightblue" stroke="midnightblue" points="335.75,-112.99 346.32,-112.17 337.55,-106.22 335.75,-112.99"/>
</g>
<!-- Node4 -->
<g id="node4" class="node">
<title>Node4</title>
<g id="a_node4"><a xlink:href="_parameter_operator_8hpp.html" target="_top" xlink:title="This header has the definition of the CreateOperator component.">
<polygon fill="white" stroke="black" points="252,-56.5 252,-75.5 369,-75.5 369,-56.5 252,-56.5"/>
<text text-anchor="middle" x="310.5" y="-63.5" font-family="Helvetica,sans-Serif" font-size="10.00">ParameterOperator.hpp</text>
</a>
</g>
</g>
<!-- Node1&#45;&gt;Node4 -->
<g id="edge3" class="edge">
<title>Node1&#45;&gt;Node4</title>
<path fill="none" stroke="midnightblue" d="M359.84,-105.61C347.19,-95.72 331.26,-83.25 320.98,-75.2"/>
<polygon fill="midnightblue" stroke="midnightblue" points="357.49,-108.22 367.53,-111.63 361.81,-102.71 357.49,-108.22"/>
</g>
<!-- Node5 -->
<g id="node5" class="node">
<title>Node5</title>
<g id="a_node5"><a xlink:href="_perturbation_operator_8hpp.html" target="_top" xlink:title="This header has the definition the PerturbationOperator Abstract Data type.">
<polygon fill="white" stroke="black" points="387,-56.5 387,-75.5 512,-75.5 512,-56.5 387,-56.5"/>
<text text-anchor="middle" x="449.5" y="-63.5" font-family="Helvetica,sans-Serif" font-size="10.00">PerturbationOperator.hpp</text>
</a>
</g>
</g>
<!-- Node1&#45;&gt;Node5 -->
<g id="edge4" class="edge">
<title>Node1&#45;&gt;Node5</title>
<path fill="none" stroke="midnightblue" d="M399.45,-105.61C412.28,-95.72 428.44,-83.25 438.87,-75.2"/>
<polygon fill="midnightblue" stroke="midnightblue" points="397.42,-102.76 391.64,-111.64 401.69,-108.3 397.42,-102.76"/>
</g>
<!-- Node6 -->
<g id="node6" class="node">
<title>Node6</title>
<g id="a_node6"><a xlink:href="_random_8hpp.html" target="_top" xlink:title="This header introduces the random number generation (RNG) facilities of the Onion Framework.">
<polygon fill="white" stroke="black" points="530.5,-56.5 530.5,-75.5 602.5,-75.5 602.5,-56.5 530.5,-56.5"/>
<text text-anchor="middle" x="566.5" y="-63.5" font-family="Helvetica,sans-Serif" font-size="10.00">Random.hpp</text>
</a>
</g>
</g>
<!-- Node1&#45;&gt;Node6 -->
<g id="edge5" class="edge">
<title>Node1&#45;&gt;Node6</title>
<path fill="none" stroke="midnightblue" d="M419.6,-109.42C454.92,-99.22 505.53,-84.61 537.18,-75.47"/>
<polygon fill="midnightblue" stroke="midnightblue" points="418.81,-106.01 410.17,-112.14 420.75,-112.73 418.81,-106.01"/>
</g>
<!-- Node8 -->
<g id="node8" class="node">
<title>Node8</title>
<g id="a_node8"><a xlink:href="_select_operator_8hpp.html" target="_top" xlink:title="This header introduces the SelectOperator class interface.">
<polygon fill="white" stroke="black" points="620.5,-56.5 620.5,-75.5 720.5,-75.5 720.5,-56.5 620.5,-56.5"/>
<text text-anchor="middle" x="670.5" y="-63.5" font-family="Helvetica,sans-Serif" font-size="10.00">SelectOperator.hpp</text>
</a>
</g>
</g>
<!-- Node1&#45;&gt;Node8 -->
<g id="edge7" class="edge">
<title>Node1&#45;&gt;Node8</title>
<path fill="none" stroke="midnightblue" d="M436.27,-110.46C491.4,-100.23 574.03,-84.9 624.98,-75.45"/>
<polygon fill="midnightblue" stroke="midnightblue" points="435.97,-106.96 426.78,-112.23 437.25,-113.84 435.97,-106.96"/>
</g>
<!-- Node7 -->
<g id="node7" class="node">
<title>Node7</title>
<g id="a_node7"><a xlink:href="_random_8cpp.html" target="_top" xlink:title="Implementation of the global RandomEngine object.">
<polygon fill="white" stroke="black" points="530.5,-0.5 530.5,-19.5 602.5,-19.5 602.5,-0.5 530.5,-0.5"/>
<text text-anchor="middle" x="566.5" y="-7.5" font-family="Helvetica,sans-Serif" font-size="10.00">Random.cpp</text>
</a>
</g>
</g>
<!-- Node6&#45;&gt;Node7 -->
<g id="edge6" class="edge">
<title>Node6&#45;&gt;Node7</title>
<path fill="none" stroke="midnightblue" d="M566.5,-45.1C566.5,-36.14 566.5,-26.06 566.5,-19.2"/>
<polygon fill="midnightblue" stroke="midnightblue" points="563,-45.05 566.5,-55.05 570,-45.05 563,-45.05"/>
</g>
</g>
</svg>
