<?xml version="1.0" encoding="UTF-8" standalone="no"?>
<!DOCTYPE svg PUBLIC "-//W3C//DTD SVG 1.1//EN"
 "http://www.w3.org/Graphics/SVG/1.1/DTD/svg11.dtd">
<!-- Generated by graphviz version 2.43.0 (0)
 -->
<!-- Title: /home/ladeira/Documents/src/onion/NonCopyable.hpp Pages: 1 -->
<svg width="1110pt" height="173pt"
 viewBox="0.00 0.00 1110.00 173.00" xmlns="http://www.w3.org/2000/svg" xmlns:xlink="http://www.w3.org/1999/xlink">
<g id="graph0" class="graph" transform="scale(1 1) rotate(0) translate(4 169)">
<title>/home/ladeira/Documents/src/onion/NonCopyable.hpp</title>
<polygon fill="white" stroke="transparent" points="-4,4 -4,-169 1106,-169 1106,4 -4,4"/>
<!-- Node1 -->
<g id="node1" class="node">
<title>Node1</title>
<g id="a_node1"><a xlink:title="Contains the declaration of the NonCopyable class.">
<polygon fill="#bfbfbf" stroke="black" points="488.5,-134.5 488.5,-164.5 641.5,-164.5 641.5,-134.5 488.5,-134.5"/>
<text text-anchor="start" x="496.5" y="-152.5" font-family="Helvetica,sans-Serif" font-size="10.00">/home/ladeira/Documents</text>
<text text-anchor="middle" x="565" y="-141.5" font-family="Helvetica,sans-Serif" font-size="10.00">/src/onion/NonCopyable.hpp</text>
</a>
</g>
</g>
<!-- Node2 -->
<g id="node2" class="node">
<title>Node2</title>
<g id="a_node2"><a xlink:href="_create_operator_8hpp.html" target="_top" xlink:title="This header contains the definition of the CreateOperator component.">
<polygon fill="white" stroke="black" points="0,-67.5 0,-97.5 162,-97.5 162,-67.5 0,-67.5"/>
<text text-anchor="start" x="8" y="-85.5" font-family="Helvetica,sans-Serif" font-size="10.00">/home/ladeira/Documents</text>
<text text-anchor="middle" x="81" y="-74.5" font-family="Helvetica,sans-Serif" font-size="10.00">/src/onion/CreateOperator.hpp</text>
</a>
</g>
</g>
<!-- Node1&#45;&gt;Node2 -->
<g id="edge1" class="edge">
<title>Node1&#45;&gt;Node2</title>
<path fill="none" stroke="midnightblue" d="M478.25,-138.2C398.34,-128.51 276.54,-113.26 171,-98 168.18,-97.59 165.31,-97.17 162.42,-96.74"/>
<polygon fill="midnightblue" stroke="midnightblue" points="477.92,-141.68 488.26,-139.41 478.76,-134.73 477.92,-141.68"/>
</g>
<!-- Node3 -->
<g id="node3" class="node">
<title>Node3</title>
<g id="a_node3"><a xlink:href="_objective_function_8hpp.html" target="_top" xlink:title="This header introduces the ObjectiveFunction class interface.">
<polygon fill="white" stroke="black" points="180,-67.5 180,-97.5 356,-97.5 356,-67.5 180,-67.5"/>
<text text-anchor="start" x="188" y="-85.5" font-family="Helvetica,sans-Serif" font-size="10.00">/home/ladeira/Documents</text>
<text text-anchor="middle" x="268" y="-74.5" font-family="Helvetica,sans-Serif" font-size="10.00">/src/onion/ObjectiveFunction.hpp</text>
</a>
</g>
</g>
<!-- Node1&#45;&gt;Node3 -->
<g id="edge2" class="edge">
<title>Node1&#45;&gt;Node3</title>
<path fill="none" stroke="midnightblue" d="M491.05,-132.32C442.24,-121.63 378.92,-107.77 332.22,-97.55"/>
<polygon fill="midnightblue" stroke="midnightblue" points="490.4,-135.76 500.92,-134.48 491.9,-128.92 490.4,-135.76"/>
</g>
<!-- Node4 -->
<g id="node4" class="node">
<title>Node4</title>
<g id="a_node4"><a xlink:href="_parameter_operator_8hpp.html" target="_top" xlink:title="This header has the definition of the CreateOperator component.">
<polygon fill="white" stroke="black" points="374,-67.5 374,-97.5 554,-97.5 554,-67.5 374,-67.5"/>
<text text-anchor="start" x="382" y="-85.5" font-family="Helvetica,sans-Serif" font-size="10.00">/home/ladeira/Documents</text>
<text text-anchor="middle" x="464" y="-74.5" font-family="Helvetica,sans-Serif" font-size="10.00">/src/onion/ParameterOperator.hpp</text>
</a>
</g>
</g>
<!-- Node1&#45;&gt;Node4 -->
<g id="edge3" class="edge">
<title>Node1&#45;&gt;Node4</title>
<path fill="none" stroke="midnightblue" d="M534.29,-128.73C518.66,-118.68 500.03,-106.68 485.87,-97.58"/>
<polygon fill="midnightblue" stroke="midnightblue" points="532.78,-131.93 543.08,-134.4 536.57,-126.04 532.78,-131.93"/>
</g>
<!-- Node5 -->
<g id="node5" class="node">
<title>Node5</title>
<g id="a_node5"><a xlink:href="_perturbation_operator_8hpp.html" target="_top" xlink:title="This header has the definition the PerturbationOperator Abstract Data type.">
<polygon fill="white" stroke="black" points="572,-67.5 572,-97.5 762,-97.5 762,-67.5 572,-67.5"/>
<text text-anchor="start" x="580" y="-85.5" font-family="Helvetica,sans-Serif" font-size="10.00">/home/ladeira/Documents</text>
<text text-anchor="middle" x="667" y="-74.5" font-family="Helvetica,sans-Serif" font-size="10.00">/src/onion/PerturbationOperator.hpp</text>
</a>
</g>
</g>
<!-- Node1&#45;&gt;Node5 -->
<g id="edge4" class="edge">
<title>Node1&#45;&gt;Node5</title>
<path fill="none" stroke="midnightblue" d="M595.58,-129.02C611.45,-118.9 630.48,-106.77 644.91,-97.58"/>
<polygon fill="midnightblue" stroke="midnightblue" points="593.68,-126.07 587.13,-134.4 597.45,-131.97 593.68,-126.07"/>
</g>
<!-- Node6 -->
<g id="node6" class="node">
<title>Node6</title>
<g id="a_node6"><a xlink:href="_random_8hpp.html" target="_top" xlink:title="This header introduces the random number generation (RNG) facilities of the Onion Framework.">
<polygon fill="white" stroke="black" points="780.5,-67.5 780.5,-97.5 923.5,-97.5 923.5,-67.5 780.5,-67.5"/>
<text text-anchor="start" x="788.5" y="-85.5" font-family="Helvetica,sans-Serif" font-size="10.00">/home/ladeira/Documents</text>
<text text-anchor="middle" x="852" y="-74.5" font-family="Helvetica,sans-Serif" font-size="10.00">/src/onion/Random.hpp</text>
</a>
</g>
</g>
<!-- Node1&#45;&gt;Node6 -->
<g id="edge5" class="edge">
<title>Node1&#45;&gt;Node6</title>
<path fill="none" stroke="midnightblue" d="M636.74,-132.25C683.78,-121.6 744.68,-107.81 789.69,-97.61"/>
<polygon fill="midnightblue" stroke="midnightblue" points="635.9,-128.85 626.92,-134.48 637.45,-135.68 635.9,-128.85"/>
</g>
<!-- Node8 -->
<g id="node8" class="node">
<title>Node8</title>
<g id="a_node8"><a xlink:href="_select_operator_8hpp.html" target="_top" xlink:title="This header introduces the SelectOperator class interface.">
<polygon fill="white" stroke="black" points="942,-67.5 942,-97.5 1102,-97.5 1102,-67.5 942,-67.5"/>
<text text-anchor="start" x="950" y="-85.5" font-family="Helvetica,sans-Serif" font-size="10.00">/home/ladeira/Documents</text>
<text text-anchor="middle" x="1022" y="-74.5" font-family="Helvetica,sans-Serif" font-size="10.00">/src/onion/SelectOperator.hpp</text>
</a>
</g>
</g>
<!-- Node1&#45;&gt;Node8 -->
<g id="edge7" class="edge">
<title>Node1&#45;&gt;Node8</title>
<path fill="none" stroke="midnightblue" d="M651.84,-137.21C726.47,-127.36 836.92,-112.42 933,-98 935.94,-97.56 938.94,-97.1 941.96,-96.64"/>
<polygon fill="midnightblue" stroke="midnightblue" points="651.01,-133.79 641.55,-138.56 651.92,-140.73 651.01,-133.79"/>
</g>
<!-- Node7 -->
<g id="node7" class="node">
<title>Node7</title>
<g id="a_node7"><a xlink:href="_random_8cpp.html" target="_top" xlink:title="Implementation of the global RandomEngine object.">
<polygon fill="white" stroke="black" points="780.5,-0.5 780.5,-30.5 923.5,-30.5 923.5,-0.5 780.5,-0.5"/>
<text text-anchor="start" x="788.5" y="-18.5" font-family="Helvetica,sans-Serif" font-size="10.00">/home/ladeira/Documents</text>
<text text-anchor="middle" x="852" y="-7.5" font-family="Helvetica,sans-Serif" font-size="10.00">/src/onion/Random.cpp</text>
</a>
</g>
</g>
<!-- Node6&#45;&gt;Node7 -->
<g id="edge6" class="edge">
<title>Node6&#45;&gt;Node7</title>
<path fill="none" stroke="midnightblue" d="M852,-57.11C852,-48.15 852,-38.32 852,-30.58"/>
<polygon fill="midnightblue" stroke="midnightblue" points="848.5,-57.4 852,-67.4 855.5,-57.4 848.5,-57.4"/>
</g>
</g>
</svg>
