<?xml version="1.0" encoding="UTF-8" standalone="no"?>
<!DOCTYPE svg PUBLIC "-//W3C//DTD SVG 1.1//EN"
 "http://www.w3.org/Graphics/SVG/1.1/DTD/svg11.dtd">
<!-- Generated by graphviz version 7.1.0 (20230121.1956)
 -->
<!-- Title: ParameterOperator.hpp Pages: 1 -->
<svg width="228pt" height="140pt"
 viewBox="0.00 0.00 227.50 140.00" xmlns="http://www.w3.org/2000/svg" xmlns:xlink="http://www.w3.org/1999/xlink">
<g id="graph0" class="graph" transform="scale(1 1) rotate(0) translate(4 136)">
<title>ParameterOperator.hpp</title>
<polygon fill="white" stroke="none" points="-4,4 -4,-136 223.5,-136 223.5,4 -4,4"/>
<!-- Node1 -->
<g id="node1" class="node">
<title>Node1</title>
<g id="a_node1"><a xlink:title="This header has the definition of the CreateOperator component.">
<polygon fill="#bfbfbf" stroke="black" points="46,-112.5 46,-131.5 163,-131.5 163,-112.5 46,-112.5"/>
<text text-anchor="middle" x="104.5" y="-119.5" font-family="Helvetica,sans-Serif" font-size="10.00">ParameterOperator.hpp</text>
</a>
</g>
</g>
<!-- Node2 -->
<g id="node2" class="node">
<title>Node2</title>
<g id="a_node2"><a xlink:href="_non_copyable_8hpp.html" target="_top" xlink:title="Contains the declaration of the NonCopyable class.">
<polygon fill="white" stroke="black" points="0,-56.5 0,-75.5 95,-75.5 95,-56.5 0,-56.5"/>
<text text-anchor="middle" x="47.5" y="-63.5" font-family="Helvetica,sans-Serif" font-size="10.00">NonCopyable.hpp</text>
</a>
</g>
</g>
<!-- Node1&#45;&gt;Node2 -->
<g id="edge1" class="edge">
<title>Node1&#45;&gt;Node2</title>
<path fill="none" stroke="midnightblue" d="M95.59,-112.56C87.26,-104.67 74.6,-92.68 64.36,-82.98"/>
<polygon fill="midnightblue" stroke="midnightblue" points="66.92,-80.58 57.26,-76.24 62.11,-85.66 66.92,-80.58"/>
</g>
<!-- Node3 -->
<g id="node3" class="node">
<title>Node3</title>
<g id="a_node3"><a xlink:href="_component_i_d_8hpp.html" target="_top" xlink:title="This header contains the classes used to identify a component of the Onion Framework.">
<polygon fill="white" stroke="black" points="113.5,-56.5 113.5,-75.5 209.5,-75.5 209.5,-56.5 113.5,-56.5"/>
<text text-anchor="middle" x="161.5" y="-63.5" font-family="Helvetica,sans-Serif" font-size="10.00">ComponentID.hpp</text>
</a>
</g>
</g>
<!-- Node1&#45;&gt;Node3 -->
<g id="edge2" class="edge">
<title>Node1&#45;&gt;Node3</title>
<path fill="none" stroke="midnightblue" d="M113.41,-112.56C121.74,-104.67 134.4,-92.68 144.64,-82.98"/>
<polygon fill="midnightblue" stroke="midnightblue" points="146.89,-85.66 151.74,-76.24 142.08,-80.58 146.89,-85.66"/>
</g>
<!-- Node4 -->
<g id="node4" class="node">
<title>Node4</title>
<g id="a_node4"><a xlink:title=" ">
<polygon fill="white" stroke="#bfbfbf" points="108,-0.5 108,-19.5 149,-19.5 149,-0.5 108,-0.5"/>
<text text-anchor="middle" x="128.5" y="-7.5" font-family="Helvetica,sans-Serif" font-size="10.00">string</text>
</a>
</g>
</g>
<!-- Node3&#45;&gt;Node4 -->
<g id="edge3" class="edge">
<title>Node3&#45;&gt;Node4</title>
<path fill="none" stroke="midnightblue" d="M156.34,-56.56C151.81,-49.15 145.07,-38.12 139.36,-28.76"/>
<polygon fill="midnightblue" stroke="midnightblue" points="142.5,-27.2 134.3,-20.49 136.53,-30.85 142.5,-27.2"/>
</g>
<!-- Node5 -->
<g id="node5" class="node">
<title>Node5</title>
<g id="a_node5"><a xlink:title=" ">
<polygon fill="white" stroke="#bfbfbf" points="167.5,-0.5 167.5,-19.5 219.5,-19.5 219.5,-0.5 167.5,-0.5"/>
<text text-anchor="middle" x="193.5" y="-7.5" font-family="Helvetica,sans-Serif" font-size="10.00">ostream</text>
</a>
</g>
</g>
<!-- Node3&#45;&gt;Node5 -->
<g id="edge4" class="edge">
<title>Node3&#45;&gt;Node5</title>
<path fill="none" stroke="midnightblue" d="M166.5,-56.56C170.85,-49.23 177.29,-38.35 182.79,-29.07"/>
<polygon fill="midnightblue" stroke="midnightblue" points="185.78,-30.89 187.87,-20.5 179.76,-27.32 185.78,-30.89"/>
</g>
</g>
</svg>
