<?xml version="1.0" encoding="UTF-8" standalone="no"?>
<!DOCTYPE svg PUBLIC "-//W3C//DTD SVG 1.1//EN"
 "http://www.w3.org/Graphics/SVG/1.1/DTD/svg11.dtd">
<!-- Generated by graphviz version 7.1.0 (20230121.1956)
 -->
<!-- Title: /Users/ladeira/Documents/src/onion/RandomEngine.hpp Pages: 1 -->
<svg width="469pt" height="173pt"
 viewBox="0.00 0.00 468.50 173.00" xmlns="http://www.w3.org/2000/svg" xmlns:xlink="http://www.w3.org/1999/xlink">
<g id="graph0" class="graph" transform="scale(1 1) rotate(0) translate(4 169)">
<title>/Users/ladeira/Documents/src/onion/RandomEngine.hpp</title>
<polygon fill="white" stroke="none" points="-4,4 -4,-169 464.5,-169 464.5,4 -4,4"/>
<!-- Node1 -->
<g id="node1" class="node">
<title>Node1</title>
<g id="a_node1"><a xlink:title="Declaration of the RandomEngine interface.">
<polygon fill="#bfbfbf" stroke="black" points="153.5,-134.5 153.5,-164.5 301.5,-164.5 301.5,-134.5 153.5,-134.5"/>
<text text-anchor="start" x="161.5" y="-152.5" font-family="Helvetica,sans-Serif" font-size="10.00">/Users/ladeira/Documents</text>
<text text-anchor="middle" x="227.5" y="-141.5" font-family="Helvetica,sans-Serif" font-size="10.00">/src/onion/RandomEngine.hpp</text>
</a>
</g>
</g>
<!-- Node2 -->
<g id="node2" class="node">
<title>Node2</title>
<g id="a_node2"><a xlink:href="_random_8hpp.html" target="_top" xlink:title="This header introduces the random number generation (RNG) facilities of the Onion Framework.">
<polygon fill="white" stroke="black" points="0,-67.5 0,-97.5 131,-97.5 131,-67.5 0,-67.5"/>
<text text-anchor="start" x="8" y="-85.5" font-family="Helvetica,sans-Serif" font-size="10.00">/Users/ladeira/Documents</text>
<text text-anchor="middle" x="65.5" y="-74.5" font-family="Helvetica,sans-Serif" font-size="10.00">/src/onion/Random.hpp</text>
</a>
</g>
</g>
<!-- Node1&#45;&gt;Node2 -->
<g id="edge1" class="edge">
<title>Node1&#45;&gt;Node2</title>
<path fill="none" stroke="midnightblue" d="M182.39,-130.4C156.39,-119.97 124.21,-107.05 100.2,-97.42"/>
<polygon fill="midnightblue" stroke="midnightblue" points="180.76,-133.52 191.34,-133.99 183.36,-127.02 180.76,-133.52"/>
</g>
<!-- Node4 -->
<g id="node4" class="node">
<title>Node4</title>
<g id="a_node4"><a xlink:href="_random_legacy_c_8hpp.html" target="_top" xlink:title="Implementation of the RandomEngine interface using the legacy C facilities from the C stdlib.">
<polygon fill="white" stroke="black" points="149,-67.5 149,-97.5 306,-97.5 306,-67.5 149,-67.5"/>
<text text-anchor="start" x="157" y="-85.5" font-family="Helvetica,sans-Serif" font-size="10.00">/Users/ladeira/Documents</text>
<text text-anchor="middle" x="227.5" y="-74.5" font-family="Helvetica,sans-Serif" font-size="10.00">/src/onion/RandomLegacyC.hpp</text>
</a>
</g>
</g>
<!-- Node1&#45;&gt;Node4 -->
<g id="edge3" class="edge">
<title>Node1&#45;&gt;Node4</title>
<path fill="none" stroke="midnightblue" d="M227.5,-123.36C227.5,-114.49 227.5,-104.84 227.5,-97.26"/>
<polygon fill="midnightblue" stroke="midnightblue" points="224,-123.2 227.5,-133.2 231,-123.2 224,-123.2"/>
</g>
<!-- Node5 -->
<g id="node5" class="node">
<title>Node5</title>
<g id="a_node5"><a xlink:href="_random_s_t_l_8hpp.html" target="_top" xlink:title="Implementation of the RandomEngine interface using C++11 (and above) RNG facilities.">
<polygon fill="white" stroke="black" points="324.5,-67.5 324.5,-97.5 460.5,-97.5 460.5,-67.5 324.5,-67.5"/>
<text text-anchor="start" x="332.5" y="-85.5" font-family="Helvetica,sans-Serif" font-size="10.00">/Users/ladeira/Documents</text>
<text text-anchor="middle" x="392.5" y="-74.5" font-family="Helvetica,sans-Serif" font-size="10.00">/src/onion/RandomSTL.hpp</text>
</a>
</g>
</g>
<!-- Node1&#45;&gt;Node5 -->
<g id="edge4" class="edge">
<title>Node1&#45;&gt;Node5</title>
<path fill="none" stroke="midnightblue" d="M273.45,-130.4C299.93,-119.97 332.71,-107.05 357.16,-97.42"/>
<polygon fill="midnightblue" stroke="midnightblue" points="272.33,-127.08 264.3,-134 274.89,-133.59 272.33,-127.08"/>
</g>
<!-- Node3 -->
<g id="node3" class="node">
<title>Node3</title>
<g id="a_node3"><a xlink:href="_random_8cpp.html" target="_top" xlink:title="Implementation of the global RandomEngine object.">
<polygon fill="white" stroke="black" points="163,-0.5 163,-30.5 294,-30.5 294,-0.5 163,-0.5"/>
<text text-anchor="start" x="171" y="-18.5" font-family="Helvetica,sans-Serif" font-size="10.00">/Users/ladeira/Documents</text>
<text text-anchor="middle" x="228.5" y="-7.5" font-family="Helvetica,sans-Serif" font-size="10.00">/src/onion/Random.cpp</text>
</a>
</g>
</g>
<!-- Node2&#45;&gt;Node3 -->
<g id="edge2" class="edge">
<title>Node2&#45;&gt;Node3</title>
<path fill="none" stroke="midnightblue" d="M110.89,-63.4C137.05,-52.97 169.43,-40.05 193.59,-30.42"/>
<polygon fill="midnightblue" stroke="midnightblue" points="109.87,-60.04 101.87,-67 112.46,-66.54 109.87,-60.04"/>
</g>
<!-- Node5&#45;&gt;Node3 -->
<g id="edge5" class="edge">
<title>Node5&#45;&gt;Node3</title>
<path fill="none" stroke="midnightblue" d="M346.83,-63.4C320.51,-52.97 287.93,-40.05 263.62,-30.42"/>
<polygon fill="midnightblue" stroke="midnightblue" points="345.32,-66.57 355.91,-67 347.9,-60.06 345.32,-66.57"/>
</g>
</g>
</svg>
