<?xml version="1.0" encoding="UTF-8" standalone="no"?>
<!DOCTYPE svg PUBLIC "-//W3C//DTD SVG 1.1//EN"
 "http://www.w3.org/Graphics/SVG/1.1/DTD/svg11.dtd">
<!-- Generated by graphviz version 2.43.0 (0)
 -->
<!-- Title: /home/ladeira/Documents/src/onion/RandomSTL.hpp Pages: 1 -->
<svg width="192pt" height="95pt"
 viewBox="0.00 0.00 191.50 95.00" xmlns="http://www.w3.org/2000/svg" xmlns:xlink="http://www.w3.org/1999/xlink">
<g id="graph0" class="graph" transform="scale(1 1) rotate(0) translate(4 91)">
<title>/home/ladeira/Documents/src/onion/RandomSTL.hpp</title>
<polygon fill="white" stroke="transparent" points="-4,4 -4,-91 187.5,-91 187.5,4 -4,4"/>
<!-- Node1 -->
<g id="node1" class="node">
<title>Node1</title>
<g id="a_node1"><a xlink:title="Implementation of the RandomEngine interface using C++11 (and above) RNG facilities.">
<polygon fill="#bfbfbf" stroke="black" points="32.5,-56.5 32.5,-86.5 178.5,-86.5 178.5,-56.5 32.5,-56.5"/>
<text text-anchor="start" x="40.5" y="-74.5" font-family="Helvetica,sans-Serif" font-size="10.00">/home/ladeira/Documents</text>
<text text-anchor="middle" x="105.5" y="-63.5" font-family="Helvetica,sans-Serif" font-size="10.00">/src/onion/RandomSTL.hpp</text>
</a>
</g>
</g>
<!-- Node2 -->
<g id="node2" class="node">
<title>Node2</title>
<g id="a_node2"><a xlink:href="_random_engine_8hpp.html" target="_top" xlink:title="Declaration of the RandomEngine interface.">
<polygon fill="white" stroke="black" points="0,-0.5 0,-19.5 111,-19.5 111,-0.5 0,-0.5"/>
<text text-anchor="middle" x="55.5" y="-7.5" font-family="Helvetica,sans-Serif" font-size="10.00">RandomEngine.hpp</text>
</a>
</g>
</g>
<!-- Node1&#45;&gt;Node2 -->
<g id="edge1" class="edge">
<title>Node1&#45;&gt;Node2</title>
<path fill="none" stroke="midnightblue" d="M93.65,-56.4C86.39,-47.75 77.05,-36.64 69.43,-27.58"/>
<polygon fill="midnightblue" stroke="midnightblue" points="71.89,-25.06 62.78,-19.66 66.53,-29.57 71.89,-25.06"/>
</g>
<!-- Node3 -->
<g id="node3" class="node">
<title>Node3</title>
<g id="a_node3"><a xlink:title=" ">
<polygon fill="white" stroke="#bfbfbf" points="129.5,-0.5 129.5,-19.5 183.5,-19.5 183.5,-0.5 129.5,-0.5"/>
<text text-anchor="middle" x="156.5" y="-7.5" font-family="Helvetica,sans-Serif" font-size="10.00">random</text>
</a>
</g>
</g>
<!-- Node1&#45;&gt;Node3 -->
<g id="edge2" class="edge">
<title>Node1&#45;&gt;Node3</title>
<path fill="none" stroke="midnightblue" d="M117.59,-56.4C125.07,-47.66 134.72,-36.41 142.53,-27.3"/>
<polygon fill="midnightblue" stroke="midnightblue" points="145.23,-29.53 149.08,-19.66 139.91,-24.97 145.23,-29.53"/>
</g>
</g>
</svg>
