<?xml version="1.0" encoding="UTF-8" standalone="no"?>
<!DOCTYPE svg PUBLIC "-//W3C//DTD SVG 1.1//EN"
 "http://www.w3.org/Graphics/SVG/1.1/DTD/svg11.dtd">
<!-- Generated by graphviz version 7.1.0 (20230121.1956)
 -->
<!-- Title: /Users/ladeira/Documents/src/onion/Random.cpp Pages: 1 -->
<svg width="291pt" height="151pt"
 viewBox="0.00 0.00 291.00 151.00" xmlns="http://www.w3.org/2000/svg" xmlns:xlink="http://www.w3.org/1999/xlink">
<g id="graph0" class="graph" transform="scale(1 1) rotate(0) translate(4 147)">
<title>/Users/ladeira/Documents/src/onion/Random.cpp</title>
<polygon fill="white" stroke="none" points="-4,4 -4,-147 287,-147 287,4 -4,4"/>
<!-- Node1 -->
<g id="node1" class="node">
<title>Node1</title>
<g id="a_node1"><a xlink:title="Implementation of the global RandomEngine object.">
<polygon fill="#bfbfbf" stroke="black" points="96,-112.5 96,-142.5 227,-142.5 227,-112.5 96,-112.5"/>
<text text-anchor="start" x="104" y="-130.5" font-family="Helvetica,sans-Serif" font-size="10.00">/Users/ladeira/Documents</text>
<text text-anchor="middle" x="161.5" y="-119.5" font-family="Helvetica,sans-Serif" font-size="10.00">/src/onion/Random.cpp</text>
</a>
</g>
</g>
<!-- Node2 -->
<g id="node2" class="node">
<title>Node2</title>
<g id="a_node2"><a xlink:href="_random_8hpp.html" target="_top" xlink:title="This header introduces the random number generation (RNG) facilities of the Onion Framework.">
<polygon fill="white" stroke="black" points="76.5,-56.5 76.5,-75.5 148.5,-75.5 148.5,-56.5 76.5,-56.5"/>
<text text-anchor="middle" x="112.5" y="-63.5" font-family="Helvetica,sans-Serif" font-size="10.00">Random.hpp</text>
</a>
</g>
</g>
<!-- Node1&#45;&gt;Node2 -->
<g id="edge1" class="edge">
<title>Node1&#45;&gt;Node2</title>
<path fill="none" stroke="midnightblue" d="M150.14,-112.7C143.16,-104.23 134.17,-93.31 126.72,-84.27"/>
<polygon fill="midnightblue" stroke="midnightblue" points="129.44,-82.06 120.38,-76.57 124.03,-86.51 129.44,-82.06"/>
</g>
<!-- Node5 -->
<g id="node5" class="node">
<title>Node5</title>
<g id="a_node5"><a xlink:href="_random_s_t_l_8hpp.html" target="_top" xlink:title="Implementation of the RandomEngine interface using C++11 (and above) RNG facilities.">
<polygon fill="white" stroke="black" points="166.5,-56.5 166.5,-75.5 256.5,-75.5 256.5,-56.5 166.5,-56.5"/>
<text text-anchor="middle" x="211.5" y="-63.5" font-family="Helvetica,sans-Serif" font-size="10.00">RandomSTL.hpp</text>
</a>
</g>
</g>
<!-- Node1&#45;&gt;Node5 -->
<g id="edge4" class="edge">
<title>Node1&#45;&gt;Node5</title>
<path fill="none" stroke="midnightblue" d="M173.1,-112.7C180.29,-104.14 189.59,-93.08 197.23,-83.98"/>
<polygon fill="midnightblue" stroke="midnightblue" points="199.71,-86.46 203.47,-76.56 194.36,-81.96 199.71,-86.46"/>
</g>
<!-- Node3 -->
<g id="node3" class="node">
<title>Node3</title>
<g id="a_node3"><a xlink:href="_random_engine_8hpp.html" target="_top" xlink:title="Declaration of the RandomEngine interface.">
<polygon fill="white" stroke="black" points="113.5,-0.5 113.5,-19.5 215.5,-19.5 215.5,-0.5 113.5,-0.5"/>
<text text-anchor="middle" x="164.5" y="-7.5" font-family="Helvetica,sans-Serif" font-size="10.00">RandomEngine.hpp</text>
</a>
</g>
</g>
<!-- Node2&#45;&gt;Node3 -->
<g id="edge2" class="edge">
<title>Node2&#45;&gt;Node3</title>
<path fill="none" stroke="midnightblue" d="M120.62,-56.56C128.15,-48.75 139.54,-36.92 148.83,-27.27"/>
<polygon fill="midnightblue" stroke="midnightblue" points="151.14,-29.92 155.55,-20.29 146.09,-25.07 151.14,-29.92"/>
</g>
<!-- Node4 -->
<g id="node4" class="node">
<title>Node4</title>
<g id="a_node4"><a xlink:href="_non_copyable_8hpp.html" target="_top" xlink:title="Contains the declaration of the NonCopyable class.">
<polygon fill="white" stroke="black" points="0,-0.5 0,-19.5 95,-19.5 95,-0.5 0,-0.5"/>
<text text-anchor="middle" x="47.5" y="-7.5" font-family="Helvetica,sans-Serif" font-size="10.00">NonCopyable.hpp</text>
</a>
</g>
</g>
<!-- Node2&#45;&gt;Node4 -->
<g id="edge3" class="edge">
<title>Node2&#45;&gt;Node4</title>
<path fill="none" stroke="midnightblue" d="M102.34,-56.56C92.65,-48.51 77.82,-36.19 66.03,-26.39"/>
<polygon fill="midnightblue" stroke="midnightblue" points="68.46,-23.87 58.54,-20.17 63.99,-29.25 68.46,-23.87"/>
</g>
<!-- Node5&#45;&gt;Node3 -->
<g id="edge5" class="edge">
<title>Node5&#45;&gt;Node3</title>
<path fill="none" stroke="midnightblue" d="M204.16,-56.56C197.5,-48.91 187.48,-37.4 179.18,-27.86"/>
<polygon fill="midnightblue" stroke="midnightblue" points="181.84,-25.59 172.63,-20.34 176.56,-30.18 181.84,-25.59"/>
</g>
<!-- Node6 -->
<g id="node6" class="node">
<title>Node6</title>
<g id="a_node6"><a xlink:title=" ">
<polygon fill="white" stroke="#bfbfbf" points="234,-0.5 234,-19.5 283,-19.5 283,-0.5 234,-0.5"/>
<text text-anchor="middle" x="258.5" y="-7.5" font-family="Helvetica,sans-Serif" font-size="10.00">random</text>
</a>
</g>
</g>
<!-- Node5&#45;&gt;Node6 -->
<g id="edge6" class="edge">
<title>Node5&#45;&gt;Node6</title>
<path fill="none" stroke="midnightblue" d="M218.84,-56.56C225.5,-48.91 235.52,-37.4 243.82,-27.86"/>
<polygon fill="midnightblue" stroke="midnightblue" points="246.44,-30.18 250.37,-20.34 241.16,-25.59 246.44,-30.18"/>
</g>
</g>
</svg>
