<?xml version="1.0" encoding="UTF-8" standalone="no"?>
<!DOCTYPE svg PUBLIC "-//W3C//DTD SVG 1.1//EN"
 "http://www.w3.org/Graphics/SVG/1.1/DTD/svg11.dtd">
<!-- Generated by graphviz version 7.1.0 (20230121.1956)
 -->
<!-- Title: /Users/ladeira/Documents/src/onion/RandomLegacyC.hpp Pages: 1 -->
<svg width="259pt" height="95pt"
 viewBox="0.00 0.00 258.50 95.00" xmlns="http://www.w3.org/2000/svg" xmlns:xlink="http://www.w3.org/1999/xlink">
<g id="graph0" class="graph" transform="scale(1 1) rotate(0) translate(4 91)">
<title>/Users/ladeira/Documents/src/onion/RandomLegacyC.hpp</title>
<polygon fill="white" stroke="none" points="-4,4 -4,-91 254.5,-91 254.5,4 -4,4"/>
<!-- Node1 -->
<g id="node1" class="node">
<title>Node1</title>
<g id="a_node1"><a xlink:title="Implementation of the RandomEngine interface using the legacy C facilities from the C stdlib.">
<polygon fill="#bfbfbf" stroke="black" points="90.5,-56.5 90.5,-86.5 247.5,-86.5 247.5,-56.5 90.5,-56.5"/>
<text text-anchor="start" x="98.5" y="-74.5" font-family="Helvetica,sans-Serif" font-size="10.00">/Users/ladeira/Documents</text>
<text text-anchor="middle" x="169" y="-63.5" font-family="Helvetica,sans-Serif" font-size="10.00">/src/onion/RandomLegacyC.hpp</text>
</a>
</g>
</g>
<!-- Node2 -->
<g id="node2" class="node">
<title>Node2</title>
<g id="a_node2"><a xlink:href="_random_engine_8hpp.html" target="_top" xlink:title="Declaration of the RandomEngine interface.">
<polygon fill="white" stroke="black" points="0,-0.5 0,-19.5 128,-19.5 128,-0.5 0,-0.5"/>
<text text-anchor="middle" x="64" y="-7.5" font-family="Helvetica,sans-Serif" font-size="10.00">onion/RandomEngine.hpp</text>
</a>
</g>
</g>
<!-- Node1&#45;&gt;Node2 -->
<g id="edge1" class="edge">
<title>Node1&#45;&gt;Node2</title>
<path fill="none" stroke="midnightblue" d="M144.38,-56.55C127.52,-46.99 105.24,-34.37 88.42,-24.84"/>
<polygon fill="midnightblue" stroke="midnightblue" points="90.49,-21.99 80.06,-20.1 87.04,-28.08 90.49,-21.99"/>
</g>
<!-- Node3 -->
<g id="node3" class="node">
<title>Node3</title>
<g id="a_node3"><a xlink:title=" ">
<polygon fill="white" stroke="#bfbfbf" points="146.5,-0.5 146.5,-19.5 191.5,-19.5 191.5,-0.5 146.5,-0.5"/>
<text text-anchor="middle" x="169" y="-7.5" font-family="Helvetica,sans-Serif" font-size="10.00">cstdlib</text>
</a>
</g>
</g>
<!-- Node1&#45;&gt;Node3 -->
<g id="edge2" class="edge">
<title>Node1&#45;&gt;Node3</title>
<path fill="none" stroke="midnightblue" d="M169,-56.7C169,-49.04 169,-39.38 169,-30.91"/>
<polygon fill="midnightblue" stroke="midnightblue" points="172.5,-30.91 169,-20.91 165.5,-30.91 172.5,-30.91"/>
</g>
<!-- Node4 -->
<g id="node4" class="node">
<title>Node4</title>
<g id="a_node4"><a xlink:title=" ">
<polygon fill="white" stroke="#bfbfbf" points="209.5,-0.5 209.5,-19.5 250.5,-19.5 250.5,-0.5 209.5,-0.5"/>
<text text-anchor="middle" x="230" y="-7.5" font-family="Helvetica,sans-Serif" font-size="10.00">ctime</text>
</a>
</g>
</g>
<!-- Node1&#45;&gt;Node4 -->
<g id="edge3" class="edge">
<title>Node1&#45;&gt;Node4</title>
<path fill="none" stroke="midnightblue" d="M183.15,-56.7C192.11,-47.96 203.75,-36.61 213.18,-27.41"/>
<polygon fill="midnightblue" stroke="midnightblue" points="215.59,-29.94 220.31,-20.46 210.7,-24.93 215.59,-29.94"/>
</g>
</g>
</svg>
