<?xml version="1.0" encoding="UTF-8" standalone="no"?>
<!DOCTYPE svg PUBLIC "-//W3C//DTD SVG 1.1//EN"
 "http://www.w3.org/Graphics/SVG/1.1/DTD/svg11.dtd">
<!-- Generated by graphviz version 7.1.0 (20230121.1956)
 -->
<!-- Title: RandomLegacyC.hpp Pages: 1 -->
<svg width="233pt" height="84pt"
 viewBox="0.00 0.00 232.50 84.00" xmlns="http://www.w3.org/2000/svg" xmlns:xlink="http://www.w3.org/1999/xlink">
<g id="graph0" class="graph" transform="scale(1 1) rotate(0) translate(4 80)">
<title>RandomLegacyC.hpp</title>
<polygon fill="white" stroke="none" points="-4,4 -4,-80 228.5,-80 228.5,4 -4,4"/>
<!-- Node1 -->
<g id="node1" class="node">
<title>Node1</title>
<g id="a_node1"><a xlink:title="Implementation of the RandomEngine interface using the legacy C facilities from the C stdlib.">
<polygon fill="#bfbfbf" stroke="black" points="87.5,-56.5 87.5,-75.5 198.5,-75.5 198.5,-56.5 87.5,-56.5"/>
<text text-anchor="middle" x="143" y="-63.5" font-family="Helvetica,sans-Serif" font-size="10.00">RandomLegacyC.hpp</text>
</a>
</g>
</g>
<!-- Node2 -->
<g id="node2" class="node">
<title>Node2</title>
<g id="a_node2"><a xlink:href="_random_engine_8hpp.html" target="_top" xlink:title="Declaration of the RandomEngine interface.">
<polygon fill="white" stroke="black" points="0,-0.5 0,-19.5 102,-19.5 102,-0.5 0,-0.5"/>
<text text-anchor="middle" x="51" y="-7.5" font-family="Helvetica,sans-Serif" font-size="10.00">RandomEngine.hpp</text>
</a>
</g>
</g>
<!-- Node1&#45;&gt;Node2 -->
<g id="edge1" class="edge">
<title>Node1&#45;&gt;Node2</title>
<path fill="none" stroke="midnightblue" d="M128.62,-56.56C114.31,-48.16 92.08,-35.11 75.07,-25.13"/>
<polygon fill="midnightblue" stroke="midnightblue" points="76.98,-22.19 66.58,-20.14 73.43,-28.22 76.98,-22.19"/>
</g>
<!-- Node3 -->
<g id="node3" class="node">
<title>Node3</title>
<g id="a_node3"><a xlink:title=" ">
<polygon fill="white" stroke="#bfbfbf" points="120.5,-0.5 120.5,-19.5 165.5,-19.5 165.5,-0.5 120.5,-0.5"/>
<text text-anchor="middle" x="143" y="-7.5" font-family="Helvetica,sans-Serif" font-size="10.00">cstdlib</text>
</a>
</g>
</g>
<!-- Node1&#45;&gt;Node3 -->
<g id="edge2" class="edge">
<title>Node1&#45;&gt;Node3</title>
<path fill="none" stroke="midnightblue" d="M143,-56.56C143,-49.63 143,-39.52 143,-30.59"/>
<polygon fill="midnightblue" stroke="midnightblue" points="146.5,-30.71 143,-20.71 139.5,-30.72 146.5,-30.71"/>
</g>
<!-- Node4 -->
<g id="node4" class="node">
<title>Node4</title>
<g id="a_node4"><a xlink:title=" ">
<polygon fill="white" stroke="#bfbfbf" points="183.5,-0.5 183.5,-19.5 224.5,-19.5 224.5,-0.5 183.5,-0.5"/>
<text text-anchor="middle" x="204" y="-7.5" font-family="Helvetica,sans-Serif" font-size="10.00">ctime</text>
</a>
</g>
</g>
<!-- Node1&#45;&gt;Node4 -->
<g id="edge3" class="edge">
<title>Node1&#45;&gt;Node4</title>
<path fill="none" stroke="midnightblue" d="M152.53,-56.56C161.54,-48.59 175.27,-36.43 186.28,-26.68"/>
<polygon fill="midnightblue" stroke="midnightblue" points="188.43,-29.45 193.6,-20.2 183.79,-24.21 188.43,-29.45"/>
</g>
</g>
</svg>
