<?xml version="1.0" encoding="UTF-8" standalone="no"?>
<!DOCTYPE svg PUBLIC "-//W3C//DTD SVG 1.1//EN"
 "http://www.w3.org/Graphics/SVG/1.1/DTD/svg11.dtd">
<!-- Generated by graphviz version 7.1.0 (20230121.1956)
 -->
<!-- Title: /Users/ladeira/Documents/src/onion/RandomLegacyC.hpp Pages: 1 -->
<svg width="233pt" height="95pt"
 viewBox="0.00 0.00 232.50 95.00" xmlns="http://www.w3.org/2000/svg" xmlns:xlink="http://www.w3.org/1999/xlink">
<g id="graph0" class="graph" transform="scale(1 1) rotate(0) translate(4 91)">
<title>/Users/ladeira/Documents/src/onion/RandomLegacyC.hpp</title>
<polygon fill="white" stroke="none" points="-4,4 -4,-91 228.5,-91 228.5,4 -4,4"/>
<!-- Node1 -->
<g id="node1" class="node">
<title>Node1</title>
<g id="a_node1"><a xlink:title="Implementation of the RandomEngine interface using the legacy C facilities from the C stdlib.">
<polygon fill="#bfbfbf" stroke="black" points="64.5,-56.5 64.5,-86.5 221.5,-86.5 221.5,-56.5 64.5,-56.5"/>
<text text-anchor="start" x="72.5" y="-74.5" font-family="Helvetica,sans-Serif" font-size="10.00">/Users/ladeira/Documents</text>
<text text-anchor="middle" x="143" y="-63.5" font-family="Helvetica,sans-Serif" font-size="10.00">/src/onion/RandomLegacyC.hpp</text>
</a>
</g>
</g>
<!-- Node2 -->
<g id="node2" class="node">
<title>Node2</title>
<g id="a_node2"><a xlink:href="_random_engine_8hpp.html" target="_top" xlink:title="Declaration of the RandomEngine interface.">
<polygon fill="white" stroke="black" points="0,-0.5 0,-19.5 102,-19.5 102,-0.5 0,-0.5"/>
<text text-anchor="middle" x="51" y="-7.5" font-family="Helvetica,sans-Serif" font-size="10.00">RandomEngine.hpp</text>
</a>
</g>
</g>
<!-- Node1&#45;&gt;Node2 -->
<g id="edge1" class="edge">
<title>Node1&#45;&gt;Node2</title>
<path fill="none" stroke="midnightblue" d="M121.66,-56.7C107.17,-47.33 88.04,-34.96 73.34,-25.45"/>
<polygon fill="midnightblue" stroke="midnightblue" points="75.55,-22.71 65.26,-20.22 71.75,-28.59 75.55,-22.71"/>
</g>
<!-- Node3 -->
<g id="node3" class="node">
<title>Node3</title>
<g id="a_node3"><a xlink:title=" ">
<polygon fill="white" stroke="#bfbfbf" points="120.5,-0.5 120.5,-19.5 165.5,-19.5 165.5,-0.5 120.5,-0.5"/>
<text text-anchor="middle" x="143" y="-7.5" font-family="Helvetica,sans-Serif" font-size="10.00">cstdlib</text>
</a>
</g>
</g>
<!-- Node1&#45;&gt;Node3 -->
<g id="edge2" class="edge">
<title>Node1&#45;&gt;Node3</title>
<path fill="none" stroke="midnightblue" d="M143,-56.7C143,-49.04 143,-39.38 143,-30.91"/>
<polygon fill="midnightblue" stroke="midnightblue" points="146.5,-30.91 143,-20.91 139.5,-30.91 146.5,-30.91"/>
</g>
<!-- Node4 -->
<g id="node4" class="node">
<title>Node4</title>
<g id="a_node4"><a xlink:title=" ">
<polygon fill="white" stroke="#bfbfbf" points="183.5,-0.5 183.5,-19.5 224.5,-19.5 224.5,-0.5 183.5,-0.5"/>
<text text-anchor="middle" x="204" y="-7.5" font-family="Helvetica,sans-Serif" font-size="10.00">ctime</text>
</a>
</g>
</g>
<!-- Node1&#45;&gt;Node4 -->
<g id="edge3" class="edge">
<title>Node1&#45;&gt;Node4</title>
<path fill="none" stroke="midnightblue" d="M157.15,-56.7C166.11,-47.96 177.75,-36.61 187.18,-27.41"/>
<polygon fill="midnightblue" stroke="midnightblue" points="189.59,-29.94 194.31,-20.46 184.7,-24.93 189.59,-29.94"/>
</g>
</g>
</svg>
