<?xml version="1.0" encoding="UTF-8" standalone="no"?>
<!DOCTYPE svg PUBLIC "-//W3C//DTD SVG 1.1//EN"
 "http://www.w3.org/Graphics/SVG/1.1/DTD/svg11.dtd">
<!-- Generated by graphviz version 7.1.0 (20230121.1956)
 -->
<!-- Title: Random.hpp Pages: 1 -->
<svg width="224pt" height="84pt"
 viewBox="0.00 0.00 223.50 84.00" xmlns="http://www.w3.org/2000/svg" xmlns:xlink="http://www.w3.org/1999/xlink">
<g id="graph0" class="graph" transform="scale(1 1) rotate(0) translate(4 80)">
<title>Random.hpp</title>
<polygon fill="white" stroke="none" points="-4,4 -4,-80 219.5,-80 219.5,4 -4,4"/>
<!-- Node1 -->
<g id="node1" class="node">
<title>Node1</title>
<g id="a_node1"><a xlink:title="This header introduces the random number generation (RNG) facilities of the Onion Framework.">
<polygon fill="#bfbfbf" stroke="black" points="73,-56.5 73,-75.5 145,-75.5 145,-56.5 73,-56.5"/>
<text text-anchor="middle" x="109" y="-63.5" font-family="Helvetica,sans-Serif" font-size="10.00">Random.hpp</text>
</a>
</g>
</g>
<!-- Node2 -->
<g id="node2" class="node">
<title>Node2</title>
<g id="a_node2"><a xlink:href="_random_engine_8hpp.html" target="_top" xlink:title="Declaration of the RandomEngine interface.">
<polygon fill="white" stroke="black" points="0,-0.5 0,-19.5 102,-19.5 102,-0.5 0,-0.5"/>
<text text-anchor="middle" x="51" y="-7.5" font-family="Helvetica,sans-Serif" font-size="10.00">RandomEngine.hpp</text>
</a>
</g>
</g>
<!-- Node1&#45;&gt;Node2 -->
<g id="edge1" class="edge">
<title>Node1&#45;&gt;Node2</title>
<path fill="none" stroke="midnightblue" d="M99.94,-56.56C91.46,-48.67 78.58,-36.68 68.16,-26.98"/>
<polygon fill="midnightblue" stroke="midnightblue" points="70.62,-24.49 60.92,-20.23 65.85,-29.61 70.62,-24.49"/>
</g>
<!-- Node3 -->
<g id="node3" class="node">
<title>Node3</title>
<g id="a_node3"><a xlink:href="_non_copyable_8hpp.html" target="_top" xlink:title="Contains the declaration of the NonCopyable class.">
<polygon fill="white" stroke="black" points="120.5,-0.5 120.5,-19.5 215.5,-19.5 215.5,-0.5 120.5,-0.5"/>
<text text-anchor="middle" x="168" y="-7.5" font-family="Helvetica,sans-Serif" font-size="10.00">NonCopyable.hpp</text>
</a>
</g>
</g>
<!-- Node1&#45;&gt;Node3 -->
<g id="edge2" class="edge">
<title>Node1&#45;&gt;Node3</title>
<path fill="none" stroke="midnightblue" d="M118.22,-56.56C126.93,-48.59 140.21,-36.43 150.87,-26.68"/>
<polygon fill="midnightblue" stroke="midnightblue" points="152.91,-29.56 157.92,-20.22 148.18,-24.39 152.91,-29.56"/>
</g>
</g>
</svg>
