<?xml version="1.0" encoding="UTF-8" standalone="no"?>
<!DOCTYPE svg PUBLIC "-//W3C//DTD SVG 1.1//EN"
 "http://www.w3.org/Graphics/SVG/1.1/DTD/svg11.dtd">
<!-- Generated by graphviz version 2.43.0 (0)
 -->
<!-- Title: /home/ladeira/Documents/src/onion/Random.hpp Pages: 1 -->
<svg width="240pt" height="95pt"
 viewBox="0.00 0.00 240.00 95.00" xmlns="http://www.w3.org/2000/svg" xmlns:xlink="http://www.w3.org/1999/xlink">
<g id="graph0" class="graph" transform="scale(1 1) rotate(0) translate(4 91)">
<title>/home/ladeira/Documents/src/onion/Random.hpp</title>
<polygon fill="white" stroke="transparent" points="-4,4 -4,-91 236,-91 236,4 -4,4"/>
<!-- Node1 -->
<g id="node1" class="node">
<title>Node1</title>
<g id="a_node1"><a xlink:title="This header introduces the random number generation (RNG) facilities of the Onion Framework.">
<polygon fill="#bfbfbf" stroke="black" points="46,-56.5 46,-86.5 189,-86.5 189,-56.5 46,-56.5"/>
<text text-anchor="start" x="54" y="-74.5" font-family="Helvetica,sans-Serif" font-size="10.00">/home/ladeira/Documents</text>
<text text-anchor="middle" x="117.5" y="-63.5" font-family="Helvetica,sans-Serif" font-size="10.00">/src/onion/Random.hpp</text>
</a>
</g>
</g>
<!-- Node2 -->
<g id="node2" class="node">
<title>Node2</title>
<g id="a_node2"><a xlink:href="_random_engine_8hpp.html" target="_top" xlink:title="Declaration of the RandomEngine interface.">
<polygon fill="white" stroke="black" points="0,-0.5 0,-19.5 111,-19.5 111,-0.5 0,-0.5"/>
<text text-anchor="middle" x="55.5" y="-7.5" font-family="Helvetica,sans-Serif" font-size="10.00">RandomEngine.hpp</text>
</a>
</g>
</g>
<!-- Node1&#45;&gt;Node2 -->
<g id="edge1" class="edge">
<title>Node1&#45;&gt;Node2</title>
<path fill="none" stroke="midnightblue" d="M102.81,-56.4C93.52,-47.49 81.5,-35.95 71.9,-26.74"/>
<polygon fill="midnightblue" stroke="midnightblue" points="74.16,-24.06 64.52,-19.66 69.31,-29.11 74.16,-24.06"/>
</g>
<!-- Node3 -->
<g id="node3" class="node">
<title>Node3</title>
<g id="a_node3"><a xlink:href="_non_copyable_8hpp.html" target="_top" xlink:title="Contains the declaration of the NonCopyable class.">
<polygon fill="white" stroke="black" points="129,-0.5 129,-19.5 232,-19.5 232,-0.5 129,-0.5"/>
<text text-anchor="middle" x="180.5" y="-7.5" font-family="Helvetica,sans-Serif" font-size="10.00">NonCopyable.hpp</text>
</a>
</g>
</g>
<!-- Node1&#45;&gt;Node3 -->
<g id="edge2" class="edge">
<title>Node1&#45;&gt;Node3</title>
<path fill="none" stroke="midnightblue" d="M132.43,-56.4C141.87,-47.49 154.08,-35.95 163.83,-26.74"/>
<polygon fill="midnightblue" stroke="midnightblue" points="166.47,-29.07 171.33,-19.66 161.66,-23.98 166.47,-29.07"/>
</g>
</g>
</svg>
