<?xml version="1.0" encoding="UTF-8" standalone="no"?>
<!DOCTYPE svg PUBLIC "-//W3C//DTD SVG 1.1//EN"
 "http://www.w3.org/Graphics/SVG/1.1/DTD/svg11.dtd">
<!-- Generated by graphviz version 7.1.0 (20230121.1956)
 -->
<!-- Title: /Users/ladeira/Documents/src/onion/RandomSTL.hpp Pages: 1 -->
<svg width="178pt" height="95pt"
 viewBox="0.00 0.00 177.50 95.00" xmlns="http://www.w3.org/2000/svg" xmlns:xlink="http://www.w3.org/1999/xlink">
<g id="graph0" class="graph" transform="scale(1 1) rotate(0) translate(4 91)">
<title>/Users/ladeira/Documents/src/onion/RandomSTL.hpp</title>
<polygon fill="white" stroke="none" points="-4,4 -4,-91 173.5,-91 173.5,4 -4,4"/>
<!-- Node1 -->
<g id="node1" class="node">
<title>Node1</title>
<g id="a_node1"><a xlink:title="Implementation of the RandomEngine interface using C++11 (and above) RNG facilities.">
<polygon fill="#bfbfbf" stroke="black" points="30,-56.5 30,-86.5 166,-86.5 166,-56.5 30,-56.5"/>
<text text-anchor="start" x="38" y="-74.5" font-family="Helvetica,sans-Serif" font-size="10.00">/Users/ladeira/Documents</text>
<text text-anchor="middle" x="98" y="-63.5" font-family="Helvetica,sans-Serif" font-size="10.00">/src/onion/RandomSTL.hpp</text>
</a>
</g>
</g>
<!-- Node2 -->
<g id="node2" class="node">
<title>Node2</title>
<g id="a_node2"><a xlink:href="_random_engine_8hpp.html" target="_top" xlink:title="Declaration of the RandomEngine interface.">
<polygon fill="white" stroke="black" points="0,-0.5 0,-19.5 102,-19.5 102,-0.5 0,-0.5"/>
<text text-anchor="middle" x="51" y="-7.5" font-family="Helvetica,sans-Serif" font-size="10.00">RandomEngine.hpp</text>
</a>
</g>
</g>
<!-- Node1&#45;&gt;Node2 -->
<g id="edge1" class="edge">
<title>Node1&#45;&gt;Node2</title>
<path fill="none" stroke="midnightblue" d="M87.1,-56.7C80.41,-48.23 71.78,-37.31 64.64,-28.27"/>
<polygon fill="midnightblue" stroke="midnightblue" points="67.52,-26.26 58.57,-20.59 62.02,-30.6 67.52,-26.26"/>
</g>
<!-- Node3 -->
<g id="node3" class="node">
<title>Node3</title>
<g id="a_node3"><a xlink:title=" ">
<polygon fill="white" stroke="#bfbfbf" points="120.5,-0.5 120.5,-19.5 169.5,-19.5 169.5,-0.5 120.5,-0.5"/>
<text text-anchor="middle" x="145" y="-7.5" font-family="Helvetica,sans-Serif" font-size="10.00">random</text>
</a>
</g>
</g>
<!-- Node1&#45;&gt;Node3 -->
<g id="edge2" class="edge">
<title>Node1&#45;&gt;Node3</title>
<path fill="none" stroke="midnightblue" d="M108.9,-56.7C115.59,-48.23 124.22,-37.31 131.36,-28.27"/>
<polygon fill="midnightblue" stroke="midnightblue" points="133.98,-30.6 137.43,-20.59 128.48,-26.26 133.98,-30.6"/>
</g>
</g>
</svg>
