<?xml version="1.0" encoding="UTF-8" standalone="no"?>
<!DOCTYPE svg PUBLIC "-//W3C//DTD SVG 1.1//EN"
 "http://www.w3.org/Graphics/SVG/1.1/DTD/svg11.dtd">
<!-- Generated by graphviz version 2.43.0 (0)
 -->
<!-- Title: /home/ladeira/Documents/src/onion/Random.cpp Pages: 1 -->
<svg width="313pt" height="151pt"
 viewBox="0.00 0.00 312.50 151.00" xmlns="http://www.w3.org/2000/svg" xmlns:xlink="http://www.w3.org/1999/xlink">
<g id="graph0" class="graph" transform="scale(1 1) rotate(0) translate(4 147)">
<title>/home/ladeira/Documents/src/onion/Random.cpp</title>
<polygon fill="white" stroke="transparent" points="-4,4 -4,-147 308.5,-147 308.5,4 -4,4"/>
<!-- Node1 -->
<g id="node1" class="node">
<title>Node1</title>
<g id="a_node1"><a xlink:title="Implementation of the global RandomEngine object.">
<polygon fill="#bfbfbf" stroke="black" points="102,-112.5 102,-142.5 245,-142.5 245,-112.5 102,-112.5"/>
<text text-anchor="start" x="110" y="-130.5" font-family="Helvetica,sans-Serif" font-size="10.00">/home/ladeira/Documents</text>
<text text-anchor="middle" x="173.5" y="-119.5" font-family="Helvetica,sans-Serif" font-size="10.00">/src/onion/Random.cpp</text>
</a>
</g>
</g>
<!-- Node2 -->
<g id="node2" class="node">
<title>Node2</title>
<g id="a_node2"><a xlink:href="_random_8hpp.html" target="_top" xlink:title="This header introduces the random number generation (RNG) facilities of the Onion Framework.">
<polygon fill="white" stroke="black" points="82.5,-56.5 82.5,-75.5 160.5,-75.5 160.5,-56.5 82.5,-56.5"/>
<text text-anchor="middle" x="121.5" y="-63.5" font-family="Helvetica,sans-Serif" font-size="10.00">Random.hpp</text>
</a>
</g>
</g>
<!-- Node1&#45;&gt;Node2 -->
<g id="edge1" class="edge">
<title>Node1&#45;&gt;Node2</title>
<path fill="none" stroke="midnightblue" d="M161.18,-112.4C153.54,-103.66 143.71,-92.41 135.74,-83.3"/>
<polygon fill="midnightblue" stroke="midnightblue" points="138.28,-80.88 129.07,-75.66 133.01,-85.49 138.28,-80.88"/>
</g>
<!-- Node5 -->
<g id="node5" class="node">
<title>Node5</title>
<g id="a_node5"><a xlink:href="_random_s_t_l_8hpp.html" target="_top" xlink:title="Implementation of the RandomEngine interface using C++11 (and above) RNG facilities.">
<polygon fill="white" stroke="black" points="179,-56.5 179,-75.5 274,-75.5 274,-56.5 179,-56.5"/>
<text text-anchor="middle" x="226.5" y="-63.5" font-family="Helvetica,sans-Serif" font-size="10.00">RandomSTL.hpp</text>
</a>
</g>
</g>
<!-- Node1&#45;&gt;Node5 -->
<g id="edge4" class="edge">
<title>Node1&#45;&gt;Node5</title>
<path fill="none" stroke="midnightblue" d="M186.06,-112.4C193.84,-103.66 203.86,-92.41 211.98,-83.3"/>
<polygon fill="midnightblue" stroke="midnightblue" points="214.75,-85.45 218.79,-75.66 209.52,-80.8 214.75,-85.45"/>
</g>
<!-- Node3 -->
<g id="node3" class="node">
<title>Node3</title>
<g id="a_node3"><a xlink:href="_random_engine_8hpp.html" target="_top" xlink:title="Declaration of the RandomEngine interface.">
<polygon fill="white" stroke="black" points="121,-0.5 121,-19.5 232,-19.5 232,-0.5 121,-0.5"/>
<text text-anchor="middle" x="176.5" y="-7.5" font-family="Helvetica,sans-Serif" font-size="10.00">RandomEngine.hpp</text>
</a>
</g>
</g>
<!-- Node2&#45;&gt;Node3 -->
<g id="edge2" class="edge">
<title>Node2&#45;&gt;Node3</title>
<path fill="none" stroke="midnightblue" d="M130.58,-56.08C138.67,-48.14 150.7,-36.34 160.41,-26.8"/>
<polygon fill="midnightblue" stroke="midnightblue" points="162.9,-29.25 167.59,-19.75 158,-24.26 162.9,-29.25"/>
</g>
<!-- Node4 -->
<g id="node4" class="node">
<title>Node4</title>
<g id="a_node4"><a xlink:href="_non_copyable_8hpp.html" target="_top" xlink:title="Contains the declaration of the NonCopyable class.">
<polygon fill="white" stroke="black" points="0,-0.5 0,-19.5 103,-19.5 103,-0.5 0,-0.5"/>
<text text-anchor="middle" x="51.5" y="-7.5" font-family="Helvetica,sans-Serif" font-size="10.00">NonCopyable.hpp</text>
</a>
</g>
</g>
<!-- Node2&#45;&gt;Node4 -->
<g id="edge3" class="edge">
<title>Node2&#45;&gt;Node4</title>
<path fill="none" stroke="midnightblue" d="M110.25,-56.32C99.7,-48.18 83.7,-35.84 71.06,-26.09"/>
<polygon fill="midnightblue" stroke="midnightblue" points="73.01,-23.17 62.95,-19.83 68.73,-28.71 73.01,-23.17"/>
</g>
<!-- Node5&#45;&gt;Node3 -->
<g id="edge5" class="edge">
<title>Node5&#45;&gt;Node3</title>
<path fill="none" stroke="midnightblue" d="M218.24,-56.08C211.04,-48.3 200.39,-36.8 191.65,-27.37"/>
<polygon fill="midnightblue" stroke="midnightblue" points="193.97,-24.71 184.6,-19.75 188.83,-29.47 193.97,-24.71"/>
</g>
<!-- Node6 -->
<g id="node6" class="node">
<title>Node6</title>
<g id="a_node6"><a xlink:title=" ">
<polygon fill="white" stroke="#bfbfbf" points="250.5,-0.5 250.5,-19.5 304.5,-19.5 304.5,-0.5 250.5,-0.5"/>
<text text-anchor="middle" x="277.5" y="-7.5" font-family="Helvetica,sans-Serif" font-size="10.00">random</text>
</a>
</g>
</g>
<!-- Node5&#45;&gt;Node6 -->
<g id="edge6" class="edge">
<title>Node5&#45;&gt;Node6</title>
<path fill="none" stroke="midnightblue" d="M234.92,-56.08C242.35,-48.22 253.35,-36.57 262.31,-27.08"/>
<polygon fill="midnightblue" stroke="midnightblue" points="264.91,-29.42 269.24,-19.75 259.82,-24.62 264.91,-29.42"/>
</g>
</g>
</svg>
