<?xml version="1.0" encoding="UTF-8" standalone="no"?>
<!DOCTYPE svg PUBLIC "-//W3C//DTD SVG 1.1//EN"
 "http://www.w3.org/Graphics/SVG/1.1/DTD/svg11.dtd">
<!-- Generated by graphviz version 7.1.0 (20230121.1956)
 -->
<!-- Title: RandomEngine.hpp Pages: 1 -->
<svg width="318pt" height="140pt"
 viewBox="0.00 0.00 318.00 140.00" xmlns="http://www.w3.org/2000/svg" xmlns:xlink="http://www.w3.org/1999/xlink">
<g id="graph0" class="graph" transform="scale(1 1) rotate(0) translate(4 136)">
<title>RandomEngine.hpp</title>
<polygon fill="white" stroke="none" points="-4,4 -4,-136 314,-136 314,4 -4,4"/>
<!-- Node1 -->
<g id="node1" class="node">
<title>Node1</title>
<g id="a_node1"><a xlink:title="Declaration of the RandomEngine interface.">
<polygon fill="#bfbfbf" stroke="black" points="95,-112.5 95,-131.5 197,-131.5 197,-112.5 95,-112.5"/>
<text text-anchor="middle" x="146" y="-119.5" font-family="Helvetica,sans-Serif" font-size="10.00">RandomEngine.hpp</text>
</a>
</g>
</g>
<!-- Node2 -->
<g id="node2" class="node">
<title>Node2</title>
<g id="a_node2"><a xlink:href="_random_8hpp.html" target="_top" xlink:title="This header introduces the random number generation (RNG) facilities of the Onion Framework.">
<polygon fill="white" stroke="black" points="0,-56.5 0,-75.5 72,-75.5 72,-56.5 0,-56.5"/>
<text text-anchor="middle" x="36" y="-63.5" font-family="Helvetica,sans-Serif" font-size="10.00">Random.hpp</text>
</a>
</g>
</g>
<!-- Node1&#45;&gt;Node2 -->
<g id="edge1" class="edge">
<title>Node1&#45;&gt;Node2</title>
<path fill="none" stroke="midnightblue" d="M118.5,-107.5C97.97,-97.42 70.54,-83.96 53.07,-75.38"/>
<polygon fill="midnightblue" stroke="midnightblue" points="116.93,-110.63 127.45,-111.9 120.02,-104.35 116.93,-110.63"/>
</g>
<!-- Node4 -->
<g id="node4" class="node">
<title>Node4</title>
<g id="a_node4"><a xlink:href="_random_legacy_c_8hpp.html" target="_top" xlink:title="Implementation of the RandomEngine interface using the legacy C facilities from the C stdlib.">
<polygon fill="white" stroke="black" points="90.5,-56.5 90.5,-75.5 201.5,-75.5 201.5,-56.5 90.5,-56.5"/>
<text text-anchor="middle" x="146" y="-63.5" font-family="Helvetica,sans-Serif" font-size="10.00">RandomLegacyC.hpp</text>
</a>
</g>
</g>
<!-- Node1&#45;&gt;Node4 -->
<g id="edge3" class="edge">
<title>Node1&#45;&gt;Node4</title>
<path fill="none" stroke="midnightblue" d="M146,-101.1C146,-92.14 146,-82.06 146,-75.2"/>
<polygon fill="midnightblue" stroke="midnightblue" points="142.5,-101.05 146,-111.05 149.5,-101.05 142.5,-101.05"/>
</g>
<!-- Node5 -->
<g id="node5" class="node">
<title>Node5</title>
<g id="a_node5"><a xlink:href="_random_s_t_l_8hpp.html" target="_top" xlink:title="Implementation of the RandomEngine interface using C++11 (and above) RNG facilities.">
<polygon fill="white" stroke="black" points="220,-56.5 220,-75.5 310,-75.5 310,-56.5 220,-56.5"/>
<text text-anchor="middle" x="265" y="-63.5" font-family="Helvetica,sans-Serif" font-size="10.00">RandomSTL.hpp</text>
</a>
</g>
</g>
<!-- Node1&#45;&gt;Node5 -->
<g id="edge4" class="edge">
<title>Node1&#45;&gt;Node5</title>
<path fill="none" stroke="midnightblue" d="M174.83,-107.92C197.14,-97.79 227.37,-84.07 246.54,-75.38"/>
<polygon fill="midnightblue" stroke="midnightblue" points="173.63,-104.62 165.97,-111.94 176.52,-110.99 173.63,-104.62"/>
</g>
<!-- Node3 -->
<g id="node3" class="node">
<title>Node3</title>
<g id="a_node3"><a xlink:href="_random_8cpp.html" target="_top" xlink:title="Implementation of the global RandomEngine object.">
<polygon fill="white" stroke="black" points="114,-0.5 114,-19.5 186,-19.5 186,-0.5 114,-0.5"/>
<text text-anchor="middle" x="150" y="-7.5" font-family="Helvetica,sans-Serif" font-size="10.00">Random.cpp</text>
</a>
</g>
</g>
<!-- Node2&#45;&gt;Node3 -->
<g id="edge2" class="edge">
<title>Node2&#45;&gt;Node3</title>
<path fill="none" stroke="midnightblue" d="M64.2,-51.64C85.52,-41.54 114.12,-27.99 132.31,-19.38"/>
<polygon fill="midnightblue" stroke="midnightblue" points="62.72,-48.47 55.18,-55.91 65.72,-54.8 62.72,-48.47"/>
</g>
<!-- Node5&#45;&gt;Node3 -->
<g id="edge5" class="edge">
<title>Node5&#45;&gt;Node3</title>
<path fill="none" stroke="midnightblue" d="M236.85,-51.78C215.31,-41.67 186.28,-28.03 167.84,-19.38"/>
<polygon fill="midnightblue" stroke="midnightblue" points="235.12,-54.84 245.66,-55.92 238.1,-48.5 235.12,-54.84"/>
</g>
</g>
</svg>
