<?xml version="1.0" encoding="UTF-8" standalone="no"?>
<!DOCTYPE svg PUBLIC "-//W3C//DTD SVG 1.1//EN"
 "http://www.w3.org/Graphics/SVG/1.1/DTD/svg11.dtd">
<!-- Generated by graphviz version 2.43.0 (0)
 -->
<!-- Title: /home/ladeira/Documents/src/onion/SelectOperator.hpp Pages: 1 -->
<svg width="399pt" height="151pt"
 viewBox="0.00 0.00 398.50 151.00" xmlns="http://www.w3.org/2000/svg" xmlns:xlink="http://www.w3.org/1999/xlink">
<g id="graph0" class="graph" transform="scale(1 1) rotate(0) translate(4 147)">
<title>/home/ladeira/Documents/src/onion/SelectOperator.hpp</title>
<polygon fill="white" stroke="transparent" points="-4,4 -4,-147 394.5,-147 394.5,4 -4,4"/>
<!-- Node1 -->
<g id="node1" class="node">
<title>Node1</title>
<g id="a_node1"><a xlink:title="This header introduces the SelectOperator class interface.">
<polygon fill="#bfbfbf" stroke="black" points="98,-112.5 98,-142.5 258,-142.5 258,-112.5 98,-112.5"/>
<text text-anchor="start" x="106" y="-130.5" font-family="Helvetica,sans-Serif" font-size="10.00">/home/ladeira/Documents</text>
<text text-anchor="middle" x="178" y="-119.5" font-family="Helvetica,sans-Serif" font-size="10.00">/src/onion/SelectOperator.hpp</text>
</a>
</g>
</g>
<!-- Node2 -->
<g id="node2" class="node">
<title>Node2</title>
<g id="a_node2"><a xlink:href="_component_i_d_8hpp.html" target="_top" xlink:title="This header contains the classes used to identify a component of the Onion Framework.">
<polygon fill="white" stroke="black" points="4,-56.5 4,-75.5 108,-75.5 108,-56.5 4,-56.5"/>
<text text-anchor="middle" x="56" y="-63.5" font-family="Helvetica,sans-Serif" font-size="10.00">ComponentID.hpp</text>
</a>
</g>
</g>
<!-- Node1&#45;&gt;Node2 -->
<g id="edge1" class="edge">
<title>Node1&#45;&gt;Node2</title>
<path fill="none" stroke="midnightblue" d="M149.09,-112.4C128.98,-102.59 102.38,-89.62 82.76,-80.05"/>
<polygon fill="midnightblue" stroke="midnightblue" points="84.27,-76.9 73.75,-75.66 81.21,-83.19 84.27,-76.9"/>
</g>
<!-- Node5 -->
<g id="node5" class="node">
<title>Node5</title>
<g id="a_node5"><a xlink:href="_non_copyable_8hpp.html" target="_top" xlink:title="Contains the declaration of the NonCopyable class.">
<polygon fill="white" stroke="black" points="126.5,-56.5 126.5,-75.5 229.5,-75.5 229.5,-56.5 126.5,-56.5"/>
<text text-anchor="middle" x="178" y="-63.5" font-family="Helvetica,sans-Serif" font-size="10.00">NonCopyable.hpp</text>
</a>
</g>
</g>
<!-- Node1&#45;&gt;Node5 -->
<g id="edge4" class="edge">
<title>Node1&#45;&gt;Node5</title>
<path fill="none" stroke="midnightblue" d="M178,-112.4C178,-104.47 178,-94.46 178,-85.86"/>
<polygon fill="midnightblue" stroke="midnightblue" points="181.5,-85.66 178,-75.66 174.5,-85.66 181.5,-85.66"/>
</g>
<!-- Node6 -->
<g id="node6" class="node">
<title>Node6</title>
<g id="a_node6"><a xlink:href="_comparisson_operator_8hpp.html" target="_top" xlink:title="This header introduces the facilities for abstracting the comparisson of objects.">
<polygon fill="white" stroke="black" points="247.5,-56.5 247.5,-75.5 390.5,-75.5 390.5,-56.5 247.5,-56.5"/>
<text text-anchor="middle" x="319" y="-63.5" font-family="Helvetica,sans-Serif" font-size="10.00">ComparissonOperator.hpp</text>
</a>
</g>
</g>
<!-- Node1&#45;&gt;Node6 -->
<g id="edge5" class="edge">
<title>Node1&#45;&gt;Node6</title>
<path fill="none" stroke="midnightblue" d="M211.42,-112.4C234.97,-102.46 266.24,-89.26 288.99,-79.66"/>
<polygon fill="midnightblue" stroke="midnightblue" points="290.63,-82.77 298.48,-75.66 287.91,-76.32 290.63,-82.77"/>
</g>
<!-- Node3 -->
<g id="node3" class="node">
<title>Node3</title>
<g id="a_node3"><a xlink:title=" ">
<polygon fill="white" stroke="#bfbfbf" points="0,-0.5 0,-19.5 44,-19.5 44,-0.5 0,-0.5"/>
<text text-anchor="middle" x="22" y="-7.5" font-family="Helvetica,sans-Serif" font-size="10.00">string</text>
</a>
</g>
</g>
<!-- Node2&#45;&gt;Node3 -->
<g id="edge2" class="edge">
<title>Node2&#45;&gt;Node3</title>
<path fill="none" stroke="midnightblue" d="M50.39,-56.08C45.63,-48.53 38.68,-37.49 32.85,-28.23"/>
<polygon fill="midnightblue" stroke="midnightblue" points="35.8,-26.35 27.51,-19.75 29.88,-30.08 35.8,-26.35"/>
</g>
<!-- Node4 -->
<g id="node4" class="node">
<title>Node4</title>
<g id="a_node4"><a xlink:title=" ">
<polygon fill="white" stroke="#bfbfbf" points="62.5,-0.5 62.5,-19.5 119.5,-19.5 119.5,-0.5 62.5,-0.5"/>
<text text-anchor="middle" x="91" y="-7.5" font-family="Helvetica,sans-Serif" font-size="10.00">ostream</text>
</a>
</g>
</g>
<!-- Node2&#45;&gt;Node4 -->
<g id="edge3" class="edge">
<title>Node2&#45;&gt;Node4</title>
<path fill="none" stroke="midnightblue" d="M61.78,-56.08C66.67,-48.53 73.83,-37.49 79.83,-28.23"/>
<polygon fill="midnightblue" stroke="midnightblue" points="82.83,-30.05 85.33,-19.75 76.95,-26.24 82.83,-30.05"/>
</g>
</g>
</svg>
