<?xml version="1.0" encoding="UTF-8" standalone="no"?>
<!DOCTYPE svg PUBLIC "-//W3C//DTD SVG 1.1//EN"
 "http://www.w3.org/Graphics/SVG/1.1/DTD/svg11.dtd">
<!-- Generated by graphviz version 7.1.0 (20230121.1956)
 -->
<!-- Title: /Users/ladeira/Documents/src/onion/SelectOperator.hpp Pages: 1 -->
<svg width="371pt" height="151pt"
 viewBox="0.00 0.00 370.50 151.00" xmlns="http://www.w3.org/2000/svg" xmlns:xlink="http://www.w3.org/1999/xlink">
<g id="graph0" class="graph" transform="scale(1 1) rotate(0) translate(4 147)">
<title>/Users/ladeira/Documents/src/onion/SelectOperator.hpp</title>
<polygon fill="white" stroke="none" points="-4,4 -4,-147 366.5,-147 366.5,4 -4,4"/>
<!-- Node1 -->
<g id="node1" class="node">
<title>Node1</title>
<g id="a_node1"><a xlink:title="This header introduces the SelectOperator class interface.">
<polygon fill="#bfbfbf" stroke="black" points="93.5,-112.5 93.5,-142.5 239.5,-142.5 239.5,-112.5 93.5,-112.5"/>
<text text-anchor="start" x="101.5" y="-130.5" font-family="Helvetica,sans-Serif" font-size="10.00">/Users/ladeira/Documents</text>
<text text-anchor="middle" x="166.5" y="-119.5" font-family="Helvetica,sans-Serif" font-size="10.00">/src/onion/SelectOperator.hpp</text>
</a>
</g>
</g>
<!-- Node2 -->
<g id="node2" class="node">
<title>Node2</title>
<g id="a_node2"><a xlink:href="_component_i_d_8hpp.html" target="_top" xlink:title="This header contains the classes used to identify a component of the Onion Framework.">
<polygon fill="white" stroke="black" points="4.5,-56.5 4.5,-75.5 100.5,-75.5 100.5,-56.5 4.5,-56.5"/>
<text text-anchor="middle" x="52.5" y="-63.5" font-family="Helvetica,sans-Serif" font-size="10.00">ComponentID.hpp</text>
</a>
</g>
</g>
<!-- Node1&#45;&gt;Node2 -->
<g id="edge1" class="edge">
<title>Node1&#45;&gt;Node2</title>
<path fill="none" stroke="midnightblue" d="M139.77,-112.55C121.29,-102.9 96.82,-90.13 78.5,-80.57"/>
<polygon fill="midnightblue" stroke="midnightblue" points="80.34,-77.58 69.85,-76.06 77.1,-83.79 80.34,-77.58"/>
</g>
<!-- Node5 -->
<g id="node5" class="node">
<title>Node5</title>
<g id="a_node5"><a xlink:href="_non_copyable_8hpp.html" target="_top" xlink:title="Contains the declaration of the NonCopyable class.">
<polygon fill="white" stroke="black" points="119,-56.5 119,-75.5 214,-75.5 214,-56.5 119,-56.5"/>
<text text-anchor="middle" x="166.5" y="-63.5" font-family="Helvetica,sans-Serif" font-size="10.00">NonCopyable.hpp</text>
</a>
</g>
</g>
<!-- Node1&#45;&gt;Node5 -->
<g id="edge4" class="edge">
<title>Node1&#45;&gt;Node5</title>
<path fill="none" stroke="midnightblue" d="M166.5,-112.7C166.5,-105.04 166.5,-95.38 166.5,-86.91"/>
<polygon fill="midnightblue" stroke="midnightblue" points="170,-86.91 166.5,-76.91 163,-86.91 170,-86.91"/>
</g>
<!-- Node6 -->
<g id="node6" class="node">
<title>Node6</title>
<g id="a_node6"><a xlink:href="_comparisson_operator_8hpp.html" target="_top" xlink:title="This header introduces the facilities for abstracting the comparisson of objects.">
<polygon fill="white" stroke="black" points="232.5,-56.5 232.5,-75.5 362.5,-75.5 362.5,-56.5 232.5,-56.5"/>
<text text-anchor="middle" x="297.5" y="-63.5" font-family="Helvetica,sans-Serif" font-size="10.00">ComparissonOperator.hpp</text>
</a>
</g>
</g>
<!-- Node1&#45;&gt;Node6 -->
<g id="edge5" class="edge">
<title>Node1&#45;&gt;Node6</title>
<path fill="none" stroke="midnightblue" d="M197.21,-112.55C218.85,-102.72 247.62,-89.65 268.8,-80.04"/>
<polygon fill="midnightblue" stroke="midnightblue" points="270.07,-83.3 277.73,-75.98 267.17,-76.93 270.07,-83.3"/>
</g>
<!-- Node3 -->
<g id="node3" class="node">
<title>Node3</title>
<g id="a_node3"><a xlink:title=" ">
<polygon fill="white" stroke="#bfbfbf" points="0,-0.5 0,-19.5 41,-19.5 41,-0.5 0,-0.5"/>
<text text-anchor="middle" x="20.5" y="-7.5" font-family="Helvetica,sans-Serif" font-size="10.00">string</text>
</a>
</g>
</g>
<!-- Node2&#45;&gt;Node3 -->
<g id="edge2" class="edge">
<title>Node2&#45;&gt;Node3</title>
<path fill="none" stroke="midnightblue" d="M47.5,-56.56C43.15,-49.23 36.71,-38.35 31.21,-29.07"/>
<polygon fill="midnightblue" stroke="midnightblue" points="34.24,-27.32 26.13,-20.5 28.22,-30.89 34.24,-27.32"/>
</g>
<!-- Node4 -->
<g id="node4" class="node">
<title>Node4</title>
<g id="a_node4"><a xlink:title=" ">
<polygon fill="white" stroke="#bfbfbf" points="59.5,-0.5 59.5,-19.5 111.5,-19.5 111.5,-0.5 59.5,-0.5"/>
<text text-anchor="middle" x="85.5" y="-7.5" font-family="Helvetica,sans-Serif" font-size="10.00">ostream</text>
</a>
</g>
</g>
<!-- Node2&#45;&gt;Node4 -->
<g id="edge3" class="edge">
<title>Node2&#45;&gt;Node4</title>
<path fill="none" stroke="midnightblue" d="M57.66,-56.56C62.19,-49.15 68.93,-38.12 74.64,-28.76"/>
<polygon fill="midnightblue" stroke="midnightblue" points="77.47,-30.85 79.7,-20.49 71.5,-27.2 77.47,-30.85"/>
</g>
</g>
</svg>
