<?xml version="1.0" encoding="UTF-8" standalone="no"?>
<!DOCTYPE svg PUBLIC "-//W3C//DTD SVG 1.1//EN"
 "http://www.w3.org/Graphics/SVG/1.1/DTD/svg11.dtd">
<!-- Generated by graphviz version 7.1.0 (20230121.1956)
 -->
<!-- Title: onion::SelectOperator&lt; objective_value_t, objective_function_result_t, compare &gt; Pages: 1 -->
<svg width="238pt" height="117pt"
 viewBox="0.00 0.00 238.00 117.00" xmlns="http://www.w3.org/2000/svg" xmlns:xlink="http://www.w3.org/1999/xlink">
<g id="graph0" class="graph" transform="scale(1 1) rotate(0) translate(4 113)">
<title>onion::SelectOperator&lt; objective_value_t, objective_function_result_t, compare &gt;</title>
<polygon fill="white" stroke="none" points="-4,4 -4,-113 234,-113 234,4 -4,4"/>
<!-- Node1 -->
<g id="node1" class="node">
<title>Node1</title>
<g id="a_node1"><a xlink:title="Defines the interface of SelectOperator components.">
<polygon fill="#bfbfbf" stroke="black" points="50.5,-0.5 50.5,-52.5 178.5,-52.5 178.5,-0.5 50.5,-0.5"/>
<text text-anchor="start" x="58.5" y="-40.5" font-family="Helvetica,sans-Serif" font-size="10.00">onion::SelectOperator</text>
<text text-anchor="start" x="58.5" y="-29.5" font-family="Helvetica,sans-Serif" font-size="10.00">&lt; objective_value_t,</text>
<text text-anchor="start" x="58.5" y="-18.5" font-family="Helvetica,sans-Serif" font-size="10.00"> objective_function_result</text>
<text text-anchor="middle" x="114.5" y="-7.5" font-family="Helvetica,sans-Serif" font-size="10.00">_t, compare &gt;</text>
</a>
</g>
</g>
<!-- Node2 -->
<g id="node2" class="node">
<title>Node2</title>
<g id="a_node2"><a xlink:href="classonion_1_1_non_copyable.html" target="_top" xlink:title="Class to make other classes non&#45;copyable.">
<polygon fill="white" stroke="black" points="0,-89.5 0,-108.5 105,-108.5 105,-89.5 0,-89.5"/>
<text text-anchor="middle" x="52.5" y="-96.5" font-family="Helvetica,sans-Serif" font-size="10.00">onion::NonCopyable</text>
</a>
</g>
</g>
<!-- Node2&#45;&gt;Node1 -->
<g id="edge1" class="edge">
<title>Node2&#45;&gt;Node1</title>
<path fill="none" stroke="midnightblue" d="M67.46,-80.99C74.97,-72.45 84.22,-61.94 92.52,-52.5"/>
<polygon fill="midnightblue" stroke="midnightblue" points="64.83,-78.68 60.86,-88.5 70.09,-83.3 64.83,-78.68"/>
</g>
<!-- Node3 -->
<g id="node3" class="node">
<title>Node3</title>
<g id="a_node3"><a xlink:href="classonion_1_1_component_i_d.html" target="_top" xlink:title="Base class used to identify concrete implementations of the Onion basic components.">
<polygon fill="white" stroke="black" points="123,-89.5 123,-108.5 230,-108.5 230,-89.5 123,-89.5"/>
<text text-anchor="middle" x="176.5" y="-96.5" font-family="Helvetica,sans-Serif" font-size="10.00">onion::ComponentID</text>
</a>
</g>
</g>
<!-- Node3&#45;&gt;Node1 -->
<g id="edge2" class="edge">
<title>Node3&#45;&gt;Node1</title>
<path fill="none" stroke="midnightblue" d="M161.54,-80.99C154.03,-72.45 144.78,-61.94 136.48,-52.5"/>
<polygon fill="midnightblue" stroke="midnightblue" points="158.91,-83.3 168.14,-88.5 164.17,-78.68 158.91,-83.3"/>
</g>
</g>
</svg>
