<?xml version="1.0" encoding="UTF-8" standalone="no"?>
<!DOCTYPE svg PUBLIC "-//W3C//DTD SVG 1.1//EN"
 "http://www.w3.org/Graphics/SVG/1.1/DTD/svg11.dtd">
<!-- Generated by graphviz version 7.1.0 (20230121.1956)
 -->
<!-- Title: onion::NonCopyable Pages: 1 -->
<svg width="477pt" height="368pt"
 viewBox="0.00 0.00 477.00 368.00" xmlns="http://www.w3.org/2000/svg" xmlns:xlink="http://www.w3.org/1999/xlink">
<g id="graph0" class="graph" transform="scale(1 1) rotate(0) translate(4 364)">
<title>onion::NonCopyable</title>
<polygon fill="white" stroke="none" points="-4,4 -4,-364 473,-364 473,4 -4,4"/>
<!-- Node1 -->
<g id="node1" class="node">
<title>Node1</title>
<g id="a_node1"><a xlink:title="Class to make other classes non&#45;copyable.">
<polygon fill="#bfbfbf" stroke="black" points="0,-176 0,-195 105,-195 105,-176 0,-176"/>
<text text-anchor="middle" x="52.5" y="-183" font-family="Helvetica,sans-Serif" font-size="10.00">onion::NonCopyable</text>
</a>
</g>
</g>
<!-- Node2 -->
<g id="node2" class="node">
<title>Node2</title>
<g id="a_node2"><a xlink:href="classonion_1_1_create_operator.html" target="_top" xlink:title=" ">
<polygon fill="white" stroke="black" points="146.5,-329.5 146.5,-359.5 273.5,-359.5 273.5,-329.5 146.5,-329.5"/>
<text text-anchor="start" x="154.5" y="-347.5" font-family="Helvetica,sans-Serif" font-size="10.00">onion::CreateOperator</text>
<text text-anchor="middle" x="210" y="-336.5" font-family="Helvetica,sans-Serif" font-size="10.00">&lt; path_t&lt; num_cities &gt; &gt;</text>
</a>
</g>
</g>
<!-- Node1&#45;&gt;Node2 -->
<g id="edge1" class="edge">
<title>Node1&#45;&gt;Node2</title>
<path fill="none" stroke="midnightblue" d="M61.4,-205.39C73.98,-234.65 101.29,-289.2 141,-320.5 145.42,-323.99 150.39,-326.99 155.58,-329.57"/>
<polygon fill="midnightblue" stroke="midnightblue" points="64.68,-204.16 57.62,-196.26 58.21,-206.84 64.68,-204.16"/>
</g>
<!-- Node4 -->
<g id="node4" class="node">
<title>Node4</title>
<g id="a_node4"><a xlink:href="classonion_1_1_create_operator.html" target="_top" xlink:title="Abstract Data Type that defines the CreateOperator component.">
<polygon fill="white" stroke="black" points="153.5,-280.5 153.5,-310.5 266.5,-310.5 266.5,-280.5 153.5,-280.5"/>
<text text-anchor="start" x="161.5" y="-298.5" font-family="Helvetica,sans-Serif" font-size="10.00">onion::CreateOperator</text>
<text text-anchor="middle" x="210" y="-287.5" font-family="Helvetica,sans-Serif" font-size="10.00">&lt; solution_t &gt;</text>
</a>
</g>
</g>
<!-- Node1&#45;&gt;Node4 -->
<g id="edge3" class="edge">
<title>Node1&#45;&gt;Node4</title>
<path fill="none" stroke="midnightblue" d="M68.29,-203.85C84.42,-222.81 111.84,-252.16 141,-270.5 147.07,-274.32 153.81,-277.68 160.61,-280.59"/>
<polygon fill="midnightblue" stroke="midnightblue" points="70.98,-201.61 61.9,-196.15 65.6,-206.08 70.98,-201.61"/>
</g>
<!-- Node5 -->
<g id="node5" class="node">
<title>Node5</title>
<g id="a_node5"><a xlink:href="classonion_1_1_objective_function.html" target="_top" xlink:title="Abstract Data Type that defines the ObjectiveFuntion component.">
<polygon fill="white" stroke="black" points="147.5,-220 147.5,-261 272.5,-261 272.5,-220 147.5,-220"/>
<text text-anchor="start" x="155.5" y="-249" font-family="Helvetica,sans-Serif" font-size="10.00">onion::ObjectiveFunction</text>
<text text-anchor="start" x="155.5" y="-238" font-family="Helvetica,sans-Serif" font-size="10.00">&lt; solution_t, objective</text>
<text text-anchor="middle" x="210" y="-227" font-family="Helvetica,sans-Serif" font-size="10.00">_value_t &gt;</text>
</a>
</g>
</g>
<!-- Node1&#45;&gt;Node5 -->
<g id="edge4" class="edge">
<title>Node1&#45;&gt;Node5</title>
<path fill="none" stroke="midnightblue" d="M90.88,-198.72C108.91,-205.1 130.94,-212.89 151.07,-220.01"/>
<polygon fill="midnightblue" stroke="midnightblue" points="92.25,-195.49 81.66,-195.46 89.92,-202.09 92.25,-195.49"/>
</g>
<!-- Node6 -->
<g id="node6" class="node">
<title>Node6</title>
<g id="a_node6"><a xlink:href="classonion_1_1_parameter_operator.html" target="_top" xlink:title="Abstract Data Type that defines the ParameterOperator component.">
<polygon fill="white" stroke="black" points="143,-170.5 143,-200.5 277,-200.5 277,-170.5 143,-170.5"/>
<text text-anchor="start" x="151" y="-188.5" font-family="Helvetica,sans-Serif" font-size="10.00">onion::ParameterOperator</text>
<text text-anchor="middle" x="210" y="-177.5" font-family="Helvetica,sans-Serif" font-size="10.00">&lt; solution_t, parameter_t &gt;</text>
</a>
</g>
</g>
<!-- Node1&#45;&gt;Node6 -->
<g id="edge5" class="edge">
<title>Node1&#45;&gt;Node6</title>
<path fill="none" stroke="midnightblue" d="M116.24,-185.5C125.06,-185.5 134.14,-185.5 143.01,-185.5"/>
<polygon fill="midnightblue" stroke="midnightblue" points="116.36,-182 106.36,-185.5 116.36,-189 116.36,-182"/>
</g>
<!-- Node7 -->
<g id="node7" class="node">
<title>Node7</title>
<g id="a_node7"><a xlink:href="classonion_1_1_perturbation_operator.html" target="_top" xlink:title="Abstract Data Type that defines the Perturbation Operator.">
<polygon fill="white" stroke="black" points="142,-110 142,-151 278,-151 278,-110 142,-110"/>
<text text-anchor="start" x="150" y="-139" font-family="Helvetica,sans-Serif" font-size="10.00">onion::PerturbationOperator</text>
<text text-anchor="start" x="150" y="-128" font-family="Helvetica,sans-Serif" font-size="10.00">&lt; solution_t, perturbation</text>
<text text-anchor="middle" x="210" y="-117" font-family="Helvetica,sans-Serif" font-size="10.00">_result_t &gt;</text>
</a>
</g>
</g>
<!-- Node1&#45;&gt;Node7 -->
<g id="edge6" class="edge">
<title>Node1&#45;&gt;Node7</title>
<path fill="none" stroke="midnightblue" d="M90.88,-172.28C108.91,-165.9 130.94,-158.11 151.07,-150.99"/>
<polygon fill="midnightblue" stroke="midnightblue" points="89.92,-168.91 81.66,-175.54 92.25,-175.51 89.92,-168.91"/>
</g>
<!-- Node8 -->
<g id="node8" class="node">
<title>Node8</title>
<g id="a_node8"><a xlink:href="classonion_1_1_random_engine_proxy.html" target="_top" xlink:title="Creates and control the access to the global RandonEngine object.">
<polygon fill="white" stroke="black" points="141,-72 141,-91 279,-91 279,-72 141,-72"/>
<text text-anchor="middle" x="210" y="-79" font-family="Helvetica,sans-Serif" font-size="10.00">onion::RandomEngineProxy</text>
</a>
</g>
</g>
<!-- Node1&#45;&gt;Node8 -->
<g id="edge7" class="edge">
<title>Node1&#45;&gt;Node8</title>
<path fill="none" stroke="midnightblue" d="M67.54,-167.25C83.36,-147.92 110.84,-117.84 141,-100.5 147.8,-96.59 155.45,-93.45 163.1,-90.93"/>
<polygon fill="midnightblue" stroke="midnightblue" points="64.99,-164.83 61.5,-174.83 70.47,-169.19 64.99,-164.83"/>
</g>
<!-- Node9 -->
<g id="node9" class="node">
<title>Node9</title>
<g id="a_node9"><a xlink:href="classonion_1_1_select_operator.html" target="_top" xlink:title="Defines the interface of SelectOperator components.">
<polygon fill="white" stroke="black" points="146,-0.5 146,-52.5 274,-52.5 274,-0.5 146,-0.5"/>
<text text-anchor="start" x="154" y="-40.5" font-family="Helvetica,sans-Serif" font-size="10.00">onion::SelectOperator</text>
<text text-anchor="start" x="154" y="-29.5" font-family="Helvetica,sans-Serif" font-size="10.00">&lt; objective_value_t,</text>
<text text-anchor="start" x="154" y="-18.5" font-family="Helvetica,sans-Serif" font-size="10.00"> objective_function_result</text>
<text text-anchor="middle" x="210" y="-7.5" font-family="Helvetica,sans-Serif" font-size="10.00">_t, compare &gt;</text>
</a>
</g>
</g>
<!-- Node1&#45;&gt;Node9 -->
<g id="edge8" class="edge">
<title>Node1&#45;&gt;Node9</title>
<path fill="none" stroke="midnightblue" d="M63.45,-166.21C77.72,-140.04 106.17,-93.03 141,-62.5 145.12,-58.89 149.66,-55.51 154.39,-52.39"/>
<polygon fill="midnightblue" stroke="midnightblue" points="60.54,-164.24 58.93,-174.71 66.72,-167.52 60.54,-164.24"/>
</g>
<!-- Node3 -->
<g id="node3" class="node">
<title>Node3</title>
<g id="a_node3"><a xlink:href="classonion_1_1cops_1_1tsp_1_1array_1_1_create_random.html" target="_top" xlink:title=" ">
<polygon fill="white" stroke="black" points="315,-329.5 315,-359.5 469,-359.5 469,-329.5 315,-329.5"/>
<text text-anchor="start" x="323" y="-347.5" font-family="Helvetica,sans-Serif" font-size="10.00">onion::cops::tsp::array</text>
<text text-anchor="middle" x="392" y="-336.5" font-family="Helvetica,sans-Serif" font-size="10.00">::CreateRandom&lt; num_cities &gt;</text>
</a>
</g>
</g>
<!-- Node2&#45;&gt;Node3 -->
<g id="edge2" class="edge">
<title>Node2&#45;&gt;Node3</title>
<path fill="none" stroke="midnightblue" d="M284.94,-344.5C294.86,-344.5 305.05,-344.5 315.01,-344.5"/>
<polygon fill="midnightblue" stroke="midnightblue" points="284.96,-341 274.96,-344.5 284.96,-348 284.96,-341"/>
</g>
</g>
</svg>
