<?xml version="1.0" encoding="UTF-8" standalone="no"?>
<!DOCTYPE svg PUBLIC "-//W3C//DTD SVG 1.1//EN"
 "http://www.w3.org/Graphics/SVG/1.1/DTD/svg11.dtd">
<!-- Generated by graphviz version 7.1.0 (20230121.1956)
 -->
<!-- Title: onion::ComponentID Pages: 1 -->
<svg width="477pt" height="330pt"
 viewBox="0.00 0.00 477.00 330.00" xmlns="http://www.w3.org/2000/svg" xmlns:xlink="http://www.w3.org/1999/xlink">
<g id="graph0" class="graph" transform="scale(1 1) rotate(0) translate(4 326)">
<title>onion::ComponentID</title>
<polygon fill="white" stroke="none" points="-4,4 -4,-326 473,-326 473,4 -4,4"/>
<!-- Node1 -->
<g id="node1" class="node">
<title>Node1</title>
<g id="a_node1"><a xlink:title="Base class used to identify concrete implementations of the Onion basic components.">
<polygon fill="#bfbfbf" stroke="black" points="0,-165 0,-184 107,-184 107,-165 0,-165"/>
<text text-anchor="middle" x="53.5" y="-172" font-family="Helvetica,sans-Serif" font-size="10.00">onion::ComponentID</text>
</a>
</g>
</g>
<!-- Node2 -->
<g id="node2" class="node">
<title>Node2</title>
<g id="a_node2"><a xlink:href="classonion_1_1_create_operator.html" target="_top" xlink:title=" ">
<polygon fill="white" stroke="black" points="147.5,-291.5 147.5,-321.5 274.5,-321.5 274.5,-291.5 147.5,-291.5"/>
<text text-anchor="start" x="155.5" y="-309.5" font-family="Helvetica,sans-Serif" font-size="10.00">onion::CreateOperator</text>
<text text-anchor="middle" x="211" y="-298.5" font-family="Helvetica,sans-Serif" font-size="10.00">&lt; path_t&lt; num_cities &gt; &gt;</text>
</a>
</g>
</g>
<!-- Node1&#45;&gt;Node2 -->
<g id="edge1" class="edge">
<title>Node1&#45;&gt;Node2</title>
<path fill="none" stroke="midnightblue" d="M65.46,-193.39C80.22,-217.3 108.64,-258.27 143,-282.5 147.95,-285.99 153.46,-289.02 159.13,-291.64"/>
<polygon fill="midnightblue" stroke="midnightblue" points="68.59,-191.81 60.44,-185.03 62.58,-195.41 68.59,-191.81"/>
</g>
<!-- Node4 -->
<g id="node4" class="node">
<title>Node4</title>
<g id="a_node4"><a xlink:href="classonion_1_1_create_operator.html" target="_top" xlink:title="Abstract Data Type that defines the CreateOperator component.">
<polygon fill="white" stroke="black" points="154.5,-242.5 154.5,-272.5 267.5,-272.5 267.5,-242.5 154.5,-242.5"/>
<text text-anchor="start" x="162.5" y="-260.5" font-family="Helvetica,sans-Serif" font-size="10.00">onion::CreateOperator</text>
<text text-anchor="middle" x="211" y="-249.5" font-family="Helvetica,sans-Serif" font-size="10.00">&lt; solution_t &gt;</text>
</a>
</g>
</g>
<!-- Node1&#45;&gt;Node4 -->
<g id="edge3" class="edge">
<title>Node1&#45;&gt;Node4</title>
<path fill="none" stroke="midnightblue" d="M76.12,-190.64C93.55,-203.16 119.02,-220.36 143,-232.5 150.2,-236.14 158.06,-239.55 165.79,-242.6"/>
<polygon fill="midnightblue" stroke="midnightblue" points="78.22,-187.84 68.08,-184.78 74.1,-193.5 78.22,-187.84"/>
</g>
<!-- Node5 -->
<g id="node5" class="node">
<title>Node5</title>
<g id="a_node5"><a xlink:href="classonion_1_1_objective_function.html" target="_top" xlink:title="Abstract Data Type that defines the ObjectiveFuntion component.">
<polygon fill="white" stroke="black" points="148.5,-182 148.5,-223 273.5,-223 273.5,-182 148.5,-182"/>
<text text-anchor="start" x="156.5" y="-211" font-family="Helvetica,sans-Serif" font-size="10.00">onion::ObjectiveFunction</text>
<text text-anchor="start" x="156.5" y="-200" font-family="Helvetica,sans-Serif" font-size="10.00">&lt; solution_t, objective</text>
<text text-anchor="middle" x="211" y="-189" font-family="Helvetica,sans-Serif" font-size="10.00">_value_t &gt;</text>
</a>
</g>
</g>
<!-- Node1&#45;&gt;Node5 -->
<g id="edge4" class="edge">
<title>Node1&#45;&gt;Node5</title>
<path fill="none" stroke="midnightblue" d="M117.93,-185.92C128.03,-187.74 138.46,-189.62 148.51,-191.43"/>
<polygon fill="midnightblue" stroke="midnightblue" points="118.66,-182.5 108.2,-184.17 117.42,-189.39 118.66,-182.5"/>
</g>
<!-- Node6 -->
<g id="node6" class="node">
<title>Node6</title>
<g id="a_node6"><a xlink:href="classonion_1_1_parameter_operator.html" target="_top" xlink:title="Abstract Data Type that defines the ParameterOperator component.">
<polygon fill="white" stroke="black" points="144,-132.5 144,-162.5 278,-162.5 278,-132.5 144,-132.5"/>
<text text-anchor="start" x="152" y="-150.5" font-family="Helvetica,sans-Serif" font-size="10.00">onion::ParameterOperator</text>
<text text-anchor="middle" x="211" y="-139.5" font-family="Helvetica,sans-Serif" font-size="10.00">&lt; solution_t, parameter_t &gt;</text>
</a>
</g>
</g>
<!-- Node1&#45;&gt;Node6 -->
<g id="edge5" class="edge">
<title>Node1&#45;&gt;Node6</title>
<path fill="none" stroke="midnightblue" d="M117.9,-163.49C126.54,-161.99 135.43,-160.45 144.12,-158.94"/>
<polygon fill="midnightblue" stroke="midnightblue" points="117.46,-160.02 108.2,-165.18 118.65,-166.91 117.46,-160.02"/>
</g>
<!-- Node7 -->
<g id="node7" class="node">
<title>Node7</title>
<g id="a_node7"><a xlink:href="classonion_1_1_perturbation_operator.html" target="_top" xlink:title="Abstract Data Type that defines the Perturbation Operator.">
<polygon fill="white" stroke="black" points="143,-72 143,-113 279,-113 279,-72 143,-72"/>
<text text-anchor="start" x="151" y="-101" font-family="Helvetica,sans-Serif" font-size="10.00">onion::PerturbationOperator</text>
<text text-anchor="start" x="151" y="-90" font-family="Helvetica,sans-Serif" font-size="10.00">&lt; solution_t, perturbation</text>
<text text-anchor="middle" x="211" y="-79" font-family="Helvetica,sans-Serif" font-size="10.00">_result_t &gt;</text>
</a>
</g>
</g>
<!-- Node1&#45;&gt;Node7 -->
<g id="edge6" class="edge">
<title>Node1&#45;&gt;Node7</title>
<path fill="none" stroke="midnightblue" d="M79.43,-159.33C96.99,-148.85 121.15,-134.82 143,-123.5 149.83,-119.96 157.14,-116.38 164.32,-112.97"/>
<polygon fill="midnightblue" stroke="midnightblue" points="78,-156.11 71.23,-164.26 81.6,-162.11 78,-156.11"/>
</g>
<!-- Node8 -->
<g id="node8" class="node">
<title>Node8</title>
<g id="a_node8"><a xlink:href="classonion_1_1_select_operator.html" target="_top" xlink:title="Defines the interface of SelectOperator components.">
<polygon fill="white" stroke="black" points="147,-0.5 147,-52.5 275,-52.5 275,-0.5 147,-0.5"/>
<text text-anchor="start" x="155" y="-40.5" font-family="Helvetica,sans-Serif" font-size="10.00">onion::SelectOperator</text>
<text text-anchor="start" x="155" y="-29.5" font-family="Helvetica,sans-Serif" font-size="10.00">&lt; objective_value_t,</text>
<text text-anchor="start" x="155" y="-18.5" font-family="Helvetica,sans-Serif" font-size="10.00"> objective_function_result</text>
<text text-anchor="middle" x="211" y="-7.5" font-family="Helvetica,sans-Serif" font-size="10.00">_t, compare &gt;</text>
</a>
</g>
</g>
<!-- Node1&#45;&gt;Node8 -->
<g id="edge7" class="edge">
<title>Node1&#45;&gt;Node8</title>
<path fill="none" stroke="midnightblue" d="M66.13,-155.32C81.42,-131.3 110.22,-89.97 143,-62.5 147.25,-58.94 151.91,-55.58 156.73,-52.44"/>
<polygon fill="midnightblue" stroke="midnightblue" points="63.2,-153.4 60.89,-163.74 69.14,-157.1 63.2,-153.4"/>
</g>
<!-- Node3 -->
<g id="node3" class="node">
<title>Node3</title>
<g id="a_node3"><a xlink:href="classonion_1_1cops_1_1tsp_1_1array_1_1_create_random.html" target="_top" xlink:title=" ">
<polygon fill="white" stroke="black" points="315,-291.5 315,-321.5 469,-321.5 469,-291.5 315,-291.5"/>
<text text-anchor="start" x="323" y="-309.5" font-family="Helvetica,sans-Serif" font-size="10.00">onion::cops::tsp::array</text>
<text text-anchor="middle" x="392" y="-298.5" font-family="Helvetica,sans-Serif" font-size="10.00">::CreateRandom&lt; num_cities &gt;</text>
</a>
</g>
</g>
<!-- Node2&#45;&gt;Node3 -->
<g id="edge2" class="edge">
<title>Node2&#45;&gt;Node3</title>
<path fill="none" stroke="midnightblue" d="M285.68,-306.5C295.46,-306.5 305.5,-306.5 315.31,-306.5"/>
<polygon fill="midnightblue" stroke="midnightblue" points="285.87,-303 275.87,-306.5 285.87,-310 285.87,-303"/>
</g>
</g>
</svg>
