<?xml version="1.0" encoding="UTF-8" standalone="no"?>
<!DOCTYPE svg PUBLIC "-//W3C//DTD SVG 1.1//EN"
 "http://www.w3.org/Graphics/SVG/1.1/DTD/svg11.dtd">
<!-- Generated by graphviz version 2.43.0 (0)
 -->
<!-- Title: onion::CreateOperator&lt; solution_t &gt; Pages: 1 -->
<svg width="258pt" height="95pt"
 viewBox="0.00 0.00 257.50 95.00" xmlns="http://www.w3.org/2000/svg" xmlns:xlink="http://www.w3.org/1999/xlink">
<g id="graph0" class="graph" transform="scale(1 1) rotate(0) translate(4 91)">
<title>onion::CreateOperator&lt; solution_t &gt;</title>
<polygon fill="white" stroke="transparent" points="-4,4 -4,-91 253.5,-91 253.5,4 -4,4"/>
<!-- Node1 -->
<g id="node1" class="node">
<title>Node1</title>
<g id="a_node1"><a xlink:title="Abstract Data Type that defines the CreateOperator component.">
<polygon fill="#bfbfbf" stroke="black" points="62,-0.5 62,-30.5 187,-30.5 187,-0.5 62,-0.5"/>
<text text-anchor="start" x="70" y="-18.5" font-family="Helvetica,sans-Serif" font-size="10.00">onion::CreateOperator</text>
<text text-anchor="middle" x="124.5" y="-7.5" font-family="Helvetica,sans-Serif" font-size="10.00">&lt; solution_t &gt;</text>
</a>
</g>
</g>
<!-- Node2 -->
<g id="node2" class="node">
<title>Node2</title>
<g id="a_node2"><a xlink:href="classonion_1_1_non_copyable.html" target="_top" xlink:title="Class to make other classes non&#45;copyable.">
<polygon fill="white" stroke="black" points="0,-67.5 0,-86.5 115,-86.5 115,-67.5 0,-67.5"/>
<text text-anchor="middle" x="57.5" y="-74.5" font-family="Helvetica,sans-Serif" font-size="10.00">onion::NonCopyable</text>
</a>
</g>
</g>
<!-- Node2&#45;&gt;Node1 -->
<g id="edge1" class="edge">
<title>Node2&#45;&gt;Node1</title>
<path fill="none" stroke="midnightblue" d="M74.79,-60.65C85.26,-51.35 98.52,-39.57 108.71,-30.52"/>
<polygon fill="midnightblue" stroke="midnightblue" points="72.25,-58.22 67.1,-67.48 76.9,-63.45 72.25,-58.22"/>
</g>
<!-- Node3 -->
<g id="node3" class="node">
<title>Node3</title>
<g id="a_node3"><a xlink:href="classonion_1_1_component_i_d.html" target="_top" xlink:title="Base class used to provide identification functionalities to concrete implementations of the Onion co...">
<polygon fill="white" stroke="black" points="133.5,-67.5 133.5,-86.5 249.5,-86.5 249.5,-67.5 133.5,-67.5"/>
<text text-anchor="middle" x="191.5" y="-74.5" font-family="Helvetica,sans-Serif" font-size="10.00">onion::ComponentID</text>
</a>
</g>
</g>
<!-- Node3&#45;&gt;Node1 -->
<g id="edge2" class="edge">
<title>Node3&#45;&gt;Node1</title>
<path fill="none" stroke="midnightblue" d="M174.21,-60.65C163.74,-51.35 150.48,-39.57 140.29,-30.52"/>
<polygon fill="midnightblue" stroke="midnightblue" points="172.1,-63.45 181.9,-67.48 176.75,-58.22 172.1,-63.45"/>
</g>
</g>
</svg>
