<?xml version="1.0" encoding="UTF-8" standalone="no"?>
<!DOCTYPE svg PUBLIC "-//W3C//DTD SVG 1.1//EN"
 "http://www.w3.org/Graphics/SVG/1.1/DTD/svg11.dtd">
<!-- Generated by graphviz version 2.43.0 (0)
 -->
<!-- Title: onion::cops::tsp::array::CreateRandom&lt; num_cities &gt; Pages: 1 -->
<svg width="258pt" height="162pt"
 viewBox="0.00 0.00 257.50 162.00" xmlns="http://www.w3.org/2000/svg" xmlns:xlink="http://www.w3.org/1999/xlink">
<g id="graph0" class="graph" transform="scale(1 1) rotate(0) translate(4 158)">
<title>onion::cops::tsp::array::CreateRandom&lt; num_cities &gt;</title>
<polygon fill="white" stroke="transparent" points="-4,4 -4,-158 253.5,-158 253.5,4 -4,4"/>
<!-- Node1 -->
<g id="node1" class="node">
<title>Node1</title>
<g id="a_node1"><a xlink:title=" ">
<polygon fill="#bfbfbf" stroke="black" points="39,-0.5 39,-30.5 210,-30.5 210,-0.5 39,-0.5"/>
<text text-anchor="start" x="47" y="-18.5" font-family="Helvetica,sans-Serif" font-size="10.00">onion::cops::tsp::array</text>
<text text-anchor="middle" x="124.5" y="-7.5" font-family="Helvetica,sans-Serif" font-size="10.00">::CreateRandom&lt; num_cities &gt;</text>
</a>
</g>
</g>
<!-- Node2 -->
<g id="node2" class="node">
<title>Node2</title>
<g id="a_node2"><a xlink:href="classonion_1_1_create_operator.html" target="_top" xlink:title=" ">
<polygon fill="white" stroke="black" points="51.5,-67.5 51.5,-97.5 197.5,-97.5 197.5,-67.5 51.5,-67.5"/>
<text text-anchor="start" x="59.5" y="-85.5" font-family="Helvetica,sans-Serif" font-size="10.00">onion::CreateOperator</text>
<text text-anchor="middle" x="124.5" y="-74.5" font-family="Helvetica,sans-Serif" font-size="10.00">&lt; path_t&lt; num_cities &gt; &gt;</text>
</a>
</g>
</g>
<!-- Node2&#45;&gt;Node1 -->
<g id="edge1" class="edge">
<title>Node2&#45;&gt;Node1</title>
<path fill="none" stroke="midnightblue" d="M124.5,-57.11C124.5,-48.15 124.5,-38.32 124.5,-30.58"/>
<polygon fill="midnightblue" stroke="midnightblue" points="121,-57.4 124.5,-67.4 128,-57.4 121,-57.4"/>
</g>
<!-- Node3 -->
<g id="node3" class="node">
<title>Node3</title>
<g id="a_node3"><a xlink:href="classonion_1_1_non_copyable.html" target="_top" xlink:title="Class to make other classes non&#45;copyable.">
<polygon fill="white" stroke="black" points="0,-134.5 0,-153.5 115,-153.5 115,-134.5 0,-134.5"/>
<text text-anchor="middle" x="57.5" y="-141.5" font-family="Helvetica,sans-Serif" font-size="10.00">onion::NonCopyable</text>
</a>
</g>
</g>
<!-- Node3&#45;&gt;Node2 -->
<g id="edge2" class="edge">
<title>Node3&#45;&gt;Node2</title>
<path fill="none" stroke="midnightblue" d="M74.79,-127.65C85.26,-118.35 98.52,-106.57 108.71,-97.52"/>
<polygon fill="midnightblue" stroke="midnightblue" points="72.25,-125.22 67.1,-134.48 76.9,-130.45 72.25,-125.22"/>
</g>
<!-- Node4 -->
<g id="node4" class="node">
<title>Node4</title>
<g id="a_node4"><a xlink:href="classonion_1_1_component_i_d.html" target="_top" xlink:title="Base class used to identify concrete implementations of the Onion basic components.">
<polygon fill="white" stroke="black" points="133.5,-134.5 133.5,-153.5 249.5,-153.5 249.5,-134.5 133.5,-134.5"/>
<text text-anchor="middle" x="191.5" y="-141.5" font-family="Helvetica,sans-Serif" font-size="10.00">onion::ComponentID</text>
</a>
</g>
</g>
<!-- Node4&#45;&gt;Node2 -->
<g id="edge3" class="edge">
<title>Node4&#45;&gt;Node2</title>
<path fill="none" stroke="midnightblue" d="M174.21,-127.65C163.74,-118.35 150.48,-106.57 140.29,-97.52"/>
<polygon fill="midnightblue" stroke="midnightblue" points="172.1,-130.45 181.9,-134.48 176.75,-125.22 172.1,-130.45"/>
</g>
</g>
</svg>
