<?xml version="1.0" encoding="UTF-8" standalone="no"?>
<!DOCTYPE svg PUBLIC "-//W3C//DTD SVG 1.1//EN"
 "http://www.w3.org/Graphics/SVG/1.1/DTD/svg11.dtd">
<!-- Generated by graphviz version 7.1.0 (20230121.1956)
 -->
<!-- Title: onion::cops::tsp::array::CreateRandom&lt; num_cities &gt; Pages: 1 -->
<svg width="238pt" height="162pt"
 viewBox="0.00 0.00 238.00 162.00" xmlns="http://www.w3.org/2000/svg" xmlns:xlink="http://www.w3.org/1999/xlink">
<g id="graph0" class="graph" transform="scale(1 1) rotate(0) translate(4 158)">
<title>onion::cops::tsp::array::CreateRandom&lt; num_cities &gt;</title>
<polygon fill="white" stroke="none" points="-4,4 -4,-158 234,-158 234,4 -4,4"/>
<!-- Node1 -->
<g id="node1" class="node">
<title>Node1</title>
<g id="a_node1"><a xlink:title=" ">
<polygon fill="#bfbfbf" stroke="black" points="37.5,-0.5 37.5,-30.5 191.5,-30.5 191.5,-0.5 37.5,-0.5"/>
<text text-anchor="start" x="45.5" y="-18.5" font-family="Helvetica,sans-Serif" font-size="10.00">onion::cops::tsp::array</text>
<text text-anchor="middle" x="114.5" y="-7.5" font-family="Helvetica,sans-Serif" font-size="10.00">::CreateRandom&lt; num_cities &gt;</text>
</a>
</g>
</g>
<!-- Node2 -->
<g id="node2" class="node">
<title>Node2</title>
<g id="a_node2"><a xlink:href="classonion_1_1_create_operator.html" target="_top" xlink:title=" ">
<polygon fill="white" stroke="black" points="51,-67.5 51,-97.5 178,-97.5 178,-67.5 51,-67.5"/>
<text text-anchor="start" x="59" y="-85.5" font-family="Helvetica,sans-Serif" font-size="10.00">onion::CreateOperator</text>
<text text-anchor="middle" x="114.5" y="-74.5" font-family="Helvetica,sans-Serif" font-size="10.00">&lt; path_t&lt; num_cities &gt; &gt;</text>
</a>
</g>
</g>
<!-- Node2&#45;&gt;Node1 -->
<g id="edge1" class="edge">
<title>Node2&#45;&gt;Node1</title>
<path fill="none" stroke="midnightblue" d="M114.5,-56.36C114.5,-47.49 114.5,-37.84 114.5,-30.26"/>
<polygon fill="midnightblue" stroke="midnightblue" points="111,-56.2 114.5,-66.2 118,-56.2 111,-56.2"/>
</g>
<!-- Node3 -->
<g id="node3" class="node">
<title>Node3</title>
<g id="a_node3"><a xlink:href="classonion_1_1_non_copyable.html" target="_top" xlink:title="Class to make other classes non&#45;copyable.">
<polygon fill="white" stroke="black" points="0,-134.5 0,-153.5 105,-153.5 105,-134.5 0,-134.5"/>
<text text-anchor="middle" x="52.5" y="-141.5" font-family="Helvetica,sans-Serif" font-size="10.00">onion::NonCopyable</text>
</a>
</g>
</g>
<!-- Node3&#45;&gt;Node2 -->
<g id="edge2" class="edge">
<title>Node3&#45;&gt;Node2</title>
<path fill="none" stroke="midnightblue" d="M69.2,-126.97C78.9,-117.66 90.99,-106.06 100.24,-97.19"/>
<polygon fill="midnightblue" stroke="midnightblue" points="67,-124.23 62.21,-133.68 71.85,-129.28 67,-124.23"/>
</g>
<!-- Node4 -->
<g id="node4" class="node">
<title>Node4</title>
<g id="a_node4"><a xlink:href="classonion_1_1_component_i_d.html" target="_top" xlink:title="Base class used to identify concrete implementations of the Onion basic components.">
<polygon fill="white" stroke="black" points="123,-134.5 123,-153.5 230,-153.5 230,-134.5 123,-134.5"/>
<text text-anchor="middle" x="176.5" y="-141.5" font-family="Helvetica,sans-Serif" font-size="10.00">onion::ComponentID</text>
</a>
</g>
</g>
<!-- Node4&#45;&gt;Node2 -->
<g id="edge3" class="edge">
<title>Node4&#45;&gt;Node2</title>
<path fill="none" stroke="midnightblue" d="M159.8,-126.97C150.1,-117.66 138.01,-106.06 128.76,-97.19"/>
<polygon fill="midnightblue" stroke="midnightblue" points="157.15,-129.28 166.79,-133.68 162,-124.23 157.15,-129.28"/>
</g>
</g>
</svg>
