<?xml version="1.0" encoding="UTF-8" standalone="no"?>
<!DOCTYPE svg PUBLIC "-//W3C//DTD SVG 1.1//EN"
 "http://www.w3.org/Graphics/SVG/1.1/DTD/svg11.dtd">
<!-- Generated by graphviz version 2.43.0 (0)
 -->
<!-- Title: onion::ComponentID Pages: 1 -->
<svg width="520pt" height="330pt"
 viewBox="0.00 0.00 520.00 330.00" xmlns="http://www.w3.org/2000/svg" xmlns:xlink="http://www.w3.org/1999/xlink">
<g id="graph0" class="graph" transform="scale(1 1) rotate(0) translate(4 326)">
<title>onion::ComponentID</title>
<polygon fill="white" stroke="transparent" points="-4,4 -4,-326 516,-326 516,4 -4,4"/>
<!-- Node1 -->
<g id="node1" class="node">
<title>Node1</title>
<g id="a_node1"><a xlink:title="Base class used to identify concrete implementations of the Onion basic components.">
<polygon fill="#bfbfbf" stroke="black" points="0,-165 0,-184 116,-184 116,-165 0,-165"/>
<text text-anchor="middle" x="58" y="-172" font-family="Helvetica,sans-Serif" font-size="10.00">onion::ComponentID</text>
</a>
</g>
</g>
<!-- Node2 -->
<g id="node2" class="node">
<title>Node2</title>
<g id="a_node2"><a xlink:href="classonion_1_1_create_operator.html" target="_top" xlink:title=" ">
<polygon fill="white" stroke="black" points="155.5,-291.5 155.5,-321.5 301.5,-321.5 301.5,-291.5 155.5,-291.5"/>
<text text-anchor="start" x="163.5" y="-309.5" font-family="Helvetica,sans-Serif" font-size="10.00">onion::CreateOperator</text>
<text text-anchor="middle" x="228.5" y="-298.5" font-family="Helvetica,sans-Serif" font-size="10.00">&lt; path_t&lt; num_cities &gt; &gt;</text>
</a>
</g>
</g>
<!-- Node1&#45;&gt;Node2 -->
<g id="edge1" class="edge">
<title>Node1&#45;&gt;Node2</title>
<path fill="none" stroke="midnightblue" d="M70.01,-192.65C85.44,-216.6 115.73,-258.54 152,-282.5 157.16,-285.91 162.85,-288.87 168.7,-291.42"/>
<polygon fill="midnightblue" stroke="midnightblue" points="72.95,-190.75 64.67,-184.14 67.02,-194.47 72.95,-190.75"/>
</g>
<!-- Node4 -->
<g id="node4" class="node">
<title>Node4</title>
<g id="a_node4"><a xlink:href="classonion_1_1_create_operator.html" target="_top" xlink:title="Abstract Data Type that defines the CreateOperator component.">
<polygon fill="white" stroke="black" points="166,-242.5 166,-272.5 291,-272.5 291,-242.5 166,-242.5"/>
<text text-anchor="start" x="174" y="-260.5" font-family="Helvetica,sans-Serif" font-size="10.00">onion::CreateOperator</text>
<text text-anchor="middle" x="228.5" y="-249.5" font-family="Helvetica,sans-Serif" font-size="10.00">&lt; solution_t &gt;</text>
</a>
</g>
</g>
<!-- Node1&#45;&gt;Node4 -->
<g id="edge3" class="edge">
<title>Node1&#45;&gt;Node4</title>
<path fill="none" stroke="midnightblue" d="M80.51,-189.98C98.84,-202.66 126.24,-220.41 152,-232.5 159.75,-236.14 168.17,-239.48 176.49,-242.45"/>
<polygon fill="midnightblue" stroke="midnightblue" points="82.48,-187.09 72.29,-184.21 78.46,-192.82 82.48,-187.09"/>
</g>
<!-- Node5 -->
<g id="node5" class="node">
<title>Node5</title>
<g id="a_node5"><a xlink:href="classonion_1_1_objective_function.html" target="_top" xlink:title="Abstract Data Type that defines the ObjectiveFuntion component.">
<polygon fill="white" stroke="black" points="160,-182 160,-223 297,-223 297,-182 160,-182"/>
<text text-anchor="start" x="168" y="-211" font-family="Helvetica,sans-Serif" font-size="10.00">onion::ObjectiveFunction</text>
<text text-anchor="start" x="168" y="-200" font-family="Helvetica,sans-Serif" font-size="10.00">&lt; solution_t, objective</text>
<text text-anchor="middle" x="228.5" y="-189" font-family="Helvetica,sans-Serif" font-size="10.00">_value_t &gt;</text>
</a>
</g>
</g>
<!-- Node1&#45;&gt;Node5 -->
<g id="edge4" class="edge">
<title>Node1&#45;&gt;Node5</title>
<path fill="none" stroke="midnightblue" d="M126.08,-185.65C137.15,-187.49 148.64,-189.4 159.73,-191.24"/>
<polygon fill="midnightblue" stroke="midnightblue" points="126.48,-182.17 116.05,-183.98 125.34,-189.07 126.48,-182.17"/>
</g>
<!-- Node6 -->
<g id="node6" class="node">
<title>Node6</title>
<g id="a_node6"><a xlink:href="classonion_1_1_parameter_operator.html" target="_top" xlink:title="Abstract Data Type that defines the ParameterOperator component.">
<polygon fill="white" stroke="black" points="152,-132.5 152,-162.5 305,-162.5 305,-132.5 152,-132.5"/>
<text text-anchor="start" x="160" y="-150.5" font-family="Helvetica,sans-Serif" font-size="10.00">onion::ParameterOperator</text>
<text text-anchor="middle" x="228.5" y="-139.5" font-family="Helvetica,sans-Serif" font-size="10.00">&lt; solution_t, parameter_t &gt;</text>
</a>
</g>
</g>
<!-- Node1&#45;&gt;Node6 -->
<g id="edge5" class="edge">
<title>Node1&#45;&gt;Node6</title>
<path fill="none" stroke="midnightblue" d="M125.95,-163.77C134.51,-162.4 143.31,-160.99 151.99,-159.6"/>
<polygon fill="midnightblue" stroke="midnightblue" points="125.37,-160.32 116.05,-165.36 126.47,-167.23 125.37,-160.32"/>
</g>
<!-- Node7 -->
<g id="node7" class="node">
<title>Node7</title>
<g id="a_node7"><a xlink:href="classonion_1_1_perturbation_operator.html" target="_top" xlink:title="Abstract Data Type that defines the Perturbation Operator.">
<polygon fill="white" stroke="black" points="152.5,-72 152.5,-113 304.5,-113 304.5,-72 152.5,-72"/>
<text text-anchor="start" x="160.5" y="-101" font-family="Helvetica,sans-Serif" font-size="10.00">onion::PerturbationOperator</text>
<text text-anchor="start" x="160.5" y="-90" font-family="Helvetica,sans-Serif" font-size="10.00">&lt; solution_t, perturbation</text>
<text text-anchor="middle" x="228.5" y="-79" font-family="Helvetica,sans-Serif" font-size="10.00">_result_t &gt;</text>
</a>
</g>
</g>
<!-- Node1&#45;&gt;Node7 -->
<g id="edge6" class="edge">
<title>Node1&#45;&gt;Node7</title>
<path fill="none" stroke="midnightblue" d="M83.86,-159.87C102.37,-149.23 128.4,-134.77 152,-123.5 159.42,-119.96 167.35,-116.43 175.18,-113.09"/>
<polygon fill="midnightblue" stroke="midnightblue" points="82.07,-156.87 75.17,-164.91 85.58,-162.92 82.07,-156.87"/>
</g>
<!-- Node8 -->
<g id="node8" class="node">
<title>Node8</title>
<g id="a_node8"><a xlink:href="classonion_1_1_select_operator.html" target="_top" xlink:title="Defines the interface of SelectOperator components.">
<polygon fill="white" stroke="black" points="157,-0.5 157,-52.5 300,-52.5 300,-0.5 157,-0.5"/>
<text text-anchor="start" x="165" y="-40.5" font-family="Helvetica,sans-Serif" font-size="10.00">onion::SelectOperator</text>
<text text-anchor="start" x="165" y="-29.5" font-family="Helvetica,sans-Serif" font-size="10.00">&lt; objective_value_t,</text>
<text text-anchor="start" x="165" y="-18.5" font-family="Helvetica,sans-Serif" font-size="10.00"> objective_function_result</text>
<text text-anchor="middle" x="228.5" y="-7.5" font-family="Helvetica,sans-Serif" font-size="10.00">_t, compare &gt;</text>
</a>
</g>
</g>
<!-- Node1&#45;&gt;Node8 -->
<g id="edge7" class="edge">
<title>Node1&#45;&gt;Node8</title>
<path fill="none" stroke="midnightblue" d="M70.37,-156.4C86.22,-132.36 116.96,-89.77 152,-62.5 156.58,-58.93 161.58,-55.6 166.74,-52.52"/>
<polygon fill="midnightblue" stroke="midnightblue" points="67.36,-154.61 64.88,-164.91 73.24,-158.41 67.36,-154.61"/>
</g>
<!-- Node3 -->
<g id="node3" class="node">
<title>Node3</title>
<g id="a_node3"><a xlink:href="classonion_1_1cops_1_1tsp_1_1array_1_1_create_random.html" target="_top" xlink:title=" ">
<polygon fill="white" stroke="black" points="341,-291.5 341,-321.5 512,-321.5 512,-291.5 341,-291.5"/>
<text text-anchor="start" x="349" y="-309.5" font-family="Helvetica,sans-Serif" font-size="10.00">onion::cops::tsp::array</text>
<text text-anchor="middle" x="426.5" y="-298.5" font-family="Helvetica,sans-Serif" font-size="10.00">::CreateRandom&lt; num_cities &gt;</text>
</a>
</g>
</g>
<!-- Node2&#45;&gt;Node3 -->
<g id="edge2" class="edge">
<title>Node2&#45;&gt;Node3</title>
<path fill="none" stroke="midnightblue" d="M311.94,-306.5C321.52,-306.5 331.29,-306.5 340.9,-306.5"/>
<polygon fill="midnightblue" stroke="midnightblue" points="311.65,-303 301.65,-306.5 311.65,-310 311.65,-303"/>
</g>
</g>
</svg>
