<?xml version="1.0" encoding="UTF-8" standalone="no"?>
<!DOCTYPE svg PUBLIC "-//W3C//DTD SVG 1.1//EN"
 "http://www.w3.org/Graphics/SVG/1.1/DTD/svg11.dtd">
<!-- Generated by graphviz version 7.1.0 (20230121.1956)
 -->
<!-- Title: onion::ParameterOperator&lt; solution_t, parameter_t &gt; Pages: 1 -->
<svg width="238pt" height="95pt"
 viewBox="0.00 0.00 238.00 95.00" xmlns="http://www.w3.org/2000/svg" xmlns:xlink="http://www.w3.org/1999/xlink">
<g id="graph0" class="graph" transform="scale(1 1) rotate(0) translate(4 91)">
<title>onion::ParameterOperator&lt; solution_t, parameter_t &gt;</title>
<polygon fill="white" stroke="none" points="-4,4 -4,-91 234,-91 234,4 -4,4"/>
<!-- Node1 -->
<g id="node1" class="node">
<title>Node1</title>
<g id="a_node1"><a xlink:title="Abstract Data Type that defines the ParameterOperator component.">
<polygon fill="#bfbfbf" stroke="black" points="47.5,-0.5 47.5,-30.5 181.5,-30.5 181.5,-0.5 47.5,-0.5"/>
<text text-anchor="start" x="55.5" y="-18.5" font-family="Helvetica,sans-Serif" font-size="10.00">onion::ParameterOperator</text>
<text text-anchor="middle" x="114.5" y="-7.5" font-family="Helvetica,sans-Serif" font-size="10.00">&lt; solution_t, parameter_t &gt;</text>
</a>
</g>
</g>
<!-- Node2 -->
<g id="node2" class="node">
<title>Node2</title>
<g id="a_node2"><a xlink:href="classonion_1_1_non_copyable.html" target="_top" xlink:title="Class to make other classes non&#45;copyable.">
<polygon fill="white" stroke="black" points="0,-67.5 0,-86.5 105,-86.5 105,-67.5 0,-67.5"/>
<text text-anchor="middle" x="52.5" y="-74.5" font-family="Helvetica,sans-Serif" font-size="10.00">onion::NonCopyable</text>
</a>
</g>
</g>
<!-- Node2&#45;&gt;Node1 -->
<g id="edge1" class="edge">
<title>Node2&#45;&gt;Node1</title>
<path fill="none" stroke="midnightblue" d="M69.2,-59.97C78.9,-50.66 90.99,-39.06 100.24,-30.19"/>
<polygon fill="midnightblue" stroke="midnightblue" points="67,-57.23 62.21,-66.68 71.85,-62.28 67,-57.23"/>
</g>
<!-- Node3 -->
<g id="node3" class="node">
<title>Node3</title>
<g id="a_node3"><a xlink:href="classonion_1_1_component_i_d.html" target="_top" xlink:title="Base class used to identify concrete implementations of the Onion basic components.">
<polygon fill="white" stroke="black" points="123,-67.5 123,-86.5 230,-86.5 230,-67.5 123,-67.5"/>
<text text-anchor="middle" x="176.5" y="-74.5" font-family="Helvetica,sans-Serif" font-size="10.00">onion::ComponentID</text>
</a>
</g>
</g>
<!-- Node3&#45;&gt;Node1 -->
<g id="edge2" class="edge">
<title>Node3&#45;&gt;Node1</title>
<path fill="none" stroke="midnightblue" d="M159.8,-59.97C150.1,-50.66 138.01,-39.06 128.76,-30.19"/>
<polygon fill="midnightblue" stroke="midnightblue" points="157.15,-62.28 166.79,-66.68 162,-57.23 157.15,-62.28"/>
</g>
</g>
</svg>
