<?xml version="1.0" encoding="UTF-8" standalone="no"?>
<!DOCTYPE svg PUBLIC "-//W3C//DTD SVG 1.1//EN"
 "http://www.w3.org/Graphics/SVG/1.1/DTD/svg11.dtd">
<!-- Generated by graphviz version 2.43.0 (0)
 -->
<!-- Title: onion::SelectOperator&lt; objective_value_t, objective_function_result_t, compare &gt; Pages: 1 -->
<svg width="258pt" height="117pt"
 viewBox="0.00 0.00 257.50 117.00" xmlns="http://www.w3.org/2000/svg" xmlns:xlink="http://www.w3.org/1999/xlink">
<g id="graph0" class="graph" transform="scale(1 1) rotate(0) translate(4 113)">
<title>onion::SelectOperator&lt; objective_value_t, objective_function_result_t, compare &gt;</title>
<polygon fill="white" stroke="transparent" points="-4,4 -4,-113 253.5,-113 253.5,4 -4,4"/>
<!-- Node1 -->
<g id="node1" class="node">
<title>Node1</title>
<g id="a_node1"><a xlink:title="Defines the interface of SelectOperator components.">
<polygon fill="#bfbfbf" stroke="black" points="53,-0.5 53,-52.5 196,-52.5 196,-0.5 53,-0.5"/>
<text text-anchor="start" x="61" y="-40.5" font-family="Helvetica,sans-Serif" font-size="10.00">onion::SelectOperator</text>
<text text-anchor="start" x="61" y="-29.5" font-family="Helvetica,sans-Serif" font-size="10.00">&lt; objective_value_t,</text>
<text text-anchor="start" x="61" y="-18.5" font-family="Helvetica,sans-Serif" font-size="10.00"> objective_function_result</text>
<text text-anchor="middle" x="124.5" y="-7.5" font-family="Helvetica,sans-Serif" font-size="10.00">_t, compare &gt;</text>
</a>
</g>
</g>
<!-- Node2 -->
<g id="node2" class="node">
<title>Node2</title>
<g id="a_node2"><a xlink:href="classonion_1_1_non_copyable.html" target="_top" xlink:title="Class to make other classes non&#45;copyable.">
<polygon fill="white" stroke="black" points="0,-89.5 0,-108.5 115,-108.5 115,-89.5 0,-89.5"/>
<text text-anchor="middle" x="57.5" y="-96.5" font-family="Helvetica,sans-Serif" font-size="10.00">onion::NonCopyable</text>
</a>
</g>
</g>
<!-- Node2&#45;&gt;Node1 -->
<g id="edge1" class="edge">
<title>Node2&#45;&gt;Node1</title>
<path fill="none" stroke="midnightblue" d="M72.6,-82.11C80.87,-73.41 91.3,-62.43 100.64,-52.6"/>
<polygon fill="midnightblue" stroke="midnightblue" points="70.07,-79.7 65.72,-89.36 75.14,-84.52 70.07,-79.7"/>
</g>
<!-- Node3 -->
<g id="node3" class="node">
<title>Node3</title>
<g id="a_node3"><a xlink:href="classonion_1_1_component_i_d.html" target="_top" xlink:title="Base class used to provide identification functionalities to concrete implementations of the Onion co...">
<polygon fill="white" stroke="black" points="133.5,-89.5 133.5,-108.5 249.5,-108.5 249.5,-89.5 133.5,-89.5"/>
<text text-anchor="middle" x="191.5" y="-96.5" font-family="Helvetica,sans-Serif" font-size="10.00">onion::ComponentID</text>
</a>
</g>
</g>
<!-- Node3&#45;&gt;Node1 -->
<g id="edge2" class="edge">
<title>Node3&#45;&gt;Node1</title>
<path fill="none" stroke="midnightblue" d="M176.4,-82.11C168.13,-73.41 157.7,-62.43 148.36,-52.6"/>
<polygon fill="midnightblue" stroke="midnightblue" points="173.86,-84.52 183.28,-89.36 178.93,-79.7 173.86,-84.52"/>
</g>
</g>
</svg>
