<?xml version="1.0" encoding="UTF-8" standalone="no"?>
<!DOCTYPE svg PUBLIC "-//W3C//DTD SVG 1.1//EN"
 "http://www.w3.org/Graphics/SVG/1.1/DTD/svg11.dtd">
<!-- Generated by graphviz version 2.43.0 (0)
 -->
<!-- Title: onion::NonCopyable Pages: 1 -->
<svg width="519pt" height="368pt"
 viewBox="0.00 0.00 519.00 368.00" xmlns="http://www.w3.org/2000/svg" xmlns:xlink="http://www.w3.org/1999/xlink">
<g id="graph0" class="graph" transform="scale(1 1) rotate(0) translate(4 364)">
<title>onion::NonCopyable</title>
<polygon fill="white" stroke="transparent" points="-4,4 -4,-364 515,-364 515,4 -4,4"/>
<!-- Node1 -->
<g id="node1" class="node">
<title>Node1</title>
<g id="a_node1"><a xlink:title="Class to make other classes non&#45;copyable.">
<polygon fill="#bfbfbf" stroke="black" points="0,-176 0,-195 115,-195 115,-176 0,-176"/>
<text text-anchor="middle" x="57.5" y="-183" font-family="Helvetica,sans-Serif" font-size="10.00">onion::NonCopyable</text>
</a>
</g>
</g>
<!-- Node2 -->
<g id="node2" class="node">
<title>Node2</title>
<g id="a_node2"><a xlink:href="classonion_1_1_create_operator.html" target="_top" xlink:title=" ">
<polygon fill="white" stroke="black" points="154.5,-329.5 154.5,-359.5 300.5,-359.5 300.5,-329.5 154.5,-329.5"/>
<text text-anchor="start" x="162.5" y="-347.5" font-family="Helvetica,sans-Serif" font-size="10.00">onion::CreateOperator</text>
<text text-anchor="middle" x="227.5" y="-336.5" font-family="Helvetica,sans-Serif" font-size="10.00">&lt; path_t&lt; num_cities &gt; &gt;</text>
</a>
</g>
</g>
<!-- Node1&#45;&gt;Node2 -->
<g id="edge1" class="edge">
<title>Node1&#45;&gt;Node2</title>
<path fill="none" stroke="midnightblue" d="M66.69,-204.81C80.06,-234.09 109.36,-289.57 151,-320.5 155.64,-323.94 160.78,-326.91 166.15,-329.45"/>
<polygon fill="midnightblue" stroke="midnightblue" points="69.73,-203.03 62.48,-195.3 63.33,-205.86 69.73,-203.03"/>
</g>
<!-- Node4 -->
<g id="node4" class="node">
<title>Node4</title>
<g id="a_node4"><a xlink:href="classonion_1_1_create_operator.html" target="_top" xlink:title="Abstract Data Type that defines the CreateOperator component.">
<polygon fill="white" stroke="black" points="165,-280.5 165,-310.5 290,-310.5 290,-280.5 165,-280.5"/>
<text text-anchor="start" x="173" y="-298.5" font-family="Helvetica,sans-Serif" font-size="10.00">onion::CreateOperator</text>
<text text-anchor="middle" x="227.5" y="-287.5" font-family="Helvetica,sans-Serif" font-size="10.00">&lt; solution_t &gt;</text>
</a>
</g>
</g>
<!-- Node1&#45;&gt;Node4 -->
<g id="edge3" class="edge">
<title>Node1&#45;&gt;Node4</title>
<path fill="none" stroke="midnightblue" d="M73.07,-202.7C90.03,-221.72 119.72,-252.11 151,-270.5 157.43,-274.28 164.5,-277.58 171.67,-280.43"/>
<polygon fill="midnightblue" stroke="midnightblue" points="75.63,-200.31 66.42,-195.07 70.36,-204.91 75.63,-200.31"/>
</g>
<!-- Node5 -->
<g id="node5" class="node">
<title>Node5</title>
<g id="a_node5"><a xlink:href="classonion_1_1_objective_function.html" target="_top" xlink:title="Abstract Data Type that defines the ObjectiveFuntion component.">
<polygon fill="white" stroke="black" points="159,-220 159,-261 296,-261 296,-220 159,-220"/>
<text text-anchor="start" x="167" y="-249" font-family="Helvetica,sans-Serif" font-size="10.00">onion::ObjectiveFunction</text>
<text text-anchor="start" x="167" y="-238" font-family="Helvetica,sans-Serif" font-size="10.00">&lt; solution_t, objective</text>
<text text-anchor="middle" x="227.5" y="-227" font-family="Helvetica,sans-Serif" font-size="10.00">_value_t &gt;</text>
</a>
</g>
</g>
<!-- Node1&#45;&gt;Node5 -->
<g id="edge4" class="edge">
<title>Node1&#45;&gt;Node5</title>
<path fill="none" stroke="midnightblue" d="M97.33,-198.21C117.06,-204.67 141.52,-212.68 163.83,-219.98"/>
<polygon fill="midnightblue" stroke="midnightblue" points="98.36,-194.87 87.76,-195.08 96.18,-201.52 98.36,-194.87"/>
</g>
<!-- Node6 -->
<g id="node6" class="node">
<title>Node6</title>
<g id="a_node6"><a xlink:href="classonion_1_1_parameter_operator.html" target="_top" xlink:title="Abstract Data Type that defines the ParameterOperator component.">
<polygon fill="white" stroke="black" points="151,-170.5 151,-200.5 304,-200.5 304,-170.5 151,-170.5"/>
<text text-anchor="start" x="159" y="-188.5" font-family="Helvetica,sans-Serif" font-size="10.00">onion::ParameterOperator</text>
<text text-anchor="middle" x="227.5" y="-177.5" font-family="Helvetica,sans-Serif" font-size="10.00">&lt; solution_t, parameter_t &gt;</text>
</a>
</g>
</g>
<!-- Node1&#45;&gt;Node6 -->
<g id="edge5" class="edge">
<title>Node1&#45;&gt;Node6</title>
<path fill="none" stroke="midnightblue" d="M125.45,-185.5C133.82,-185.5 142.43,-185.5 150.92,-185.5"/>
<polygon fill="midnightblue" stroke="midnightblue" points="125.38,-182 115.38,-185.5 125.38,-189 125.38,-182"/>
</g>
<!-- Node7 -->
<g id="node7" class="node">
<title>Node7</title>
<g id="a_node7"><a xlink:href="classonion_1_1_perturbation_operator.html" target="_top" xlink:title="Abstract Data Type that defines the Perturbation Operator.">
<polygon fill="white" stroke="black" points="151.5,-110 151.5,-151 303.5,-151 303.5,-110 151.5,-110"/>
<text text-anchor="start" x="159.5" y="-139" font-family="Helvetica,sans-Serif" font-size="10.00">onion::PerturbationOperator</text>
<text text-anchor="start" x="159.5" y="-128" font-family="Helvetica,sans-Serif" font-size="10.00">&lt; solution_t, perturbation</text>
<text text-anchor="middle" x="227.5" y="-117" font-family="Helvetica,sans-Serif" font-size="10.00">_result_t &gt;</text>
</a>
</g>
</g>
<!-- Node1&#45;&gt;Node7 -->
<g id="edge6" class="edge">
<title>Node1&#45;&gt;Node7</title>
<path fill="none" stroke="midnightblue" d="M97.33,-172.79C117.06,-166.33 141.52,-158.32 163.83,-151.02"/>
<polygon fill="midnightblue" stroke="midnightblue" points="96.18,-169.48 87.76,-175.92 98.36,-176.13 96.18,-169.48"/>
</g>
<!-- Node8 -->
<g id="node8" class="node">
<title>Node8</title>
<g id="a_node8"><a xlink:href="classonion_1_1_random_engine_proxy.html" target="_top" xlink:title="Creates and control the access to the global RandonEngine object.">
<polygon fill="white" stroke="black" points="152,-72 152,-91 303,-91 303,-72 152,-72"/>
<text text-anchor="middle" x="227.5" y="-79" font-family="Helvetica,sans-Serif" font-size="10.00">onion::RandomEngineProxy</text>
</a>
</g>
</g>
<!-- Node1&#45;&gt;Node8 -->
<g id="edge7" class="edge">
<title>Node1&#45;&gt;Node8</title>
<path fill="none" stroke="midnightblue" d="M72.57,-168.18C89.26,-148.79 118.9,-117.82 151,-100.5 158.14,-96.65 166.08,-93.56 174.05,-91.09"/>
<polygon fill="midnightblue" stroke="midnightblue" points="69.8,-166.04 66.04,-175.95 75.16,-170.54 69.8,-166.04"/>
</g>
<!-- Node9 -->
<g id="node9" class="node">
<title>Node9</title>
<g id="a_node9"><a xlink:href="classonion_1_1_select_operator.html" target="_top" xlink:title="Defines the interface of SelectOperator components.">
<polygon fill="white" stroke="black" points="156,-0.5 156,-52.5 299,-52.5 299,-0.5 156,-0.5"/>
<text text-anchor="start" x="164" y="-40.5" font-family="Helvetica,sans-Serif" font-size="10.00">onion::SelectOperator</text>
<text text-anchor="start" x="164" y="-29.5" font-family="Helvetica,sans-Serif" font-size="10.00">&lt; objective_value_t,</text>
<text text-anchor="start" x="164" y="-18.5" font-family="Helvetica,sans-Serif" font-size="10.00"> objective_function_result</text>
<text text-anchor="middle" x="227.5" y="-7.5" font-family="Helvetica,sans-Serif" font-size="10.00">_t, compare &gt;</text>
</a>
</g>
</g>
<!-- Node1&#45;&gt;Node9 -->
<g id="edge8" class="edge">
<title>Node1&#45;&gt;Node9</title>
<path fill="none" stroke="midnightblue" d="M68.49,-167.08C83.46,-140.91 113.95,-92.8 151,-62.5 155.38,-58.91 160.18,-55.59 165.17,-52.52"/>
<polygon fill="midnightblue" stroke="midnightblue" points="65.36,-165.51 63.53,-175.95 71.47,-168.93 65.36,-165.51"/>
</g>
<!-- Node3 -->
<g id="node3" class="node">
<title>Node3</title>
<g id="a_node3"><a xlink:href="classonion_1_1cops_1_1tsp_1_1array_1_1_create_random.html" target="_top" xlink:title=" ">
<polygon fill="white" stroke="black" points="340,-329.5 340,-359.5 511,-359.5 511,-329.5 340,-329.5"/>
<text text-anchor="start" x="348" y="-347.5" font-family="Helvetica,sans-Serif" font-size="10.00">onion::cops::tsp::array</text>
<text text-anchor="middle" x="425.5" y="-336.5" font-family="Helvetica,sans-Serif" font-size="10.00">::CreateRandom&lt; num_cities &gt;</text>
</a>
</g>
</g>
<!-- Node2&#45;&gt;Node3 -->
<g id="edge2" class="edge">
<title>Node2&#45;&gt;Node3</title>
<path fill="none" stroke="midnightblue" d="M310.94,-344.5C320.52,-344.5 330.29,-344.5 339.9,-344.5"/>
<polygon fill="midnightblue" stroke="midnightblue" points="310.65,-341 300.65,-344.5 310.65,-348 310.65,-341"/>
</g>
</g>
</svg>
