<?xml version="1.0" encoding="UTF-8" standalone="no"?>
<!DOCTYPE svg PUBLIC "-//W3C//DTD SVG 1.1//EN"
 "http://www.w3.org/Graphics/SVG/1.1/DTD/svg11.dtd">
<!-- Generated by graphviz version 7.1.0 (20230121.1956)
 -->
<!-- Title: onion::RandomEngine Pages: 1 -->
<svg width="290pt" height="95pt"
 viewBox="0.00 0.00 290.00 95.00" xmlns="http://www.w3.org/2000/svg" xmlns:xlink="http://www.w3.org/1999/xlink">
<g id="graph0" class="graph" transform="scale(1 1) rotate(0) translate(4 91)">
<title>onion::RandomEngine</title>
<polygon fill="white" stroke="none" points="-4,4 -4,-91 286,-91 286,4 -4,4"/>
<!-- Node1 -->
<g id="node1" class="node">
<title>Node1</title>
<g id="a_node1"><a xlink:title="Inteface class for random number generation.">
<polygon fill="#bfbfbf" stroke="black" points="79.5,-67.5 79.5,-86.5 192.5,-86.5 192.5,-67.5 79.5,-67.5"/>
<text text-anchor="middle" x="136" y="-74.5" font-family="Helvetica,sans-Serif" font-size="10.00">onion::RandomEngine</text>
</a>
</g>
</g>
<!-- Node2 -->
<g id="node2" class="node">
<title>Node2</title>
<g id="a_node2"><a xlink:href="classonion_1_1_random_legacy_c.html" target="_top" xlink:title="Implements the RandomEngine interface using legacy C functions from C stdlib.">
<polygon fill="white" stroke="black" points="0,-6 0,-25 122,-25 122,-6 0,-6"/>
<text text-anchor="middle" x="61" y="-13" font-family="Helvetica,sans-Serif" font-size="10.00">onion::RandomLegacyC</text>
</a>
</g>
</g>
<!-- Node1&#45;&gt;Node2 -->
<g id="edge1" class="edge">
<title>Node1&#45;&gt;Node2</title>
<path fill="none" stroke="midnightblue" d="M116.88,-60.84C102.4,-49.35 83.06,-34 71.34,-24.7"/>
<polygon fill="midnightblue" stroke="midnightblue" points="114.38,-63.31 124.39,-66.79 118.73,-57.83 114.38,-63.31"/>
</g>
<!-- Node3 -->
<g id="node3" class="node">
<title>Node3</title>
<g id="a_node3"><a xlink:href="classonion_1_1_random_s_t_l.html" target="_top" xlink:title="Implements the RandomEngine interface using the C++ STL facilities.">
<polygon fill="white" stroke="black" points="140,-0.5 140,-30.5 282,-30.5 282,-0.5 140,-0.5"/>
<text text-anchor="start" x="148" y="-18.5" font-family="Helvetica,sans-Serif" font-size="10.00">onion::RandomSTL&lt; random</text>
<text text-anchor="middle" x="211" y="-7.5" font-family="Helvetica,sans-Serif" font-size="10.00">_engine_t &gt;</text>
</a>
</g>
</g>
<!-- Node1&#45;&gt;Node3 -->
<g id="edge2" class="edge">
<title>Node1&#45;&gt;Node3</title>
<path fill="none" stroke="midnightblue" d="M155.43,-60.59C167.18,-51.26 182.06,-39.46 193.46,-30.42"/>
<polygon fill="midnightblue" stroke="midnightblue" points="153.27,-57.83 147.61,-66.79 157.62,-63.31 153.27,-57.83"/>
</g>
</g>
</svg>
