<?xml version="1.0" encoding="UTF-8" standalone="no"?>
<!DOCTYPE svg PUBLIC "-//W3C//DTD SVG 1.1//EN"
 "http://www.w3.org/Graphics/SVG/1.1/DTD/svg11.dtd">
<!-- Generated by graphviz version 2.43.0 (0)
 -->
<!-- Title: onion::ObjectiveFunction&lt; solution_t, objective_value_t &gt; Pages: 1 -->
<svg width="258pt" height="106pt"
 viewBox="0.00 0.00 257.50 106.00" xmlns="http://www.w3.org/2000/svg" xmlns:xlink="http://www.w3.org/1999/xlink">
<g id="graph0" class="graph" transform="scale(1 1) rotate(0) translate(4 102)">
<title>onion::ObjectiveFunction&lt; solution_t, objective_value_t &gt;</title>
<polygon fill="white" stroke="transparent" points="-4,4 -4,-102 253.5,-102 253.5,4 -4,4"/>
<!-- Node1 -->
<g id="node1" class="node">
<title>Node1</title>
<g id="a_node1"><a xlink:title="Abstract Data Type that defines the ObjectiveFuntion component.">
<polygon fill="#bfbfbf" stroke="black" points="56,-0.5 56,-41.5 193,-41.5 193,-0.5 56,-0.5"/>
<text text-anchor="start" x="64" y="-29.5" font-family="Helvetica,sans-Serif" font-size="10.00">onion::ObjectiveFunction</text>
<text text-anchor="start" x="64" y="-18.5" font-family="Helvetica,sans-Serif" font-size="10.00">&lt; solution_t, objective</text>
<text text-anchor="middle" x="124.5" y="-7.5" font-family="Helvetica,sans-Serif" font-size="10.00">_value_t &gt;</text>
</a>
</g>
</g>
<!-- Node2 -->
<g id="node2" class="node">
<title>Node2</title>
<g id="a_node2"><a xlink:href="classonion_1_1_non_copyable.html" target="_top" xlink:title="Class to make other classes non&#45;copyable.">
<polygon fill="white" stroke="black" points="0,-78.5 0,-97.5 115,-97.5 115,-78.5 0,-78.5"/>
<text text-anchor="middle" x="57.5" y="-85.5" font-family="Helvetica,sans-Serif" font-size="10.00">onion::NonCopyable</text>
</a>
</g>
</g>
<!-- Node2&#45;&gt;Node1 -->
<g id="edge1" class="edge">
<title>Node2&#45;&gt;Node1</title>
<path fill="none" stroke="midnightblue" d="M73.9,-71.09C83.09,-62.17 94.62,-50.98 104.36,-41.54"/>
<polygon fill="midnightblue" stroke="midnightblue" points="71.28,-68.76 66.54,-78.23 76.15,-73.78 71.28,-68.76"/>
</g>
<!-- Node3 -->
<g id="node3" class="node">
<title>Node3</title>
<g id="a_node3"><a xlink:href="classonion_1_1_component_i_d.html" target="_top" xlink:title="Base class used to provide identification functionalities to concrete implementations of the Onion co...">
<polygon fill="white" stroke="black" points="133.5,-78.5 133.5,-97.5 249.5,-97.5 249.5,-78.5 133.5,-78.5"/>
<text text-anchor="middle" x="191.5" y="-85.5" font-family="Helvetica,sans-Serif" font-size="10.00">onion::ComponentID</text>
</a>
</g>
</g>
<!-- Node3&#45;&gt;Node1 -->
<g id="edge2" class="edge">
<title>Node3&#45;&gt;Node1</title>
<path fill="none" stroke="midnightblue" d="M175.1,-71.09C165.91,-62.17 154.38,-50.98 144.64,-41.54"/>
<polygon fill="midnightblue" stroke="midnightblue" points="172.85,-73.78 182.46,-78.23 177.72,-68.76 172.85,-73.78"/>
</g>
</g>
</svg>
