<?xml version="1.0" encoding="UTF-8" standalone="no"?>
<!DOCTYPE svg PUBLIC "-//W3C//DTD SVG 1.1//EN"
 "http://www.w3.org/Graphics/SVG/1.1/DTD/svg11.dtd">
<!-- Generated by graphviz version 2.43.0 (0)
 -->
<!-- Title: onion::ComponentData Pages: 1 -->
<svg width="137pt" height="139pt"
 viewBox="0.00 0.00 137.00 139.00" xmlns="http://www.w3.org/2000/svg" xmlns:xlink="http://www.w3.org/1999/xlink">
<g id="graph0" class="graph" transform="scale(1 1) rotate(0) translate(4 135)">
<title>onion::ComponentData</title>
<polygon fill="white" stroke="transparent" points="-4,4 -4,-135 133,-135 133,4 -4,4"/>
<!-- Node1 -->
<g id="node1" class="node">
<title>Node1</title>
<g id="a_node1"><a xlink:title="Class that contains the data used to identify a component.">
<polygon fill="#bfbfbf" stroke="black" points="0,-0.5 0,-19.5 129,-19.5 129,-0.5 0,-0.5"/>
<text text-anchor="middle" x="64.5" y="-7.5" font-family="Helvetica,sans-Serif" font-size="10.00">onion::ComponentData</text>
</a>
</g>
</g>
<!-- Node2 -->
<g id="node2" class="node">
<title>Node2</title>
<g id="a_node2"><a xlink:title=" ">
<polygon fill="white" stroke="#bfbfbf" points="42.5,-111.5 42.5,-130.5 86.5,-130.5 86.5,-111.5 42.5,-111.5"/>
<text text-anchor="middle" x="64.5" y="-118.5" font-family="Helvetica,sans-Serif" font-size="10.00">string</text>
</a>
</g>
</g>
<!-- Node2&#45;&gt;Node1 -->
<g id="edge1" class="edge">
<title>Node2&#45;&gt;Node1</title>
<path fill="none" stroke="#9a32cd" stroke-dasharray="5,2" d="M64.5,-101.19C64.5,-77.28 64.5,-36.99 64.5,-19.51"/>
<polygon fill="#9a32cd" stroke="#9a32cd" points="61,-101.45 64.5,-111.45 68,-101.45 61,-101.45"/>
<text text-anchor="middle" x="93.5" y="-85" font-family="Helvetica,sans-Serif" font-size="10.00"> description</text>
<text text-anchor="middle" x="93.5" y="-74" font-family="Helvetica,sans-Serif" font-size="10.00">name</text>
<text text-anchor="middle" x="93.5" y="-63" font-family="Helvetica,sans-Serif" font-size="10.00">problem</text>
<text text-anchor="middle" x="93.5" y="-52" font-family="Helvetica,sans-Serif" font-size="10.00">type</text>
<text text-anchor="middle" x="93.5" y="-41" font-family="Helvetica,sans-Serif" font-size="10.00">version</text>
</g>
</g>
</svg>
