<?xml version="1.0" encoding="UTF-8" standalone="no"?>
<!DOCTYPE svg PUBLIC "-//W3C//DTD SVG 1.1//EN"
 "http://www.w3.org/Graphics/SVG/1.1/DTD/svg11.dtd">
<!-- Generated by graphviz version 2.43.0 (0)
 -->
<!-- Title: /home/ladeira/Documents/src/onion/cops/tsp/array/create_random.hpp Pages: 1 -->
<svg width="258pt" height="162pt"
 viewBox="0.00 0.00 257.50 162.00" xmlns="http://www.w3.org/2000/svg" xmlns:xlink="http://www.w3.org/1999/xlink">
<g id="graph0" class="graph" transform="scale(1 1) rotate(0) translate(4 158)">
<title>/home/ladeira/Documents/src/onion/cops/tsp/array/create_random.hpp</title>
<polygon fill="white" stroke="transparent" points="-4,4 -4,-158 253.5,-158 253.5,4 -4,4"/>
<!-- Node1 -->
<g id="node1" class="node">
<title>Node1</title>
<g id="a_node1"><a xlink:title=" ">
<polygon fill="#bfbfbf" stroke="black" points="26.5,-112.5 26.5,-153.5 169.5,-153.5 169.5,-112.5 26.5,-112.5"/>
<text text-anchor="start" x="34.5" y="-141.5" font-family="Helvetica,sans-Serif" font-size="10.00">/home/ladeira/Documents</text>
<text text-anchor="start" x="34.5" y="-130.5" font-family="Helvetica,sans-Serif" font-size="10.00">/src/onion/cops/tsp/array</text>
<text text-anchor="middle" x="98" y="-119.5" font-family="Helvetica,sans-Serif" font-size="10.00">/create_random.hpp</text>
</a>
</g>
</g>
<!-- Node2 -->
<g id="node2" class="node">
<title>Node2</title>
<g id="a_node2"><a xlink:href="array_8hpp.html" target="_top" xlink:title=" ">
<polygon fill="white" stroke="black" points="0,-56.5 0,-75.5 62,-75.5 62,-56.5 0,-56.5"/>
<text text-anchor="middle" x="31" y="-63.5" font-family="Helvetica,sans-Serif" font-size="10.00">array.hpp</text>
</a>
</g>
</g>
<!-- Node1&#45;&gt;Node2 -->
<g id="edge1" class="edge">
<title>Node1&#45;&gt;Node2</title>
<path fill="none" stroke="midnightblue" d="M77.9,-112.5C68.12,-103.01 56.52,-91.76 47.3,-82.81"/>
<polygon fill="midnightblue" stroke="midnightblue" points="49.53,-80.1 39.92,-75.65 44.66,-85.13 49.53,-80.1"/>
</g>
<!-- Node4 -->
<g id="node4" class="node">
<title>Node4</title>
<g id="a_node4"><a xlink:title=" ">
<polygon fill="white" stroke="#bfbfbf" points="80.5,-56.5 80.5,-75.5 249.5,-75.5 249.5,-56.5 80.5,-56.5"/>
<text text-anchor="middle" x="165" y="-63.5" font-family="Helvetica,sans-Serif" font-size="10.00">../../../onion/CreateOperator.hpp</text>
</a>
</g>
</g>
<!-- Node1&#45;&gt;Node4 -->
<g id="edge3" class="edge">
<title>Node1&#45;&gt;Node4</title>
<path fill="none" stroke="midnightblue" d="M118.1,-112.5C127.88,-103.01 139.48,-91.76 148.7,-82.81"/>
<polygon fill="midnightblue" stroke="midnightblue" points="151.34,-85.13 156.08,-75.65 146.47,-80.1 151.34,-85.13"/>
</g>
<!-- Node3 -->
<g id="node3" class="node">
<title>Node3</title>
<g id="a_node3"><a xlink:title=" ">
<polygon fill="white" stroke="#bfbfbf" points="10,-0.5 10,-19.5 52,-19.5 52,-0.5 10,-0.5"/>
<text text-anchor="middle" x="31" y="-7.5" font-family="Helvetica,sans-Serif" font-size="10.00">array</text>
</a>
</g>
</g>
<!-- Node2&#45;&gt;Node3 -->
<g id="edge2" class="edge">
<title>Node2&#45;&gt;Node3</title>
<path fill="none" stroke="midnightblue" d="M31,-56.08C31,-49.01 31,-38.86 31,-29.99"/>
<polygon fill="midnightblue" stroke="midnightblue" points="34.5,-29.75 31,-19.75 27.5,-29.75 34.5,-29.75"/>
</g>
</g>
</svg>
