<?xml version="1.0" encoding="UTF-8" standalone="no"?>
<!DOCTYPE svg PUBLIC "-//W3C//DTD SVG 1.1//EN"
 "http://www.w3.org/Graphics/SVG/1.1/DTD/svg11.dtd">
<!-- Generated by graphviz version 2.43.0 (0)
 -->
<!-- Title: cops Pages: 1 -->
<svg width="334pt" height="111pt"
 viewBox="0.00 0.00 334.00 111.00" xmlns="http://www.w3.org/2000/svg" xmlns:xlink="http://www.w3.org/1999/xlink">
<g id="graph0" class="graph" transform="scale(1 1) rotate(0) translate(4 107)">
<title>cops</title>
<polygon fill="white" stroke="transparent" points="-4,4 -4,-107 330,-107 330,4 -4,4"/>
<g id="clust1" class="cluster">
<title>clusterdir_768391f28944dce58af16eb0f1f9e6f7</title>
<g id="a_clust1"><a xlink:href="dir_768391f28944dce58af16eb0f1f9e6f7.html" target="_top" xlink:title="onion">
<polygon fill="#daedff" stroke="#404040" stroke-dasharray="5,2" points="8,-8 8,-95 318,-95 318,-8 8,-8"/>
<text text-anchor="middle" x="163" y="-83" font-family="Helvetica,sans-Serif" font-size="10.00">onion</text>
</a>
</g>
</g>
<g id="clust2" class="cluster">
<title>clusterdir_85956902490f597b4eb5733f3dffc513</title>
<g id="a_clust2"><a xlink:href="dir_85956902490f597b4eb5733f3dffc513.html" target="_top">
<polygon fill="#daedff" stroke="#404040" stroke-width="2" points="16,-16 16,-68 310,-68 310,-16 16,-16"/>
</a>
</g>
</g>
<!-- dir_85956902490f597b4eb5733f3dffc513 -->
<g id="node1" class="node">
<title>dir_85956902490f597b4eb5733f3dffc513</title>
<text text-anchor="middle" x="275" y="-39.5" font-family="Helvetica,sans-Serif" font-size="10.00">cops</text>
</g>
<!-- dir_22444ee0a641fe91495d005a70d82dc2 -->
<g id="node2" class="node">
<title>dir_22444ee0a641fe91495d005a70d82dc2</title>
<g id="a_node2"><a xlink:href="dir_22444ee0a641fe91495d005a70d82dc2.html" target="_top" xlink:title="functions">
<polygon fill="#4ea9ff" stroke="#404040" points="230,-60 168,-60 168,-24 230,-24 230,-60"/>
<text text-anchor="middle" x="199" y="-39.5" font-family="Helvetica,sans-Serif" font-size="10.00">functions</text>
</a>
</g>
</g>
<!-- dir_b54ce21c6b45bcfcabe321b4e18018d4 -->
<g id="node3" class="node">
<title>dir_b54ce21c6b45bcfcabe321b4e18018d4</title>
<g id="a_node3"><a xlink:href="dir_b54ce21c6b45bcfcabe321b4e18018d4.html" target="_top" xlink:title="mkp">
<polygon fill="#4ea9ff" stroke="#404040" points="150,-60 96,-60 96,-24 150,-24 150,-60"/>
<text text-anchor="middle" x="123" y="-39.5" font-family="Helvetica,sans-Serif" font-size="10.00">mkp</text>
</a>
</g>
</g>
<!-- dir_a8c0d3ebe33e88dfca548d397b83233f -->
<g id="node4" class="node">
<title>dir_a8c0d3ebe33e88dfca548d397b83233f</title>
<g id="a_node4"><a xlink:href="dir_a8c0d3ebe33e88dfca548d397b83233f.html" target="_top" xlink:title="tsp">
<polygon fill="#4ea9ff" stroke="#404040" points="78,-60 24,-60 24,-24 78,-24 78,-60"/>
<text text-anchor="middle" x="51" y="-39.5" font-family="Helvetica,sans-Serif" font-size="10.00">tsp</text>
</a>
</g>
</g>
</g>
</svg>
