<?xml version="1.0" encoding="UTF-8" standalone="no"?>
<!DOCTYPE svg PUBLIC "-//W3C//DTD SVG 1.1//EN"
 "http://www.w3.org/Graphics/SVG/1.1/DTD/svg11.dtd">
<!-- Generated by graphviz version 2.43.0 (0)
 -->
<!-- Title: tsp Pages: 1 -->
<svg width="262pt" height="111pt"
 viewBox="0.00 0.00 262.00 111.00" xmlns="http://www.w3.org/2000/svg" xmlns:xlink="http://www.w3.org/1999/xlink">
<g id="graph0" class="graph" transform="scale(1 1) rotate(0) translate(4 107)">
<title>tsp</title>
<polygon fill="white" stroke="transparent" points="-4,4 -4,-107 258,-107 258,4 -4,4"/>
<g id="clust1" class="cluster">
<title>clusterdir_85956902490f597b4eb5733f3dffc513</title>
<g id="a_clust1"><a xlink:href="dir_85956902490f597b4eb5733f3dffc513.html" target="_top" xlink:title="cops">
<polygon fill="#daedff" stroke="#7f7f7f" stroke-dasharray="5,2" points="8,-8 8,-95 246,-95 246,-8 8,-8"/>
<text text-anchor="middle" x="127" y="-83" font-family="Helvetica,sans-Serif" font-size="10.00">cops</text>
</a>
</g>
</g>
<g id="clust2" class="cluster">
<title>clusterdir_a8c0d3ebe33e88dfca548d397b83233f</title>
<g id="a_clust2"><a xlink:href="dir_a8c0d3ebe33e88dfca548d397b83233f.html" target="_top">
<polygon fill="#daedff" stroke="#404040" stroke-width="2" points="16,-16 16,-68 238,-68 238,-16 16,-16"/>
</a>
</g>
</g>
<!-- dir_a8c0d3ebe33e88dfca548d397b83233f -->
<g id="node1" class="node">
<title>dir_a8c0d3ebe33e88dfca548d397b83233f</title>
<text text-anchor="middle" x="203" y="-39.5" font-family="Helvetica,sans-Serif" font-size="10.00">tsp</text>
</g>
<!-- dir_6568c4d3d90cbbda48cbfcc289a50b58 -->
<g id="node2" class="node">
<title>dir_6568c4d3d90cbbda48cbfcc289a50b58</title>
<g id="a_node2"><a xlink:href="dir_6568c4d3d90cbbda48cbfcc289a50b58.html" target="_top" xlink:title="array">
<polygon fill="#4ea9ff" stroke="#404040" points="158,-60 104,-60 104,-24 158,-24 158,-60"/>
<text text-anchor="middle" x="131" y="-39.5" font-family="Helvetica,sans-Serif" font-size="10.00">array</text>
</a>
</g>
</g>
<!-- dir_427d5a5b9b8e1ffacef34b1426c08dff -->
<g id="node3" class="node">
<title>dir_427d5a5b9b8e1ffacef34b1426c08dff</title>
<g id="a_node3"><a xlink:href="dir_427d5a5b9b8e1ffacef34b1426c08dff.html" target="_top" xlink:title="bitmatrix">
<polygon fill="#4ea9ff" stroke="#404040" points="86,-60 24,-60 24,-24 86,-24 86,-60"/>
<text text-anchor="middle" x="55" y="-39.5" font-family="Helvetica,sans-Serif" font-size="10.00">bitmatrix</text>
</a>
</g>
</g>
</g>
</svg>
