<?xml version="1.0" encoding="UTF-8" standalone="no"?>
<!DOCTYPE svg PUBLIC "-//W3C//DTD SVG 1.1//EN"
 "http://www.w3.org/Graphics/SVG/1.1/DTD/svg11.dtd">
<!-- Generated by graphviz version 7.1.0 (20230121.1956)
 -->
<!-- Title: Graphical Class Hierarchy Pages: 1 -->
<svg width="299pt" height="78pt"
 viewBox="0.00 0.00 299.00 77.50" xmlns="http://www.w3.org/2000/svg" xmlns:xlink="http://www.w3.org/1999/xlink">
<g id="graph0" class="graph" transform="scale(1 1) rotate(0) translate(4 73.5)">
<title>Graphical Class Hierarchy</title>
<polygon fill="white" stroke="none" points="-4,4 -4,-73.5 295,-73.5 295,4 -4,4"/>
<!-- Node0 -->
<g id="node1" class="node">
<title>Node0</title>
<g id="a_node1"><a xlink:href="classonion_1_1_random_engine.html" target="_top" xlink:title="Inteface class for random number generation.">
<polygon fill="white" stroke="black" points="0,-28 0,-47 113,-47 113,-28 0,-28"/>
<text text-anchor="middle" x="56.5" y="-35" font-family="Helvetica,sans-Serif" font-size="10.00">onion::RandomEngine</text>
</a>
</g>
</g>
<!-- Node1 -->
<g id="node2" class="node">
<title>Node1</title>
<g id="a_node2"><a xlink:href="classonion_1_1_random_legacy_c.html" target="_top" xlink:title="Implements the RandomEngine interface using legacy C functions from C stdlib.">
<polygon fill="white" stroke="black" points="159,-50 159,-69 281,-69 281,-50 159,-50"/>
<text text-anchor="middle" x="220" y="-57" font-family="Helvetica,sans-Serif" font-size="10.00">onion::RandomLegacyC</text>
</a>
</g>
</g>
<!-- Node0&#45;&gt;Node1 -->
<g id="edge1" class="edge">
<title>Node0&#45;&gt;Node1</title>
<path fill="none" stroke="midnightblue" d="M123.71,-46.52C135.45,-48.12 147.6,-49.77 159.15,-51.35"/>
<polygon fill="midnightblue" stroke="midnightblue" points="124.51,-43.1 114.13,-45.21 123.56,-50.03 124.51,-43.1"/>
</g>
<!-- Node2 -->
<g id="node3" class="node">
<title>Node2</title>
<g id="a_node3"><a xlink:href="classonion_1_1_random_s_t_l.html" target="_top" xlink:title="Implements the RandomEngine interface using the C++ STL facilities.">
<polygon fill="white" stroke="black" points="149,-0.5 149,-30.5 291,-30.5 291,-0.5 149,-0.5"/>
<text text-anchor="start" x="157" y="-18.5" font-family="Helvetica,sans-Serif" font-size="10.00">onion::RandomSTL&lt; random</text>
<text text-anchor="middle" x="220" y="-7.5" font-family="Helvetica,sans-Serif" font-size="10.00">_engine_t &gt;</text>
</a>
</g>
</g>
<!-- Node0&#45;&gt;Node2 -->
<g id="edge2" class="edge">
<title>Node0&#45;&gt;Node2</title>
<path fill="none" stroke="midnightblue" d="M123.88,-28.46C132.26,-27.32 140.85,-26.15 149.27,-25"/>
<polygon fill="midnightblue" stroke="midnightblue" points="123.56,-24.97 114.13,-29.79 124.51,-31.9 123.56,-24.97"/>
</g>
</g>
</svg>
