<?xml version="1.0" encoding="UTF-8" standalone="no"?>
<!DOCTYPE svg PUBLIC "-//W3C//DTD SVG 1.1//EN"
 "http://www.w3.org/Graphics/SVG/1.1/DTD/svg11.dtd">
<!-- Generated by graphviz version 7.1.0 (20230121.1956)
 -->
<!-- Title: Graphical Class Hierarchy Pages: 1 -->
<svg width="479pt" height="368pt"
 viewBox="0.00 0.00 479.00 367.50" xmlns="http://www.w3.org/2000/svg" xmlns:xlink="http://www.w3.org/1999/xlink">
<g id="graph0" class="graph" transform="scale(1 1) rotate(0) translate(4 363.5)">
<title>Graphical Class Hierarchy</title>
<polygon fill="white" stroke="none" points="-4,4 -4,-363.5 475,-363.5 475,4 -4,4"/>
<!-- Node16 -->
<g id="node1" class="node">
<title>Node16</title>
<g id="a_node1"><a xlink:href="classonion_1_1_component_i_d.html" target="_top" xlink:title="Base class used to identify concrete implementations of the Onion basic components.">
<polygon fill="white" stroke="black" points="0,-202.5 0,-221.5 107,-221.5 107,-202.5 0,-202.5"/>
<text text-anchor="middle" x="53.5" y="-209.5" font-family="Helvetica,sans-Serif" font-size="10.00">onion::ComponentID</text>
</a>
</g>
</g>
<!-- Node1 -->
<g id="node2" class="node">
<title>Node1</title>
<g id="a_node2"><a xlink:href="classonion_1_1_create_operator.html" target="_top" xlink:title=" ">
<polygon fill="white" stroke="black" points="148.5,-148 148.5,-178 275.5,-178 275.5,-148 148.5,-148"/>
<text text-anchor="start" x="156.5" y="-166" font-family="Helvetica,sans-Serif" font-size="10.00">onion::CreateOperator</text>
<text text-anchor="middle" x="212" y="-155" font-family="Helvetica,sans-Serif" font-size="10.00">&lt; path_t&lt; num_cities &gt; &gt;</text>
</a>
</g>
</g>
<!-- Node16&#45;&gt;Node1 -->
<g id="edge1" class="edge">
<title>Node16&#45;&gt;Node1</title>
<path fill="none" stroke="midnightblue" d="M95.41,-199.19C116.23,-192.67 141.66,-184.71 163.37,-177.91"/>
<polygon fill="midnightblue" stroke="midnightblue" points="94.62,-195.77 86.12,-202.1 96.71,-202.45 94.62,-195.77"/>
</g>
<!-- Node3 -->
<g id="node4" class="node">
<title>Node3</title>
<g id="a_node4"><a xlink:href="classonion_1_1_create_operator.html" target="_top" xlink:title="Abstract Data Type that defines the CreateOperator component.">
<polygon fill="white" stroke="black" points="155.5,-99 155.5,-129 268.5,-129 268.5,-99 155.5,-99"/>
<text text-anchor="start" x="163.5" y="-117" font-family="Helvetica,sans-Serif" font-size="10.00">onion::CreateOperator</text>
<text text-anchor="middle" x="212" y="-106" font-family="Helvetica,sans-Serif" font-size="10.00">&lt; solution_t &gt;</text>
</a>
</g>
</g>
<!-- Node16&#45;&gt;Node3 -->
<g id="edge3" class="edge">
<title>Node16&#45;&gt;Node3</title>
<path fill="none" stroke="midnightblue" d="M84.86,-197.15C92.45,-192.78 100.33,-187.64 107,-182 126.29,-165.68 122.32,-152.52 143,-138 147.92,-134.55 153.38,-131.54 159.02,-128.95"/>
<polygon fill="midnightblue" stroke="midnightblue" points="83.26,-194.04 76.14,-201.89 86.6,-200.19 83.26,-194.04"/>
</g>
<!-- Node4 -->
<g id="node5" class="node">
<title>Node4</title>
<g id="a_node5"><a xlink:href="classonion_1_1_objective_function.html" target="_top" xlink:title="Abstract Data Type that defines the ObjectiveFuntion component.">
<polygon fill="white" stroke="black" points="149.5,-38.5 149.5,-79.5 274.5,-79.5 274.5,-38.5 149.5,-38.5"/>
<text text-anchor="start" x="157.5" y="-67.5" font-family="Helvetica,sans-Serif" font-size="10.00">onion::ObjectiveFunction</text>
<text text-anchor="start" x="157.5" y="-56.5" font-family="Helvetica,sans-Serif" font-size="10.00">&lt; solution_t, objective</text>
<text text-anchor="middle" x="212" y="-45.5" font-family="Helvetica,sans-Serif" font-size="10.00">_value_t &gt;</text>
</a>
</g>
</g>
<!-- Node16&#45;&gt;Node4 -->
<g id="edge4" class="edge">
<title>Node16&#45;&gt;Node4</title>
<path fill="none" stroke="midnightblue" d="M88.54,-197.1C95.31,-192.96 101.89,-187.93 107,-182 135.91,-148.4 112.39,-121.06 143,-89 146.39,-85.45 150.27,-82.3 154.42,-79.5"/>
<polygon fill="midnightblue" stroke="midnightblue" points="87.04,-193.92 79.96,-201.8 90.41,-200.06 87.04,-193.92"/>
</g>
<!-- Node5 -->
<g id="node6" class="node">
<title>Node5</title>
<g id="a_node6"><a xlink:href="classonion_1_1_parameter_operator.html" target="_top" xlink:title="Abstract Data Type that defines the ParameterOperator component.">
<polygon fill="white" stroke="black" points="145,-329 145,-359 279,-359 279,-329 145,-329"/>
<text text-anchor="start" x="153" y="-347" font-family="Helvetica,sans-Serif" font-size="10.00">onion::ParameterOperator</text>
<text text-anchor="middle" x="212" y="-336" font-family="Helvetica,sans-Serif" font-size="10.00">&lt; solution_t, parameter_t &gt;</text>
</a>
</g>
</g>
<!-- Node16&#45;&gt;Node5 -->
<g id="edge5" class="edge">
<title>Node16&#45;&gt;Node5</title>
<path fill="none" stroke="midnightblue" d="M65.75,-231.03C80.65,-254.71 109.05,-294.96 143,-319 148.44,-322.85 154.54,-326.18 160.8,-329.04"/>
<polygon fill="midnightblue" stroke="midnightblue" points="68.88,-229.43 60.67,-222.72 62.9,-233.08 68.88,-229.43"/>
</g>
<!-- Node6 -->
<g id="node7" class="node">
<title>Node6</title>
<g id="a_node7"><a xlink:href="classonion_1_1_perturbation_operator.html" target="_top" xlink:title="Abstract Data Type that defines the Perturbation Operator.">
<polygon fill="white" stroke="black" points="144,-268.5 144,-309.5 280,-309.5 280,-268.5 144,-268.5"/>
<text text-anchor="start" x="152" y="-297.5" font-family="Helvetica,sans-Serif" font-size="10.00">onion::PerturbationOperator</text>
<text text-anchor="start" x="152" y="-286.5" font-family="Helvetica,sans-Serif" font-size="10.00">&lt; solution_t, perturbation</text>
<text text-anchor="middle" x="212" y="-275.5" font-family="Helvetica,sans-Serif" font-size="10.00">_result_t &gt;</text>
</a>
</g>
</g>
<!-- Node16&#45;&gt;Node6 -->
<g id="edge6" class="edge">
<title>Node16&#45;&gt;Node6</title>
<path fill="none" stroke="midnightblue" d="M81.29,-226.88C98.71,-236.39 122,-248.81 143,-259 149.62,-262.21 156.66,-265.48 163.61,-268.62"/>
<polygon fill="midnightblue" stroke="midnightblue" points="83.05,-223.86 72.6,-222.11 79.68,-229.99 83.05,-223.86"/>
</g>
<!-- Node8 -->
<g id="node8" class="node">
<title>Node8</title>
<g id="a_node8"><a xlink:href="classonion_1_1_select_operator.html" target="_top" xlink:title="Defines the interface of SelectOperator components.">
<polygon fill="white" stroke="black" points="148,-197 148,-249 276,-249 276,-197 148,-197"/>
<text text-anchor="start" x="156" y="-237" font-family="Helvetica,sans-Serif" font-size="10.00">onion::SelectOperator</text>
<text text-anchor="start" x="156" y="-226" font-family="Helvetica,sans-Serif" font-size="10.00">&lt; objective_value_t,</text>
<text text-anchor="start" x="156" y="-215" font-family="Helvetica,sans-Serif" font-size="10.00"> objective_function_result</text>
<text text-anchor="middle" x="212" y="-204" font-family="Helvetica,sans-Serif" font-size="10.00">_t, compare &gt;</text>
</a>
</g>
</g>
<!-- Node16&#45;&gt;Node8 -->
<g id="edge7" class="edge">
<title>Node16&#45;&gt;Node8</title>
<path fill="none" stroke="midnightblue" d="M118.1,-216.47C128.04,-217.17 138.32,-217.89 148.24,-218.59"/>
<polygon fill="midnightblue" stroke="midnightblue" points="118.34,-212.98 108.12,-215.77 117.85,-219.96 118.34,-212.98"/>
</g>
<!-- Node2 -->
<g id="node3" class="node">
<title>Node2</title>
<g id="a_node3"><a xlink:href="classonion_1_1cops_1_1tsp_1_1array_1_1_create_random.html" target="_top" xlink:title=" ">
<polygon fill="white" stroke="black" points="317,-148 317,-178 471,-178 471,-148 317,-148"/>
<text text-anchor="start" x="325" y="-166" font-family="Helvetica,sans-Serif" font-size="10.00">onion::cops::tsp::array</text>
<text text-anchor="middle" x="394" y="-155" font-family="Helvetica,sans-Serif" font-size="10.00">::CreateRandom&lt; num_cities &gt;</text>
</a>
</g>
</g>
<!-- Node1&#45;&gt;Node2 -->
<g id="edge2" class="edge">
<title>Node1&#45;&gt;Node2</title>
<path fill="none" stroke="midnightblue" d="M286.94,-163C296.86,-163 307.05,-163 317.01,-163"/>
<polygon fill="midnightblue" stroke="midnightblue" points="286.96,-159.5 276.96,-163 286.96,-166.5 286.96,-159.5"/>
</g>
<!-- Node0 -->
<g id="node9" class="node">
<title>Node0</title>
<g id="a_node9"><a xlink:href="classonion_1_1_non_copyable.html" target="_top" xlink:title="Class to make other classes non&#45;copyable.">
<polygon fill="white" stroke="black" points="1,-153.5 1,-172.5 106,-172.5 106,-153.5 1,-153.5"/>
<text text-anchor="middle" x="53.5" y="-160.5" font-family="Helvetica,sans-Serif" font-size="10.00">onion::NonCopyable</text>
</a>
</g>
</g>
<!-- Node0&#45;&gt;Node1 -->
<g id="edge8" class="edge">
<title>Node0&#45;&gt;Node1</title>
<path fill="none" stroke="midnightblue" d="M117.25,-163C127.62,-163 138.36,-163 148.72,-163"/>
<polygon fill="midnightblue" stroke="midnightblue" points="117.26,-159.5 107.26,-163 117.26,-166.5 117.26,-159.5"/>
</g>
<!-- Node0&#45;&gt;Node3 -->
<g id="edge9" class="edge">
<title>Node0&#45;&gt;Node3</title>
<path fill="none" stroke="midnightblue" d="M95.41,-150.19C116.23,-143.67 141.66,-135.71 163.37,-128.91"/>
<polygon fill="midnightblue" stroke="midnightblue" points="94.62,-146.77 86.12,-153.1 96.71,-153.45 94.62,-146.77"/>
</g>
<!-- Node0&#45;&gt;Node4 -->
<g id="edge10" class="edge">
<title>Node0&#45;&gt;Node4</title>
<path fill="none" stroke="midnightblue" d="M71.54,-146.23C88.57,-130.09 116.05,-105.74 143,-89 148.48,-85.6 154.41,-82.38 160.41,-79.4"/>
<polygon fill="midnightblue" stroke="midnightblue" points="69.5,-143.33 64.73,-152.79 74.36,-148.37 69.5,-143.33"/>
</g>
<!-- Node0&#45;&gt;Node5 -->
<g id="edge11" class="edge">
<title>Node0&#45;&gt;Node5</title>
<path fill="none" stroke="midnightblue" d="M89.32,-177.79C95.93,-181.91 102.26,-186.95 107,-193 142.94,-238.83 103.37,-276.32 143,-319 146.68,-322.96 151.04,-326.3 155.75,-329.11"/>
<polygon fill="midnightblue" stroke="midnightblue" points="91.34,-174.91 80.89,-173.14 87.96,-181.04 91.34,-174.91"/>
</g>
<!-- Node0&#45;&gt;Node6 -->
<g id="edge12" class="edge">
<title>Node0&#45;&gt;Node6</title>
<path fill="none" stroke="midnightblue" d="M86.74,-177.69C93.96,-181.95 101.19,-187.07 107,-193 130.39,-216.86 118.4,-236.38 143,-259 146.89,-262.58 151.29,-265.78 155.91,-268.64"/>
<polygon fill="midnightblue" stroke="midnightblue" points="88.83,-174.84 78.37,-173.15 85.5,-181 88.83,-174.84"/>
</g>
<!-- Node0&#45;&gt;Node8 -->
<g id="edge14" class="edge">
<title>Node0&#45;&gt;Node8</title>
<path fill="none" stroke="midnightblue" d="M89.66,-176.48C106.94,-183.11 128.3,-191.29 148.25,-198.94"/>
<polygon fill="midnightblue" stroke="midnightblue" points="90.96,-173.23 80.37,-172.92 88.45,-179.76 90.96,-173.23"/>
</g>
<!-- Node7 -->
<g id="node10" class="node">
<title>Node7</title>
<g id="a_node10"><a xlink:href="classonion_1_1_random_engine_proxy.html" target="_top" xlink:title="Creates and control the access to the global RandonEngine object.">
<polygon fill="white" stroke="black" points="143,-0.5 143,-19.5 281,-19.5 281,-0.5 143,-0.5"/>
<text text-anchor="middle" x="212" y="-7.5" font-family="Helvetica,sans-Serif" font-size="10.00">onion::RandomEngineProxy</text>
</a>
</g>
</g>
<!-- Node0&#45;&gt;Node7 -->
<g id="edge13" class="edge">
<title>Node0&#45;&gt;Node7</title>
<path fill="none" stroke="midnightblue" d="M62.33,-142.91C74.85,-113.43 102.21,-58.73 143,-29 148.45,-25.03 154.69,-21.89 161.14,-19.4"/>
<polygon fill="midnightblue" stroke="midnightblue" points="59.1,-141.55 58.57,-152.13 65.58,-144.19 59.1,-141.55"/>
</g>
</g>
</svg>
