<?xml version="1.0" encoding="UTF-8" standalone="no"?>
<!DOCTYPE svg PUBLIC "-//W3C//DTD SVG 1.1//EN"
 "http://www.w3.org/Graphics/SVG/1.1/DTD/svg11.dtd">
<!-- Generated by graphviz version 2.43.0 (0)
 -->
<!-- Title: Graphical Class Hierarchy Pages: 1 -->
<svg width="520pt" height="368pt"
 viewBox="0.00 0.00 520.00 367.50" xmlns="http://www.w3.org/2000/svg" xmlns:xlink="http://www.w3.org/1999/xlink">
<g id="graph0" class="graph" transform="scale(1 1) rotate(0) translate(4 363.5)">
<title>Graphical Class Hierarchy</title>
<polygon fill="white" stroke="transparent" points="-4,4 -4,-363.5 516,-363.5 516,4 -4,4"/>
<!-- Node0 -->
<g id="node1" class="node">
<title>Node0</title>
<g id="a_node1"><a xlink:href="classonion_1_1_component_i_d.html" target="_top" xlink:title="Base class used to provide identification functionalities to concrete implementations of the Onion co...">
<polygon fill="white" stroke="black" points="0,-202.5 0,-221.5 116,-221.5 116,-202.5 0,-202.5"/>
<text text-anchor="middle" x="58" y="-209.5" font-family="Helvetica,sans-Serif" font-size="10.00">onion::ComponentID</text>
</a>
</g>
</g>
<!-- Node1 -->
<g id="node2" class="node">
<title>Node1</title>
<g id="a_node2"><a xlink:href="classonion_1_1_create_operator.html" target="_top" xlink:title=" ">
<polygon fill="white" stroke="black" points="155.5,-148 155.5,-178 301.5,-178 301.5,-148 155.5,-148"/>
<text text-anchor="start" x="163.5" y="-166" font-family="Helvetica,sans-Serif" font-size="10.00">onion::CreateOperator</text>
<text text-anchor="middle" x="228.5" y="-155" font-family="Helvetica,sans-Serif" font-size="10.00">&lt; path_t&lt; num_cities &gt; &gt;</text>
</a>
</g>
</g>
<!-- Node0&#45;&gt;Node1 -->
<g id="edge1" class="edge">
<title>Node0&#45;&gt;Node1</title>
<path fill="none" stroke="midnightblue" d="M101.52,-199.63C124.08,-193.07 151.99,-184.96 175.79,-178.04"/>
<polygon fill="midnightblue" stroke="midnightblue" points="100.51,-196.28 91.89,-202.44 102.47,-203 100.51,-196.28"/>
</g>
<!-- Node4 -->
<g id="node4" class="node">
<title>Node4</title>
<g id="a_node4"><a xlink:href="classonion_1_1_create_operator.html" target="_top" xlink:title="Abstract Data Type that defines the CreateOperator component.">
<polygon fill="white" stroke="black" points="166,-99 166,-129 291,-129 291,-99 166,-99"/>
<text text-anchor="start" x="174" y="-117" font-family="Helvetica,sans-Serif" font-size="10.00">onion::CreateOperator</text>
<text text-anchor="middle" x="228.5" y="-106" font-family="Helvetica,sans-Serif" font-size="10.00">&lt; solution_t &gt;</text>
</a>
</g>
</g>
<!-- Node0&#45;&gt;Node4 -->
<g id="edge3" class="edge">
<title>Node0&#45;&gt;Node4</title>
<path fill="none" stroke="midnightblue" d="M91.19,-197.92C99.69,-193.45 108.56,-188.08 116,-182 135.57,-166.02 131.1,-152.19 152,-138 157.01,-134.6 162.52,-131.66 168.23,-129.12"/>
<polygon fill="midnightblue" stroke="midnightblue" points="89.6,-194.8 82.2,-202.39 92.71,-201.07 89.6,-194.8"/>
</g>
<!-- Node5 -->
<g id="node5" class="node">
<title>Node5</title>
<g id="a_node5"><a xlink:href="classonion_1_1_objective_function.html" target="_top" xlink:title="Abstract Data Type that defines the ObjectiveFuntion component.">
<polygon fill="white" stroke="black" points="160,-38.5 160,-79.5 297,-79.5 297,-38.5 160,-38.5"/>
<text text-anchor="start" x="168" y="-67.5" font-family="Helvetica,sans-Serif" font-size="10.00">onion::ObjectiveFunction</text>
<text text-anchor="start" x="168" y="-56.5" font-family="Helvetica,sans-Serif" font-size="10.00">&lt; solution_t, objective</text>
<text text-anchor="middle" x="228.5" y="-45.5" font-family="Helvetica,sans-Serif" font-size="10.00">_value_t &gt;</text>
</a>
</g>
</g>
<!-- Node0&#45;&gt;Node5 -->
<g id="edge4" class="edge">
<title>Node0&#45;&gt;Node5</title>
<path fill="none" stroke="midnightblue" d="M95.75,-197.65C103.17,-193.46 110.4,-188.28 116,-182 145.49,-148.91 120.8,-120.48 152,-89 155.48,-85.49 159.41,-82.39 163.62,-79.63"/>
<polygon fill="midnightblue" stroke="midnightblue" points="93.69,-194.77 86.36,-202.42 96.86,-201.01 93.69,-194.77"/>
</g>
<!-- Node6 -->
<g id="node6" class="node">
<title>Node6</title>
<g id="a_node6"><a xlink:href="classonion_1_1_parameter_operator.html" target="_top" xlink:title="Abstract Data Type that defines the ParameterOperator component.">
<polygon fill="white" stroke="black" points="152,-329 152,-359 305,-359 305,-329 152,-329"/>
<text text-anchor="start" x="160" y="-347" font-family="Helvetica,sans-Serif" font-size="10.00">onion::ParameterOperator</text>
<text text-anchor="middle" x="228.5" y="-336" font-family="Helvetica,sans-Serif" font-size="10.00">&lt; solution_t, parameter_t &gt;</text>
</a>
</g>
</g>
<!-- Node0&#45;&gt;Node6 -->
<g id="edge5" class="edge">
<title>Node0&#45;&gt;Node6</title>
<path fill="none" stroke="midnightblue" d="M70.3,-230.23C85.89,-253.94 116.17,-295.14 152,-319 157.75,-322.83 164.13,-326.11 170.68,-328.92"/>
<polygon fill="midnightblue" stroke="midnightblue" points="73.06,-228.05 64.72,-221.51 67.16,-231.82 73.06,-228.05"/>
</g>
<!-- Node7 -->
<g id="node7" class="node">
<title>Node7</title>
<g id="a_node7"><a xlink:href="classonion_1_1_perturbation_operator.html" target="_top" xlink:title="Abstract Data Type that defines the Perturbation Operator.">
<polygon fill="white" stroke="black" points="152.5,-268.5 152.5,-309.5 304.5,-309.5 304.5,-268.5 152.5,-268.5"/>
<text text-anchor="start" x="160.5" y="-297.5" font-family="Helvetica,sans-Serif" font-size="10.00">onion::PerturbationOperator</text>
<text text-anchor="start" x="160.5" y="-286.5" font-family="Helvetica,sans-Serif" font-size="10.00">&lt; solution_t, perturbation</text>
<text text-anchor="middle" x="228.5" y="-275.5" font-family="Helvetica,sans-Serif" font-size="10.00">_result_t &gt;</text>
</a>
</g>
</g>
<!-- Node0&#45;&gt;Node7 -->
<g id="edge6" class="edge">
<title>Node0&#45;&gt;Node7</title>
<path fill="none" stroke="midnightblue" d="M85.91,-226.41C104.32,-236.06 129.38,-248.82 152,-259 159.07,-262.18 166.59,-265.39 174.04,-268.45"/>
<polygon fill="midnightblue" stroke="midnightblue" points="87.42,-223.25 76.94,-221.67 84.15,-229.44 87.42,-223.25"/>
</g>
<!-- Node9 -->
<g id="node8" class="node">
<title>Node9</title>
<g id="a_node8"><a xlink:href="classonion_1_1_select_operator.html" target="_top" xlink:title="Defines the interface of SelectOperator components.">
<polygon fill="white" stroke="black" points="157,-197 157,-249 300,-249 300,-197 157,-197"/>
<text text-anchor="start" x="165" y="-237" font-family="Helvetica,sans-Serif" font-size="10.00">onion::SelectOperator</text>
<text text-anchor="start" x="165" y="-226" font-family="Helvetica,sans-Serif" font-size="10.00">&lt; objective_value_t,</text>
<text text-anchor="start" x="165" y="-215" font-family="Helvetica,sans-Serif" font-size="10.00"> objective_function_result</text>
<text text-anchor="middle" x="228.5" y="-204" font-family="Helvetica,sans-Serif" font-size="10.00">_t, compare &gt;</text>
</a>
</g>
</g>
<!-- Node0&#45;&gt;Node9 -->
<g id="edge7" class="edge">
<title>Node0&#45;&gt;Node9</title>
<path fill="none" stroke="midnightblue" d="M126.33,-216.4C136.34,-217.05 146.69,-217.72 156.77,-218.38"/>
<polygon fill="midnightblue" stroke="midnightblue" points="126.25,-212.88 116.05,-215.72 125.8,-219.87 126.25,-212.88"/>
</g>
<!-- Node2 -->
<g id="node3" class="node">
<title>Node2</title>
<g id="a_node3"><a xlink:href="classonion_1_1cops_1_1tsp_1_1array_1_1_create_random.html" target="_top" xlink:title=" ">
<polygon fill="white" stroke="black" points="341,-148 341,-178 512,-178 512,-148 341,-148"/>
<text text-anchor="start" x="349" y="-166" font-family="Helvetica,sans-Serif" font-size="10.00">onion::cops::tsp::array</text>
<text text-anchor="middle" x="426.5" y="-155" font-family="Helvetica,sans-Serif" font-size="10.00">::CreateRandom&lt; num_cities &gt;</text>
</a>
</g>
</g>
<!-- Node1&#45;&gt;Node2 -->
<g id="edge2" class="edge">
<title>Node1&#45;&gt;Node2</title>
<path fill="none" stroke="midnightblue" d="M311.94,-163C321.52,-163 331.29,-163 340.9,-163"/>
<polygon fill="midnightblue" stroke="midnightblue" points="311.65,-159.5 301.65,-163 311.65,-166.5 311.65,-159.5"/>
</g>
<!-- Node3 -->
<g id="node9" class="node">
<title>Node3</title>
<g id="a_node9"><a xlink:href="classonion_1_1_non_copyable.html" target="_top" xlink:title="Class to make other classes non&#45;copyable.">
<polygon fill="white" stroke="black" points="0.5,-153.5 0.5,-172.5 115.5,-172.5 115.5,-153.5 0.5,-153.5"/>
<text text-anchor="middle" x="58" y="-160.5" font-family="Helvetica,sans-Serif" font-size="10.00">onion::NonCopyable</text>
</a>
</g>
</g>
<!-- Node3&#45;&gt;Node1 -->
<g id="edge8" class="edge">
<title>Node3&#45;&gt;Node1</title>
<path fill="none" stroke="midnightblue" d="M125.58,-163C135.31,-163 145.37,-163 155.21,-163"/>
<polygon fill="midnightblue" stroke="midnightblue" points="125.58,-159.5 115.58,-163 125.58,-166.5 125.58,-159.5"/>
</g>
<!-- Node3&#45;&gt;Node4 -->
<g id="edge9" class="edge">
<title>Node3&#45;&gt;Node4</title>
<path fill="none" stroke="midnightblue" d="M101.52,-150.63C124.08,-144.07 151.99,-135.96 175.79,-129.04"/>
<polygon fill="midnightblue" stroke="midnightblue" points="100.51,-147.28 91.89,-153.44 102.47,-154 100.51,-147.28"/>
</g>
<!-- Node3&#45;&gt;Node5 -->
<g id="edge10" class="edge">
<title>Node3&#45;&gt;Node5</title>
<path fill="none" stroke="midnightblue" d="M76.23,-146.7C94.09,-130.45 123.36,-105.6 152,-89 157.86,-85.61 164.17,-82.43 170.57,-79.51"/>
<polygon fill="midnightblue" stroke="midnightblue" points="73.84,-144.14 68.87,-153.5 78.59,-149.28 73.84,-144.14"/>
</g>
<!-- Node3&#45;&gt;Node6 -->
<g id="edge11" class="edge">
<title>Node3&#45;&gt;Node6</title>
<path fill="none" stroke="midnightblue" d="M96.81,-177.34C103.98,-181.48 110.84,-186.65 116,-193 152.73,-238.2 111.68,-276.97 152,-319 155.73,-322.89 160.07,-326.17 164.76,-328.94"/>
<polygon fill="midnightblue" stroke="midnightblue" points="98.16,-174.1 87.67,-172.62 94.95,-180.32 98.16,-174.1"/>
</g>
<!-- Node3&#45;&gt;Node7 -->
<g id="edge12" class="edge">
<title>Node3&#45;&gt;Node7</title>
<path fill="none" stroke="midnightblue" d="M93.81,-177.17C101.71,-181.47 109.64,-186.74 116,-193 139.8,-216.45 126.99,-236.85 152,-259 155.91,-262.46 160.26,-265.55 164.85,-268.3"/>
<polygon fill="midnightblue" stroke="midnightblue" points="95.14,-173.93 84.63,-172.59 92.01,-180.19 95.14,-173.93"/>
</g>
<!-- Node3&#45;&gt;Node9 -->
<g id="edge14" class="edge">
<title>Node3&#45;&gt;Node9</title>
<path fill="none" stroke="midnightblue" d="M95.23,-175.9C113.26,-182.32 135.7,-190.31 156.94,-197.88"/>
<polygon fill="midnightblue" stroke="midnightblue" points="96.29,-172.56 85.7,-172.51 93.95,-179.16 96.29,-172.56"/>
</g>
<!-- Node8 -->
<g id="node10" class="node">
<title>Node8</title>
<g id="a_node10"><a xlink:href="classonion_1_1_random_engine_proxy.html" target="_top" xlink:title="Creates and control the access to the global RandonEngine object.">
<polygon fill="white" stroke="black" points="153,-0.5 153,-19.5 304,-19.5 304,-0.5 153,-0.5"/>
<text text-anchor="middle" x="228.5" y="-7.5" font-family="Helvetica,sans-Serif" font-size="10.00">onion::RandomEngineProxy</text>
</a>
</g>
</g>
<!-- Node3&#45;&gt;Node8 -->
<g id="edge13" class="edge">
<title>Node3&#45;&gt;Node8</title>
<path fill="none" stroke="midnightblue" d="M66.88,-143.94C80.02,-114.58 109.28,-58.56 152,-29 157.56,-25.15 163.82,-22.09 170.31,-19.64"/>
<polygon fill="midnightblue" stroke="midnightblue" points="63.52,-142.89 62.77,-153.46 69.95,-145.67 63.52,-142.89"/>
</g>
</g>
</svg>
